<?xml version="1.0" encoding="utf-8"?>
<!-- Generator: Adobe Illustrator 16.0.4, SVG Export Plug-In . SVG Version: 6.00 Build 0)  -->
<!DOCTYPE svg PUBLIC "-//W3C//DTD SVG 1.1//EN" "http://www.w3.org/Graphics/SVG/1.1/DTD/svg11.dtd">
<svg version="1.1" id="Twitter_1_" xmlns="http://www.w3.org/2000/svg" xmlns:xlink="http://www.w3.org/1999/xlink" x="0px" y="0px"
	 width="32px" height="32px" viewBox="-255.5 -1087.5 32 32" enable-background="new -255.5 -1087.5 32 32" xml:space="preserve">
<g>
	<path fill="#FFFFFF" d="M-227.627-1077.588c0.019,0.266,0.019,0.531,0.019,0.797c0,8.099-6.164,17.43-17.43,17.43
		c-3.471,0-6.695-1.005-9.408-2.75c0.493,0.057,0.967,0.076,1.479,0.076c2.864,0,5.5-0.967,7.605-2.617
		c-2.693-0.057-4.95-1.821-5.728-4.249c0.379,0.057,0.759,0.095,1.157,0.095c0.55,0,1.1-0.076,1.612-0.208
		c-2.807-0.569-4.913-3.035-4.913-6.013c0-0.019,0-0.057,0-0.076c0.815,0.455,1.764,0.74,2.769,0.777
		c-1.65-1.1-2.731-2.978-2.731-5.102c0-1.138,0.303-2.181,0.834-3.091c3.016,3.717,7.549,6.145,12.632,6.411
		c-0.095-0.455-0.152-0.929-0.152-1.403c0-3.376,2.731-6.126,6.126-6.126c1.764,0,3.357,0.74,4.476,1.935
		c1.384-0.266,2.712-0.778,3.888-1.479c-0.456,1.423-1.423,2.618-2.693,3.376c1.233-0.132,2.428-0.474,3.528-0.948
		C-225.389-1079.542-226.433-1078.461-227.627-1077.588z"/>
</g>
</svg>
