<?xml version="1.0" encoding="utf-8"?>
<!-- Generator: Adobe Illustrator 22.0.1, SVG Export Plug-In . SVG Version: 6.00 Build 0)  -->
<svg version="1.1" id="Version_5-Output_2" xmlns="http://www.w3.org/2000/svg" xmlns:xlink="http://www.w3.org/1999/xlink" x="0px"
	 y="0px" viewBox="0 0 250.7 232" style="enable-background:new 0 0 250.7 232;" xml:space="preserve">
<metadata><?xpacket begin="﻿" id="W5M0MpCehiHzreSzNTczkc9d"?>
<x:xmpmeta xmlns:x="adobe:ns:meta/" x:xmptk="Adobe XMP Core 5.6-c143 79.161210, 2017/08/11-10:28:36        ">
   <rdf:RDF xmlns:rdf="http://www.w3.org/1999/02/22-rdf-syntax-ns#">
      <rdf:Description rdf:about=""/>
   </rdf:RDF>
</x:xmpmeta>





















<?xpacket end="w"?></metadata>
<style type="text/css">
	.st0{fill:#8E301D;}
	.st1{fill:#F99C1C;}
	.st2{fill:#FECA8B;}
	.st3{fill:#FFFFFF;}
	.st4{fill:#37727A;}
</style>
<g>
	<g>
		<g>
			<path class="st0" d="M10.4,149.3c2.7-6.1,5.4-12.3,8.2-18.3c-2.7-4.9-5.4-9.8-8.2-14.7c75.4-17.7,153.8-17.7,229.2,0
				c-2.7,4.9-5.4,9.7-8.2,14.7c2.7,6.1,5.4,12.2,8.2,18.3C164.2,131.6,85.8,131.6,10.4,149.3z"/>
			<path class="st1" d="M237.2,117.2c-2.2,4-4.5,8.1-6.8,12.2c-0.2,0.4-0.4,0.8-0.7,1.2c0.2,0.5,0.4,1,0.7,1.5
				c2.3,5,4.5,10.1,6.8,15.2c-73.8-17-150.6-17-224.4,0c2.2-5.1,4.5-10.1,6.8-15.2c0.2-0.5,0.4-1,0.7-1.5c-0.2-0.4-0.4-0.8-0.7-1.2
				c-2.3-4.1-4.5-8.1-6.8-12.2C86.6,100.2,163.4,100.2,237.2,117.2 M242,115.3c-76.9-18.5-157.1-18.5-234,0c3,5.3,5.9,10.6,8.9,16
				c-3,6.7-5.9,13.3-8.9,20c76.9-18.5,157.1-18.5,234,0c-3-6.7-5.9-13.4-8.9-20C236.1,125.9,239,120.6,242,115.3L242,115.3z"/>
		</g>
		<g>
			<path class="st2" d="M29.4,130.8c-0.2,0-0.4,0.2-0.4,0.5c0,2,0,3.9,0,5.9c1.9-0.4,3.8-0.7,5.7-1.1c0,1.1,0,2.1,0,3.2
				c-3.2,0.6-6.4,1.2-9.6,1.8c0-3.5,0-7,0-10.5c0-1.6,1-2.9,2.6-3.2c0.9-0.2,1.8-0.3,2.7-0.5c0.2,0,0.4-0.2,0.4-0.5
				c0-1.9,0-3.9,0-5.8c0-0.2-0.2-0.4-0.4-0.3c-1.7,0.3-3.3,0.6-5,1c0-1.1,0-2.1,0-3.2c2.2-0.4,4.4-0.9,6.5-1.3
				c1.6-0.3,2.6,0.5,2.6,2.2c0,2.7,0,5.5,0,8.2c0,1.6-1,2.8-2.6,3.1C31.2,130.5,30.3,130.7,29.4,130.8z"/>
			<path class="st2" d="M49.5,116.3c0,6,0,12,0,18c0,1.6-1,2.8-2.6,3.1c-1.9,0.3-3.7,0.6-5.6,0.9c-1.6,0.3-2.6-0.6-2.6-2.2
				c0-6,0-12,0-18c0-1.6,1-2.8,2.6-3.1c1.9-0.3,3.7-0.6,5.6-0.9C48.5,113.8,49.5,114.7,49.5,116.3z M45.2,134.5
				c0.2,0,0.4-0.2,0.4-0.5c0-5.4,0-10.7,0-16.1c0-0.2-0.2-0.4-0.4-0.3c-0.8,0.1-1.6,0.3-2.4,0.4c-0.2,0-0.4,0.2-0.4,0.5
				c0,5.4,0,10.7,0,16.1c0,0.2,0.2,0.4,0.4,0.3C43.6,134.8,44.4,134.6,45.2,134.5z"/>
		</g>
		<g>
			<path class="st2" d="M199.8,136.7c0-1.1,0-2.2,0-3.2c1.4,0.2,2.9,0.4,4.3,0.7c0-5.3,0-10.7,0-16c-1.1,0.1-2.2,0.1-3.3,0.2
				c-0.2-1-0.5-1.9-0.7-2.9c1.6-0.3,3.2-0.6,4.8-0.9c1,0.2,2,0.3,3,0.5c0,6.6,0,13.1,0,19.7c1.3,0.2,2.6,0.4,3.9,0.7
				c0,1.1,0,2.2,0,3.2C207.7,138,203.7,137.3,199.8,136.7z"/>
			<path class="st2" d="M223,128.9c1.2,0.2,2.5,1.8,2.5,3.1c0,2.3,0,4.6,0,6.8c0,1.6-1,2.4-2.6,2.1c-1.7-0.3-3.4-0.7-5.1-1
				c-1.6-0.3-2.6-1.5-2.6-3.1c0-2.3,0-4.6,0-6.8c0-1.3,1.2-2.4,2.5-2.1c-1.3-0.2-2.5-1.1-2.5-2.5c0-2.2,0-4.4,0-6.6
				c0-1.6,1-2.5,2.6-2.2c1.7,0.3,3.4,0.7,5.1,1c1.6,0.3,2.6,1.6,2.6,3.2c0,2.2,0,4.4,0,6.6C225.5,128.7,224.2,129.1,223,128.9z
				 M221.7,121c0-0.2-0.2-0.4-0.4-0.5c-0.7-0.1-1.3-0.3-2-0.4c-0.2,0-0.4,0.1-0.4,0.3c0,2,0,3.9,0,5.9c0,0.2,0.2,0.4,0.4,0.5
				c0.7,0.1,1.3,0.3,2,0.4c0.2,0,0.4-0.1,0.4-0.3C221.7,125,221.7,123,221.7,121z M221.7,130.9c0-0.2-0.2-0.4-0.4-0.5
				c-0.7-0.1-1.3-0.3-2-0.4c-0.2,0-0.4,0.1-0.4,0.3c0,2.1,0,4.1,0,6.2c0,0.2,0.2,0.4,0.4,0.5c0.7,0.1,1.3,0.3,2,0.4
				c0.2,0,0.4-0.1,0.4-0.3C221.7,135,221.7,132.9,221.7,130.9z"/>
		</g>
	</g>
	<g>
		<g>
			<path class="st3" d="M187.5,17.3C167,13,146,10.8,125,10.8c-21,0-42,2.2-62.5,6.5C59,18,56,21.8,56,25.3v27v126
				c0,3.8,3,8.6,6.4,10.3l55.9,28c1.7,0.9,4.2,1.3,6.7,1.3s5-0.5,6.7-1.3l55.9-28c3.4-1.7,6.4-6.5,6.4-10.3v-153
				C194,21.8,191,18,187.5,17.3z"/>
			<path class="st3" d="M131.3,220c-0.9,0.3-2,0.5-3,0.7C129.3,220.6,130.3,220.3,131.3,220z"/>
			<path class="st3" d="M121.8,220.7c-1.1-0.2-2.1-0.4-3-0.7C119.7,220.3,120.7,220.6,121.8,220.7z"/>
			<path class="st3" d="M69.7,12.8c7.8-1.4,15.7-2.5,23.6-3.4C85.4,10.3,77.5,11.4,69.7,12.8z"/>
			<path class="st3" d="M93.3,9.4c5.3-0.5,10.5-1,15.8-1.2C103.9,8.5,98.6,8.9,93.3,9.4z"/>
			<path class="st3" d="M125,7.8c5.3,0,10.6,0.1,15.9,0.4C135.6,7.9,130.3,7.8,125,7.8z"/>
			<path class="st3" d="M140.9,8.2c5.3,0.3,10.6,0.7,15.8,1.2C151.4,8.9,146.1,8.5,140.9,8.2z"/>
			<path class="st3" d="M109.1,8.2c5.3-0.3,10.6-0.4,15.9-0.4C119.7,7.8,114.4,7.9,109.1,8.2z"/>
			<path class="st3" d="M156.7,9.4c7.9,0.8,15.8,1.9,23.6,3.4C172.5,11.4,164.6,10.3,156.7,9.4z"/>
		</g>
		<g>
			<path class="st1" d="M188.1,14.3c-41.6-8.7-84.6-8.7-126.2,0c-4.9,1-8.9,6-8.9,11c0,6,0,12,0,18c0,3,0,6,0,9v11v115
				c0,5,3.6,10.8,8,13l55.9,28c2.2,1.1,5.1,1.7,8,1.7c2.9,0,5.8-0.6,8-1.7l55.9-28c4.4-2.2,8-8.1,8-13v-115v-11c0-3,0-6,0-9
				c0-6,0-12,0-18C197,20.4,193,15.4,188.1,14.3z M191,178.3c0,2.7-2.3,6.5-4.7,7.7l-55.9,28c-1.3,0.6-3.3,1-5.4,1
				c-2.1,0-4.1-0.4-5.4-1l-55.9-28c-2.4-1.2-4.7-5-4.7-7.7V62c43.5-9.5,88.5-9.5,132,0V178.3z"/>
			<g>
				<g>
					<g>
						<path class="st4" d="M82.1,88.7h20.8v9.7h-3.8v13.2c0,3-2.3,5.2-5.2,5.2h-23c-2.9,0-5.3-2.2-5.3-5.2V76.2
							c0-2.8,2.4-5.2,5.3-5.2h28.4v9.9H78c-0.3,0-0.7,0.3-0.7,0.7v24.6c0,0.4,0.3,0.7,0.7,0.7h9.5c0.5,0,0.7-0.3,0.7-0.7v-7.8h-6.2
							V88.7z"/>
						<path class="st4" d="M135.9,70c3.2,0,5.4,2.2,5.4,5.4v35.2c0,3.2-2.2,5.4-5.4,5.4h-23.6c-3.2,0-5.4-2.2-5.4-5.4V75.4
							c0-3.2,2.2-5.4,5.4-5.4H135.9z M129.4,80.7c0-0.4-0.3-0.7-0.7-0.7h-9.3c-0.3,0-0.6,0.3-0.6,0.7v24.7c0,0.3,0.3,0.6,0.6,0.6
							h9.3c0.4,0,0.7-0.3,0.7-0.6V80.7z"/>
						<path class="st4" d="M184.4,70l-13.7,45.9h-11.4L146,70h12.6l6.4,29.2l7.7-29.2H184.4z"/>
					</g>
					<g>
						<path class="st4" d="M99.3,154.8v11.9c0,3-2.4,5.2-5.4,5.2h-23c-2.9,0-5.2-2.2-5.2-5.2v-35.5c0-2.8,2.3-5.2,5.2-5.2h23
							c2.9,0,5.4,2.4,5.4,5.2V143H87.4v-6.4c0-0.4-0.3-0.7-0.6-0.7h-8.6c-0.4,0-0.7,0.3-0.7,0.7v24.7c0,0.4,0.3,0.7,0.7,0.7h8.6
							c0.3,0,0.6-0.3,0.6-0.7v-6.5H99.3z"/>
						<path class="st4" d="M135.9,126c3.2,0,5.4,2.2,5.4,5.4v35.2c0,3.2-2.2,5.4-5.4,5.4h-23.6c-3.2,0-5.4-2.2-5.4-5.4v-35.2
							c0-3.2,2.2-5.4,5.4-5.4H135.9z M129.4,136.7c0-0.4-0.3-0.7-0.7-0.7h-9.3c-0.3,0-0.6,0.3-0.6,0.7v24.7c0,0.3,0.3,0.6,0.6,0.6
							h9.3c0.4,0,0.7-0.3,0.7-0.6V136.7z"/>
						<path class="st4" d="M159.8,146.7v25.2h-10.9V126h10.9l13.7,25.3V126h10.9v45.9h-11.2L159.8,146.7z"/>
					</g>
				</g>
				<g>
					<path class="st0" d="M130.2,185.1c-0.7-0.4-2.8-1.6-3.9-2.7c-1.2-1.4-1.3-2.7-1.3-2.7s-0.1,1.3-1.3,2.7c-1,1.1-3.2,2.3-3.9,2.7
						c-3.3,1.8-5.6,5.4-5.6,9.5c0,6,4.8,10.8,10.8,10.8c6,0,10.8-4.8,10.8-10.8C135.8,190.5,133.6,186.9,130.2,185.1z"/>
				</g>
				<g>
					<path class="st0" d="M78.3,20.4c2.8-0.4,4.8,1.3,4.8,4.1c0,6.7,0,13.5,0,20.2c0,2.8-2,5.1-4.8,5.6c-4,0.6-8,1.3-11.9,2.1
						c0-10,0-19.9,0-29.9C70.3,21.7,74.3,21,78.3,20.4z M77.2,26.9c0-0.8-0.5-1.2-1.2-1c-1.2,0.2-2.4,0.4-3.6,0.6
						c0,6.6,0,13.1,0,19.7c1.2-0.2,2.4-0.4,3.6-0.6c0.8-0.1,1.2-0.7,1.2-1.4C77.2,38.4,77.2,32.6,77.2,26.9z"/>
					<path class="st0" d="M100.8,17.8c2.1-0.2,3.5,1.2,3.5,3.3c0,4.3,0,8.7,0,13c0,1.8-1.1,3.2-2.7,3.6c0.9,3.2,1.9,6.4,2.8,9.7
						c-2,0.1-3.9,0.3-5.9,0.5c-0.9-3.2-1.8-6.4-2.7-9.5c-0.8,0.1-1.5,0.1-2.3,0.2c0,3.3,0,6.5,0,9.8c-2,0.2-4,0.4-6,0.7
						c0-10,0-19.9,0-29.9C92,18.6,96.4,18.1,100.8,17.8z M98.4,23.5c0-0.2-0.2-0.4-0.4-0.4c-1.5,0.1-3,0.3-4.5,0.4
						c0,3.4,0,6.8,0,10.2c1.5-0.2,3-0.3,4.5-0.4c0.2,0,0.4-0.3,0.4-0.4C98.4,29.7,98.4,26.6,98.4,23.5z"/>
					<path class="st0" d="M114.9,17c0,8.2,0,16.3,0,24.5c0,0.2,0.2,0.4,0.3,0.4c1.3,0,2.7-0.1,4-0.1c0.1,0,0.4-0.2,0.4-0.4
						c0-8.2,0-16.3,0-24.5c2,0,4-0.1,6.1,0c0,8.8,0,17.6,0,26.3c0,2.1-1.5,3.5-3.6,3.6c-3.2,0-6.4,0.1-9.6,0.2
						c-2.1,0.1-3.6-1.3-3.6-3.4c0-8.8,0-17.6,0-26.3C110.9,17.1,112.9,17,114.9,17z"/>
					<path class="st0" d="M143.3,17.4c2.1,0.1,3.6,1.7,3.6,3.8c0,4.9,0,9.8,0,14.7c0,2.1-1.5,3.4-3.6,3.3c-2.4-0.1-4.7-0.3-7.1-0.3
						c0,2.7,0,5.4,0,8.1c-2-0.1-4-0.1-6.1-0.2c0-10,0-19.9,0-29.9C134.5,16.9,138.9,17.1,143.3,17.4z M140.5,34
						c0.2,0,0.4-0.2,0.4-0.4c0-3.6,0-7.3,0-10.9c0-0.2-0.2-0.5-0.4-0.5c-1.4-0.1-2.8-0.1-4.3-0.2c0,3.9,0,7.8,0,11.7
						C137.6,33.9,139.1,33.9,140.5,34z"/>
					<path class="st0" d="M168,49.7c-2-0.3-4-0.5-5.9-0.8c0-2.7,0-5.5,0-8.2c-1.6-0.2-3.2-0.4-4.7-0.5c0,2.7,0,5.5,0,8.2
						c-2-0.2-4-0.4-6-0.6c0-8.9,0-17.8,0-26.6c0-1.9,1.3-3.1,3.2-2.9c3.4,0.3,6.8,0.7,10.2,1.2c1.9,0.2,3.2,1.8,3.2,3.7
						C168,31.9,168,40.8,168,49.7z M162.1,35.7c0-3.7,0-7.3,0-11c0-0.4-0.4-0.8-0.8-0.8c-1.1-0.1-2.1-0.2-3.2-0.4
						c-0.4,0-0.8,0.2-0.8,0.6c0,3.7,0,7.3,0,11C158.9,35.4,160.5,35.5,162.1,35.7z"/>
					<path class="st0" d="M172.4,20.5c2,0.3,3.9,0.6,5.9,1c0,8.2,0,16.5,0,24.7c2.4,0.4,4.7,0.9,7.1,1.3c0,1.7,0,3.5,0,5.2
						c-4.3-0.9-8.7-1.6-13-2.3C172.4,40.4,172.4,30.4,172.4,20.5z"/>
				</g>
			</g>
		</g>
	</g>
</g>
</svg>
