<?xml version="1.0" encoding="utf-8"?>
<!-- Generator: Adobe Illustrator 22.0.1, SVG Export Plug-In . SVG Version: 6.00 Build 0)  -->
<svg version="1.1" id="Version_5-No_Banner-Rev" xmlns="http://www.w3.org/2000/svg" xmlns:xlink="http://www.w3.org/1999/xlink"
	 x="0px" y="0px" viewBox="0 0 161.3 224.3" style="enable-background:new 0 0 161.3 224.3;" xml:space="preserve" height="58" width="42">
<metadata><?xpacket begin="﻿" id="W5M0MpCehiHzreSzNTczkc9d"?>
<x:xmpmeta xmlns:x="adobe:ns:meta/" x:xmptk="Adobe XMP Core 5.6-c143 79.161210, 2017/08/11-10:28:36        ">
   <rdf:RDF xmlns:rdf="http://www.w3.org/1999/02/22-rdf-syntax-ns#">
      <rdf:Description rdf:about=""/>
   </rdf:RDF>
</x:xmpmeta>





















<?xpacket end="w"?></metadata>
<style type="text/css">
	.st0{fill:#FFFFFF;}
</style>
<g>
	<path class="st0" d="M37.1,98.5h6.2v7.8c0,0.4-0.3,0.7-0.7,0.7H33c-0.3,0-0.7-0.3-0.7-0.7V81.6c0-0.4,0.3-0.7,0.7-0.7h21.3V71H25.9
		c-2.9,0-5.3,2.4-5.3,5.2v35.5c0,3,2.4,5.2,5.3,5.2h23c2.9,0,5.2-2.2,5.2-5.2V98.5h3.8v-9.7H37.1V98.5z"/>
	<path class="st0" d="M61.9,75.4v35.2c0,3.2,2.2,5.4,5.4,5.4h23.6c3.2,0,5.4-2.2,5.4-5.4V75.4c0-3.2-2.2-5.4-5.4-5.4H67.3
		C64.1,70,61.9,72.2,61.9,75.4z M73.8,80.7c0-0.4,0.3-0.7,0.6-0.7h9.3c0.4,0,0.7,0.3,0.7,0.7v24.7c0,0.3-0.3,0.6-0.7,0.6h-9.3
		c-0.3,0-0.6-0.3-0.6-0.6V80.7z"/>
	<polygon class="st0" points="125.7,115.9 139.4,70 127.7,70 120,99.2 113.6,70 101,70 114.3,115.9 	"/>
	<path class="st0" d="M48.9,126h-23c-2.9,0-5.2,2.4-5.2,5.2v35.5c0,3,2.3,5.2,5.2,5.2h23c2.9,0,5.4-2.2,5.4-5.2v-11.9H42.4v6.5
		c0,0.4-0.3,0.7-0.6,0.7h-8.6c-0.4,0-0.7-0.3-0.7-0.7v-24.7c0-0.4,0.3-0.7,0.7-0.7h8.6c0.3,0,0.6,0.3,0.6,0.7v6.4h11.8v-11.8
		C54.3,128.4,51.8,126,48.9,126z"/>
	<path class="st0" d="M90.9,126H67.3c-3.2,0-5.4,2.2-5.4,5.4v35.2c0,3.2,2.2,5.4,5.4,5.4h23.6c3.2,0,5.4-2.2,5.4-5.4v-35.2
		C96.3,128.2,94.1,126,90.9,126z M84.4,161.4c0,0.3-0.3,0.6-0.7,0.6h-9.3c-0.3,0-0.6-0.3-0.6-0.6v-24.7c0-0.4,0.3-0.7,0.6-0.7h9.3
		c0.4,0,0.7,0.3,0.7,0.7V161.4z"/>
	<polygon class="st0" points="128.5,151.3 114.8,126 103.9,126 103.9,171.9 114.8,171.9 114.8,146.7 128.2,171.9 139.4,171.9
		139.4,126 128.5,126 	"/>
	<path class="st0" d="M85.2,185.1c-0.7-0.4-2.8-1.6-3.9-2.7c-1.2-1.4-1.3-2.7-1.3-2.7s-0.1,1.3-1.4,2.7c-1,1.1-3.2,2.3-3.9,2.7
		c-3.3,1.8-5.6,5.4-5.6,9.5c0,6,4.8,10.8,10.8,10.8s10.8-4.8,10.8-10.8C90.8,190.5,88.6,186.9,85.2,185.1z"/>
	<path class="st0" d="M117.1,24.8c0-0.4-0.4-0.8-0.8-0.8c-1.1-0.1-2.1-0.2-3.2-0.4c-0.4,0-0.8,0.2-0.8,0.6c0,3.7,0,7.3,0,11
		c1.6,0.2,3.2,0.3,4.7,0.5C117.1,32.1,117.1,28.4,117.1,24.8z"/>
	<path class="st0" d="M95.8,33.6c0-3.6,0-7.3,0-10.9c0-0.2-0.2-0.5-0.4-0.5c-1.4-0.1-2.8-0.1-4.3-0.2c0,3.9,0,7.8,0,11.7
		c1.4,0.1,2.9,0.1,4.3,0.2C95.7,34,95.8,33.8,95.8,33.6z"/>
	<path class="st0" d="M53.4,32.8c0-3.1,0-6.2,0-9.3c0-0.2-0.2-0.4-0.4-0.4c-1.5,0.1-3,0.3-4.5,0.4c0,3.4,0,6.8,0,10.2
		c1.5-0.2,3-0.3,4.5-0.4C53.3,33.2,53.4,33,53.4,32.8z"/>
	<path class="st0" d="M30.9,25.8c-1.2,0.2-2.4,0.4-3.6,0.6c0,6.6,0,13.1,0,19.7c1.2-0.2,2.4-0.4,3.6-0.6c0.8-0.1,1.2-0.7,1.2-1.4
		c0-5.7,0-11.5,0-17.2C32.2,26.1,31.7,25.7,30.9,25.8z"/>
	<path class="st0" d="M143.1,14.3c-41.6-8.7-84.6-8.7-126.2,0c-4.9,1-8.9,6-8.9,11c0,6,0,12,0,18c0,3,0,6,0,9v11v115
		c0,9,3.6,10.8,8,13l55.9,28c2.2,1.1,5.1,1.7,8,1.7c2.9,0,5.8-0.6,8-1.7l55.9-28c4.4-2.2,8-4,8-13v-115v-11c0-3,0-6,0-9
		c0-6,0-12,0-18C152,20.4,148,15.4,143.1,14.3z M127.4,20.5c2,0.3,3.9,0.6,5.9,1c0,8.2,0,16.5,0,24.7c2.4,0.4,4.7,0.9,7.1,1.3
		c0,1.7,0,3.5,0,5.2c-4.3-0.9-8.7-1.6-13-2.3C127.4,40.4,127.4,30.4,127.4,20.5z M106.4,21.2c0-1.9,1.3-3.1,3.2-2.9
		c3.4,0.3,6.8,0.7,10.2,1.2c1.9,0.2,3.2,1.8,3.2,3.7c0,8.9,0,17.8,0,26.6c-2-0.3-4-0.5-5.9-0.8c0-2.7,0-5.5,0-8.2
		c-1.6-0.2-3.2-0.4-4.7-0.5c0,2.7,0,5.5,0,8.2c-2-0.2-4-0.4-6-0.6C106.4,38.9,106.4,30.1,106.4,21.2z M85.1,16.9
		c4.4,0.1,8.8,0.2,13.1,0.5c2.1,0.1,3.6,1.7,3.6,3.8c0,4.9,0,9.8,0,14.7c0,2.1-1.5,3.4-3.6,3.3c-2.4-0.1-4.7-0.3-7.1-0.3
		c0,2.7,0,5.4,0,8.1c-2-0.1-4-0.1-6.1-0.2C85.1,36.8,85.1,26.8,85.1,16.9z M63.9,17.2c2-0.1,4-0.2,6-0.3c0,8.2,0,16.3,0,24.5
		c0,0.2,0.2,0.4,0.3,0.4c1.3,0,2.7-0.1,4-0.1c0.1,0,0.4-0.2,0.4-0.4c0-8.2,0-16.3,0-24.5c2,0,4-0.1,6.1,0c0,8.8,0,17.6,0,26.3
		c0,2.1-1.5,3.5-3.6,3.6c-3.2,0-6.4,0.1-9.6,0.2c-2.1,0.1-3.6-1.3-3.6-3.4C63.9,34.8,63.9,26,63.9,17.2z M42.6,19.1
		c4.4-0.5,8.8-1,13.3-1.3c2.1-0.2,3.5,1.2,3.5,3.3c0,4.3,0,8.7,0,13c0,1.8-1.1,3.2-2.7,3.6c0.9,3.2,1.9,6.4,2.8,9.7
		c-2,0.1-3.9,0.3-5.9,0.5c-0.9-3.2-1.8-6.4-2.7-9.5c-0.8,0.1-1.5,0.1-2.3,0.2c0,3.3,0,6.5,0,9.8c-2,0.2-4,0.4-6,0.7
		C42.6,39,42.6,29.1,42.6,19.1z M21.4,22.4c4-0.8,8-1.5,11.9-2.1c2.8-0.4,4.8,1.3,4.8,4.1c0,6.7,0,13.5,0,20.2c0,2.8-2,5.1-4.8,5.6
		c-4,0.6-8,1.3-11.9,2.1C21.4,42.4,21.4,32.4,21.4,22.4z M146,178.3c0,5.3-0.9,5.7-4.7,7.7l-55.9,28c-1.3,0.6-3.3,1-5.4,1
		c-2.1,0-4.1-0.4-5.4-1l-55.9-28c-3.8-1.9-4.7-2.4-4.7-7.7V62c43.5-9.5,88.5-9.5,132,0V178.3z"/>
</g>
</svg>
