<?xml version="1.0" encoding="utf-8"?>
<!-- Generator: Adobe Illustrator 22.0.1, SVG Export Plug-In . SVG Version: 6.00 Build 0)  -->
<svg version="1.1" id="Drupal-Tile_Motif_02d-Complex-Final-Black"
	 xmlns="http://www.w3.org/2000/svg" xmlns:xlink="http://www.w3.org/1999/xlink" x="0px" y="0px" viewBox="0 0 72 72"
	 style="enable-background:new 0 0 72 72;" xml:space="preserve">
<metadata><?xpacket begin="﻿" id="W5M0MpCehiHzreSzNTczkc9d"?>
<x:xmpmeta xmlns:x="adobe:ns:meta/" x:xmptk="Adobe XMP Core 5.6-c143 79.161210, 2017/08/11-10:28:36        ">
   <rdf:RDF xmlns:rdf="http://www.w3.org/1999/02/22-rdf-syntax-ns#">
      <rdf:Description rdf:about=""/>
   </rdf:RDF>
</x:xmpmeta>
                                                                                                    
                                                                                                    
                                                                                                    
                                                                                                    
                                                                                                    
                                                                                                    
                                                                                                    
                                                                                                    
                                                                                                    
                                                                                                    
                                                                                                    
                                                                                                    
                                                                                                    
                                                                                                    
                                                                                                    
                                                                                                    
                                                                                                    
                                                                                                    
                                                                                                    
                                                                                                    
                           
<?xpacket end="w"?></metadata>
<g>
	<g>
		<path d="M16,0c-0.7,0.5-1.5,1-2.2,1.6C13.4,1,13,0.5,12.5,0H8.4c1.3,0.9,2.5,2.1,3.4,3.3c-0.7,0.6-1.3,1.2-1.9,1.9
			c-1-1.5-2.4-2.8-4.1-3.7L5.6,1.4C4.8,1,4,0.5,3.2,0H0v10.5c0.2,0.2,0.4,0.4,0.6,0.6c3.5,3.8,9.4,7.3,14.1,9.9l0.2,0.1
			c4.2,2.3,7.7,5.6,10.4,9.4c-0.8,0.5-1.5,1-2.3,1.4c-2.4-3.4-5.6-6.4-9.4-8.5l-0.2-0.1C9,21,3.8,17.9,0,14.3v3.5
			c3.8,3.1,8.3,5.8,12,7.8l0.2,0.1c3.4,1.9,6.2,4.5,8.4,7.5c-0.9,0.5-1.6,0.9-2.1,1.2c-0.1,0-0.2,0.1-0.3,0.1
			c-1.9-2.6-4.4-4.9-7.3-6.5L10.7,28C7.5,26.2,3.5,23.9,0,21.3v3.3c3.3,2.3,6.7,4.3,9.4,5.8l0.2,0.1c2.5,1.4,4.7,3.3,6.4,5.6
			c-0.7,0.5-1.5,1-2.2,1.6c-1.4-1.9-3.3-3.6-5.5-4.8l-0.2-0.1c-2.4-1.3-5.3-3-8.2-4.9V31c2.5,1.6,5,3,6.9,4l0.2,0.1
			c1.9,1.1,3.5,2.5,4.7,4.2c-0.7,0.6-1.3,1.2-1.9,1.9c-1-1.5-2.4-2.8-4.1-3.7l-0.2-0.1c-1.6-0.9-3.5-2-5.6-3.2v12.3
			c0.2,0.2,0.4,0.4,0.6,0.6c3.5,3.8,9.4,7.3,14.1,9.9l0.2,0.1c4.2,2.3,7.7,5.6,10.4,9.4c-0.8,0.5-1.5,1-2.3,1.4
			c-2.4-3.4-5.6-6.4-9.4-8.5l-0.2-0.1C9,57,3.8,53.9,0,50.3v3.5c3.8,3.1,8.3,5.8,12,7.8l0.2,0.1c3.4,1.9,6.2,4.5,8.4,7.5
			c-0.9,0.5-1.6,0.9-2.1,1.2c-0.1,0-0.2,0.1-0.3,0.1c-1.9-2.6-4.4-4.9-7.3-6.5L10.7,64C7.5,62.2,3.5,59.9,0,57.3v3.3
			c3.3,2.3,6.7,4.3,9.4,5.8l0.2,0.1c2.5,1.4,4.6,3.3,6.3,5.5h10.6c3.3-2.1,6.6-4.4,8.9-6.9c0.2-0.2,0.4-0.4,0.6-0.6
			c0.2,0.2,0.4,0.4,0.6,0.6c2.3,2.5,5.6,4.9,8.9,6.9H56c1.7-2.2,3.8-4.1,6.3-5.5l0.2-0.1c2.7-1.5,6.1-3.5,9.4-5.8c0,0,0,0,0,0l0-3.3
			c0,0,0,0,0,0c-3.5,2.7-7.5,5-10.7,6.8L61,64.2c-2.9,1.6-5.4,3.9-7.3,6.5c-0.1,0-0.2-0.1-0.3-0.1c-0.5-0.3-1.2-0.7-2.1-1.2
			c2.2-3,5-5.6,8.4-7.5l0.2-0.1c3.7-2.1,8.3-4.7,12-7.8l0,0v-3.5l0,0c-3.8,3.5-9,6.7-13.3,9l-0.2,0.1c-3.8,2.1-7,5-9.4,8.5
			c-0.7-0.4-1.5-0.9-2.3-1.4c2.6-3.8,6.2-7.1,10.4-9.4l0.2-0.1c4.7-2.6,10.6-6.1,14.1-9.9c0.2-0.2,0.4-0.4,0.6-0.6c0,0,0,0,0,0
			l0-12.3l0,0c-2.1,1.3-4,2.4-5.6,3.2l-0.2,0.1c-1.7,0.9-3,2.2-4.1,3.7c-0.6-0.7-1.3-1.3-1.9-1.9c1.2-1.7,2.8-3.1,4.7-4.2l0.2-0.1
			C67,34,69.5,32.6,72,31c0,0,0,0,0,0l0-3.2c0,0,0,0,0,0c-2.9,1.9-5.8,3.6-8.2,4.9l-0.2,0.1c-2.2,1.2-4,2.9-5.5,4.8
			c-0.7-0.5-1.4-1.1-2.2-1.6c1.7-2.2,3.8-4.2,6.3-5.6l0.2-0.1c2.7-1.5,6.1-3.5,9.4-5.8c0,0,0,0,0,0l0-3.3c0,0,0,0,0,0
			c-3.5,2.7-7.5,5-10.7,6.8L61,28.2c-2.9,1.6-5.4,3.9-7.3,6.5c-0.1,0-0.2-0.1-0.3-0.1c-0.5-0.3-1.2-0.7-2.1-1.2c2.2-3,5-5.6,8.4-7.5
			l0.2-0.1c3.7-2.1,8.3-4.7,12-7.8l0,0v-3.5l0,0c-3.8,3.5-9,6.7-13.3,9l-0.2,0.1c-3.8,2.1-7,5-9.4,8.5c-0.7-0.4-1.5-0.9-2.3-1.4
			c2.6-3.8,6.2-7.1,10.4-9.4l0.2-0.1c4.7-2.6,10.6-6.1,14.1-9.9c0.2-0.2,0.4-0.4,0.6-0.6c0,0,0,0,0,0L72,0h-3.2
			c-0.9,0.5-1.7,1-2.4,1.4l-0.2,0.1c-1.7,0.9-3,2.2-4.1,3.7c-0.6-0.7-1.3-1.3-1.9-1.9c0.9-1.3,2.1-2.4,3.4-3.3h-4.1
			c-0.5,0.5-0.9,1-1.4,1.6C57.4,1.1,56.7,0.5,56,0c0,0,0,0,0,0H45.4c1.8,1.1,3.6,2.1,5.2,3l0.2,0.1c4.2,2.3,7.7,5.6,10.4,9.4
			c-0.8,0.5-1.5,1-2.3,1.4c-2.4-3.4-5.6-6.4-9.4-8.5l-0.2-0.1C46.6,3.8,43.5,2,40.6,0h-4.4c3.7,3,8.2,5.7,11.9,7.7l0.2,0.1
			c3.4,1.9,6.2,4.5,8.4,7.5c-0.9,0.5-1.6,0.9-2.1,1.2c-0.1,0-0.2,0.1-0.3,0.1c-1.9-2.6-4.4-4.9-7.3-6.5L46.7,10
			C43.5,8.2,39.5,5.9,36,3.3c-3.5,2.7-7.5,5-10.7,6.8L25,10.2c-2.9,1.6-5.4,3.9-7.3,6.5c-0.1,0-0.2-0.1-0.3-0.1
			c-0.5-0.3-1.2-0.7-2.1-1.2c2.2-3,5-5.6,8.4-7.5L24,7.7c3.7-2,8.1-4.7,11.9-7.7h-4.4c-2.9,2-6,3.8-8.7,5.4l-0.2,0.1
			c-3.8,2.1-7,5-9.4,8.5c-0.7-0.4-1.5-0.9-2.3-1.4c2.6-3.8,6.2-7.1,10.4-9.4L21.4,3c1.6-0.9,3.4-1.9,5.2-3L16,0C16,0,16,0,16,0z
			 M6.5,9.4c-0.7-0.6-1.4-1.3-2-1.9c-1.9-2.1-3-4.1-3.6-5.7c1.3,0.8,2.4,1.4,3.4,1.9l0.2,0.1C6,4.7,7.2,5.9,8.1,7.3
			C7.5,8,7,8.7,6.5,9.4z M6.5,45.4c-0.7-0.6-1.4-1.3-2-1.9c-1.9-2.1-3-4.1-3.6-5.7c1.3,0.8,2.4,1.4,3.4,1.9l0.2,0.1
			c1.5,0.8,2.7,2.1,3.6,3.5C7.5,44,7,44.7,6.5,45.4z M67.5,39.8l0.2-0.1c1-0.5,2.1-1.2,3.4-1.9c-0.6,1.6-1.7,3.7-3.6,5.7
			c-0.6,0.6-1.3,1.3-2,1.9c-0.5-0.7-1-1.4-1.6-2.1C64.8,41.9,66,40.7,67.5,39.8z M67.5,3.8l0.2-0.1c1-0.5,2.1-1.2,3.4-1.9
			c-0.6,1.6-1.7,3.7-3.6,5.7c-0.6,0.6-1.3,1.3-2,1.9c-0.5-0.7-1-1.4-1.6-2.1C64.8,5.9,66,4.7,67.5,3.8z M31.5,61.5
			c-0.6,0.6-1.3,1.3-2,1.9c-0.5-0.7-1-1.4-1.6-2.1c0.8-1.4,2-2.7,3.5-3.5l0.2-0.1c1-0.5,2.1-1.2,3.4-1.9
			C34.5,57.4,33.4,59.4,31.5,61.5z M42.5,63.4c-0.7-0.6-1.4-1.3-2-1.9c-1.9-2.1-3-4.1-3.6-5.7c1.3,0.8,2.4,1.4,3.4,1.9l0.2,0.1
			c1.5,0.8,2.7,2.1,3.6,3.5C43.5,62,43,62.7,42.5,63.4z M45.9,59.2c-1-1.5-2.4-2.8-4.1-3.7l-0.2-0.1c-1.6-0.9-3.5-2-5.6-3.2
			c-2.1,1.3-4,2.4-5.6,3.2l-0.2,0.1c-1.7,0.9-3,2.2-4.1,3.7c-0.6-0.7-1.3-1.3-1.9-1.9c1.2-1.7,2.8-3.1,4.7-4.2l0.2-0.1
			C31,52,33.5,50.6,36,49c2.5,1.6,5,3,6.9,4l0.2,0.1c1.9,1.1,3.5,2.5,4.7,4.2C47.2,57.9,46.5,58.6,45.9,59.2z M49.9,55.6
			c-1.4-1.9-3.3-3.6-5.5-4.8l-0.2-0.1c-2.4-1.3-5.3-3-8.2-4.9c-2.9,1.9-5.8,3.6-8.2,4.9l-0.2,0.1c-2.2,1.2-4,2.9-5.5,4.8
			c-0.7-0.5-1.4-1.1-2.2-1.6c1.7-2.2,3.8-4.2,6.3-5.6l0.2-0.1c2.7-1.5,6.1-3.5,9.4-5.8c3.3,2.3,6.7,4.3,9.4,5.8l0.2,0.1
			c2.5,1.4,4.7,3.3,6.4,5.6C51.3,54.5,50.6,55.1,49.9,55.6z M54.6,52.5c-0.1,0-0.2,0.1-0.3,0.1c-1.9-2.6-4.4-4.9-7.3-6.5L46.7,46
			c-3.3-1.8-7.2-4.1-10.7-6.8c-3.5,2.7-7.5,5-10.7,6.8L25,46.2c-2.9,1.6-5.4,3.9-7.3,6.5c-0.1,0-0.2-0.1-0.3-0.1
			c-0.5-0.3-1.2-0.7-2.1-1.2c2.2-3,5-5.6,8.4-7.5l0.2-0.1c3.7-2.1,8.3-4.7,12-7.8c3.8,3.1,8.3,5.8,12,7.8l0.2,0.1
			c3.4,1.9,6.2,4.5,8.4,7.5C55.8,51.8,55.1,52.2,54.6,52.5z M50.6,39l0.2,0.1c4.2,2.3,7.7,5.6,10.4,9.4c-0.8,0.5-1.5,1-2.3,1.4
			c-2.4-3.4-5.6-6.4-9.4-8.5l-0.2-0.1c-4.3-2.4-9.6-5.5-13.3-9c-3.8,3.5-9,6.7-13.3,9l-0.2,0.1c-3.8,2.1-7,5-9.4,8.5
			c-0.7-0.4-1.5-0.9-2.3-1.4c2.6-3.8,6.2-7.1,10.4-9.4l0.2-0.1c4.7-2.6,10.6-6.1,14.1-9.9c0.2-0.2,0.4-0.4,0.6-0.6
			c0.2,0.2,0.4,0.4,0.6,0.6C40.1,32.9,45.9,36.4,50.6,39z M27.9,25.3c0.8-1.4,2-2.7,3.5-3.5l0.2-0.1c1-0.5,2.1-1.2,3.4-1.9
			c-0.6,1.6-1.7,3.7-3.6,5.7c-0.6,0.6-1.3,1.3-2,1.9C29,26.7,28.5,26,27.9,25.3z M36.9,19.8c1.3,0.8,2.4,1.4,3.4,1.9l0.2,0.1
			c1.5,0.8,2.7,2.1,3.6,3.5c-0.5,0.7-1.1,1.4-1.6,2.1c-0.7-0.6-1.4-1.3-2-1.9C38.6,23.4,37.5,21.4,36.9,19.8z M45.9,23.2
			c-1-1.5-2.4-2.8-4.1-3.7l-0.2-0.1c-1.6-0.9-3.5-2-5.6-3.2c-2.1,1.3-4,2.4-5.6,3.2l-0.2,0.1c-1.7,0.9-3,2.2-4.1,3.7
			c-0.6-0.7-1.3-1.3-1.9-1.9c1.2-1.7,2.8-3.1,4.7-4.2l0.2-0.1C31,16,33.5,14.6,36,13c2.5,1.6,5,3,6.9,4l0.2,0.1
			c1.9,1.1,3.5,2.5,4.7,4.2C47.2,21.9,46.5,22.6,45.9,23.2z M26.3,12.5l0.2-0.1c2.7-1.5,6.1-3.5,9.4-5.8c3.3,2.3,6.7,4.3,9.4,5.8
			l0.2,0.1c2.5,1.4,4.7,3.3,6.4,5.6c-0.7,0.5-1.5,1-2.2,1.6c-1.4-1.9-3.3-3.6-5.5-4.8l-0.2-0.1c-2.4-1.3-5.3-3-8.2-4.9
			c-2.9,1.9-5.8,3.6-8.2,4.9l-0.2,0.1c-2.2,1.2-4,2.9-5.5,4.8c-0.7-0.5-1.4-1.1-2.2-1.6C21.6,15.8,23.8,13.9,26.3,12.5z"/>
	</g>
	<g>
		<path d="M31.4,72h4.4c0.1,0,0.1-0.1,0.2-0.1c0.1,0,0.1,0.1,0.2,0.1h4.4c-1.6-1.2-3.2-2.4-4.6-3.7C34.6,69.6,33.1,70.8,31.4,72z"/>
	</g>
	<g>
		<path d="M0,72h3.2c-1-0.6-2.1-1.2-3.2-1.9V72z"/>
	</g>
	<g>
		<path d="M8.4,68.8l-0.2-0.1c-2.4-1.3-5.3-3-8.2-4.9V67c2.5,1.6,5,3,6.9,4l0.2,0.1C7.6,71.4,8,71.7,8.4,72h4.1
			C11.3,70.8,9.9,69.7,8.4,68.8z"/>
	</g>
	<g>
		<path d="M68.8,72H72v-1.9l0,0C70.9,70.8,69.8,71.4,68.8,72z"/>
	</g>
	<g>
		<path d="M63.8,68.7l-0.2,0.1c-1.5,0.9-2.9,1.9-4.1,3.2h4.1c0.4-0.3,0.9-0.6,1.3-0.8l0.2-0.1C67,70,69.5,68.6,72,67c0,0,0,0,0,0
			l0-3.2c0,0,0,0,0,0C69.1,65.7,66.2,67.4,63.8,68.7z"/>
	</g>
</g>
</svg>
