<?xml version="1.0" encoding="utf-8"?>
<!-- Generator: Adobe Illustrator 23.0.1, SVG Export Plug-In . SVG Version: 6.00 Build 0)  -->
<svg version="1.1" id="Wordmark-Rev" xmlns="http://www.w3.org/2000/svg" xmlns:xlink="http://www.w3.org/1999/xlink" x="0px"
	 y="0px" viewBox="0 0 234 270" style="enable-background:new 0 0 234 270;" xml:space="preserve">
<style type="text/css">
	.st20{fill:#FFFFFF;}
</style>
<path class="st20" d="M169.32,58.5c-7.08-3.93-28.38-15.54-38.82-26.99c-12.41-13.61-13.5-27-13.5-27s-1.09,13.39-13.5,27
	c-10.44,11.46-31.74,23.07-38.82,27C31.47,76.92,9,112.34,9,153c0,59.65,48.35,108,108,108c59.65,0,108-48.35,108-108
	C225,112.34,202.53,76.92,169.32,58.5z M69.82,72H117c27.2,0,49.69,20.11,53.44,46.27c-4.12-1.53-8.43-2.57-12.86-3.1
	C152.79,97.24,136.41,84,117,84H93.82v30.83c-4.13,0.22-8.15,0.9-12,1.97V84h-12V72z M96.82,225c-29.82,0-54-24.18-54-54
	s24.18-54,54-54c18.12,0,34.14,8.93,43.93,22.62l-9.78,6.98c-7.63-10.65-20.09-17.6-34.16-17.6c-23.16,0-42,18.84-42,42
	s18.84,42,42,42c4.9,0,9.61-0.85,13.99-2.4c3.19,3.22,6.77,6.05,10.68,8.43C114.08,222.83,105.71,225,96.82,225z M117,168
	c21.12,0,38.64-15.67,41.56-36c4.03,0.79,7.88,2.22,11.46,4.2C165.25,161.15,143.33,180,117,180H69.82v-12h12v-33.8
	c3.75-1.53,7.78-2.51,12-2.82V168H117z M97.07,165.75c1.18-12.2,6.42-23.21,14.36-31.67c3.85,1.53,7.46,3.66,10.67,6.32
	c-6.96,6.54-11.7,15.41-12.95,25.35H97.07z M136.57,223.09c-19.36-5.28-34.38-21.06-38.57-40.84h12.36
	c3.65,13.11,13.52,23.66,26.22,28.26V223.09z M150.82,229.5l-12,4.5v-29.08c-0.84,1.04-1.73,2.03-2.64,3.01
	c-3.9-1.55-7.49-3.69-10.65-6.31c3.81-3.58,6.96-7.85,9.24-12.62h19.06v12h-3V229.5z M153.07,224.94v-12
	c10.69-0.57,20.33-5.14,27.43-12.25l8.5,8.5C179.72,218.46,167.08,224.37,153.07,224.94z M180.5,141.32
	C172.9,133.71,162.4,129,150.82,129c-4.94,0-9.67,0.87-14.07,2.44c-3.22-3.25-6.81-6.08-10.68-8.43c7.42-3.83,15.83-6,24.75-6
	c14.91,0,28.41,6.04,38.18,15.82L180.5,141.32z"/>
</svg>
