<?xml version="1.0" encoding="utf-8"?>
<!-- Generator: Adobe Illustrator 23.0.1, SVG Export Plug-In . SVG Version: 6.00 Build 0)  -->
<svg version="1.1" id="_x35_0s_Pattern_3-Monochrome-B"
	 xmlns="http://www.w3.org/2000/svg" xmlns:xlink="http://www.w3.org/1999/xlink" x="0px" y="0px" viewBox="0 0 288 288"
	 style="enable-background:new 0 0 288 288;" xml:space="preserve">
<style type="text/css">
	.st0{fill:none;}
</style>
<g>
	<rect class="st0" width="288" height="288"/>
	<g>
		<g>
			<path d="M244.9,149.87c-1.97,0.83-2.9,3.1-2.07,5.07c0.83,1.97,3.1,2.9,5.07,2.07c1.97-0.83,2.9-3.1,2.07-5.07
				C249.14,149.97,246.87,149.05,244.9,149.87z"/>
			<ellipse transform="matrix(0.9622 -0.2724 0.2724 0.9622 6.747 67.4808)" cx="246.4" cy="9.44" rx="3.87" ry="3.87"/>
			<path d="M100.9,221.87c-1.97,0.83-2.9,3.1-2.07,5.07c0.83,1.97,3.1,2.9,5.07,2.07c1.97-0.83,2.9-3.1,2.07-5.07
				C105.14,221.97,102.87,221.05,100.9,221.87z"/>
			<path d="M100.9,77.87c-1.97,0.83-2.9,3.1-2.07,5.07c0.83,1.97,3.1,2.9,5.07,2.07c1.97-0.83,2.9-3.1,2.07-5.07
				C105.14,77.97,102.87,77.05,100.9,77.87z"/>
		</g>
		<g>
			<path d="M217.18,236c-2.46,1.03-3.62,3.87-2.58,6.33c1.03,2.46,3.87,3.62,6.33,2.58c2.46-1.03,3.62-3.87,2.58-6.33
				C222.47,236.13,219.64,234.97,217.18,236z"/>
			<path d="M268.6,225.83c-11.36,4.77-31.01-5.53-31.01-5.53l17.71,44.91c0,0,7.99-27.89,20.36-31.06
				c3.78-0.97,8.12-0.45,12.34,0.72v-33.87C285.35,206.82,277.72,221.99,268.6,225.83z"/>
			<path d="M217.18,92c-2.46,1.03-3.62,3.87-2.58,6.33c1.03,2.46,3.87,3.62,6.33,2.58c2.46-1.03,3.62-3.87,2.58-6.33
				C222.47,92.13,219.64,90.97,217.18,92z"/>
			<path d="M268.6,81.83c-11.36,4.77-31.01-5.53-31.01-5.53l17.71,44.91c0,0,7.99-27.89,20.36-31.06c3.78-0.97,8.12-0.45,12.34,0.72
				V57.01C285.35,62.82,277.72,77.99,268.6,81.83z"/>
			<path d="M135.43,288h16.31L145,270.72C145,270.72,141.2,280.1,135.43,288z"/>
			<path d="M73.18,164c-2.46,1.03-3.62,3.87-2.58,6.33c1.03,2.46,3.87,3.62,6.33,2.58c2.46-1.03,3.62-3.87,2.58-6.33
				C78.47,164.13,75.64,162.97,73.18,164z"/>
			<path d="M124.6,153.83c-11.36,4.77-31.01-5.53-31.01-5.53l17.71,44.91c0,0,7.99-27.89,20.36-31.06
				c12.37-3.18,30.89,9.55,30.89,9.55L145,126.72C145,126.72,135.96,149.06,124.6,153.83z"/>
			<path d="M73.18,20c-2.46,1.03-3.62,3.87-2.58,6.33c1.03,2.46,3.87,3.62,6.33,2.58c2.46-1.03,3.62-3.87,2.58-6.33
				C78.47,20.13,75.64,18.97,73.18,20z"/>
			<path d="M135.43,0c-3.13,4.29-6.84,8.15-10.84,9.83C113.23,14.6,93.59,4.3,93.59,4.3l17.71,44.91c0,0,7.99-27.89,20.36-31.06
				c12.37-3.18,30.89,9.55,30.89,9.55L151.74,0H135.43z"/>
			<path d="M0,201.01v33.87c9.61,2.68,18.54,8.82,18.54,8.82L1,198.72C1,198.72,0.65,199.59,0,201.01z"/>
			<path d="M0,57.01v33.87c9.61,2.68,18.54,8.82,18.54,8.82L1,54.72C1,54.72,0.65,55.59,0,57.01z"/>
		</g>
		<path d="M225.41,193.51c-9.03,3.79-25.2-9.49-25.2-9.49l13.45,37.74c0,0,3.58-16.85,13.73-21.11c10.15-4.26,23.49,7.85,23.49,7.85
			l-15.45-41.04C235.43,167.46,232.18,190.66,225.41,193.51z"/>
		<path d="M225.41,49.51c-9.03,3.79-25.2-9.49-25.2-9.49l13.45,37.74c0,0,3.58-16.85,13.73-21.11c10.15-4.26,23.49,7.85,23.49,7.85
			l-15.45-41.04C235.43,23.46,232.18,46.66,225.41,49.51z"/>
		<path d="M81.41,265.51c-9.03,3.79-25.2-9.49-25.2-9.49L67.6,288h3.8c1.96-5.3,5.72-12.72,11.99-15.35
			c10.15-4.26,23.49,7.85,23.49,7.85l-15.45-41.04C91.43,239.46,88.18,262.66,81.41,265.51z"/>
		<path d="M81.41,121.51c-9.03,3.79-25.2-9.49-25.2-9.49l13.45,37.74c0,0,3.58-16.85,13.73-21.11c10.15-4.26,23.49,7.85,23.49,7.85
			L91.43,95.46C91.43,95.46,88.18,118.66,81.41,121.51z"/>
		<path d="M71.4,0h-3.8l2.05,5.76C69.65,5.76,70.18,3.29,71.4,0z"/>
		<g>
			<path d="M187.94,154.02c-4.69,0-8.5,3.81-8.5,8.5s3.81,8.5,8.5,8.5s8.5-3.81,8.5-8.5S192.63,154.02,187.94,154.02z
				 M187.94,167.52c-2.75,0-4.99-2.24-4.99-4.99s2.24-4.99,4.99-4.99s4.99,2.24,4.99,4.99S190.69,167.52,187.94,167.52z"/>
			<path d="M187.94,27.03c4.69,0,8.5-3.81,8.5-8.5s-3.81-8.5-8.5-8.5s-8.5,3.81-8.5,8.5S183.25,27.03,187.94,27.03z M187.94,23.52
				c-2.75,0-4.99-2.24-4.99-4.99s2.24-4.99,4.99-4.99s4.99,2.24,4.99,4.99S190.69,23.52,187.94,23.52z"/>
			<path d="M43.94,226.02c-4.69,0-8.5,3.81-8.5,8.5s3.81,8.5,8.5,8.5s8.5-3.81,8.5-8.5S48.63,226.02,43.94,226.02z M43.94,239.52
				c-2.75,0-4.99-2.24-4.99-4.99s2.24-4.99,4.99-4.99s4.99,2.24,4.99,4.99S46.69,239.52,43.94,239.52z"/>
			<path d="M43.94,82.02c-4.69,0-8.5,3.81-8.5,8.5s3.81,8.5,8.5,8.5s8.5-3.81,8.5-8.5S48.63,82.02,43.94,82.02z M43.94,95.52
				c-2.75,0-4.99-2.24-4.99-4.99s2.24-4.99,4.99-4.99s4.99,2.24,4.99,4.99S46.69,95.52,43.94,95.52z"/>
		</g>
		<g>
			<path d="M17.64,55.64c-0.61,0.49-1.03,1.2-1.16,2c-0.29,1.77,0.91,3.44,2.68,3.74c0.18,0.03,0.36,0.04,0.53,0.04
				c1.56,0,2.94-1.13,3.21-2.72c0.22-1.32-0.42-2.63-1.52-3.3l-0.02-23.97l13.28,14.33c0.55,0.59,1.45,0.68,2.1,0.21
				c0.65-0.47,0.86-1.35,0.47-2.06l-15.76-29.1l22.82,1.69c0.44,1.34,1.6,2.36,3.03,2.6c1.02,0.17,2.04-0.07,2.88-0.67
				c0.84-0.6,1.39-1.49,1.56-2.51c0.35-2.1-1.08-4.09-3.18-4.44c-1.3-0.21-2.59,0.25-3.46,1.19L26.82,4.73L33.06,0h-5.29l-4.32,3.27
				l-2.12-0.92l0-2.35h-3.19l0,0.97L15.91,0H0v8.38l1.62,1.74L0,10v3.2l4.8,0.36l1.36,1.47l0.31,1.11L0,21.05v4.01l7.41-5.62
				L17.64,55.64z M28.38,34.3l-7.03-7.58l0-5.4L28.38,34.3z M23.9,6.94l13.44,5.82l-16-1.18l0-2.7L23.9,6.94z M0.79,4.54l0.86-1.39
				l1.06-0.34l1.54,5.47L0.79,4.54z M18.17,45.77l-7.23-25.59l7.22,7.79L18.17,45.77z M18.16,23.27l-6.52-7.03l2.61-1.98l3.42,0.25
				l0.48,0.89L18.16,23.27z M18.14,4.45l0,2.85l-0.53,0.4l-2.46-4.55L18.14,4.45z M5.75,1.82l3.62-1.17L10.4,1.1l4.64,8.56
				l-1.76,1.33l-5.04-0.37L5.75,1.82z"/>
			<path d="M17.64,199.64c-0.61,0.49-1.03,1.2-1.16,2c-0.29,1.77,0.91,3.44,2.68,3.74c0.18,0.03,0.36,0.04,0.53,0.04
				c1.56,0,2.94-1.13,3.21-2.72c0.22-1.32-0.42-2.63-1.52-3.3l-0.02-23.97l13.28,14.33c0.55,0.59,1.45,0.68,2.1,0.21
				c0.65-0.47,0.85-1.35,0.47-2.06l-15.76-29.1l22.82,1.69c0.44,1.34,1.6,2.36,3.03,2.6c1.02,0.17,2.04-0.07,2.88-0.67
				s1.39-1.49,1.56-2.51c0.35-2.1-1.08-4.09-3.18-4.44c-1.3-0.22-2.59,0.25-3.46,1.19l-18.29-7.92l22.53-17.08
				c0.62-0.47,0.81-1.32,0.45-2.01c-0.36-0.69-1.16-1.02-1.91-0.78l-26.57,8.58l-0.02-20.33c1.26-0.48,2.19-1.6,2.42-2.98
				c0.35-2.1-1.08-4.09-3.18-4.44c-1.02-0.17-2.04,0.07-2.88,0.67c-0.84,0.6-1.39,1.49-1.56,2.51c-0.19,1.16,0.16,2.33,0.92,3.19
				l-9.96,16.18L0,119.18v21.41l1.09,0.47l0.18,0.62L0,143.73v8.65l1.61,1.74L0,154v3.2l4.8,0.36l1.36,1.47l0.31,1.11L0,165.05v4.01
				l7.41-5.62L17.64,199.64z M28.38,178.3l-7.03-7.58l0-5.4L28.38,178.3z M37.34,156.77l-16-1.18l0-2.7l2.56-1.94L37.34,156.77z
				 M39.93,134.79l-16.47,12.48l-2.12-0.92l0-5.56L39.93,134.79z M18.17,189.77l-7.23-25.59l7.22,7.79L18.17,189.77z M18.16,167.27
				l-6.52-7.03l2.61-1.98l3.42,0.25l0.48,0.89L18.16,167.27z M18.14,151.3l-0.53,0.4l-2.46-4.55l3,1.3L18.14,151.3z M18.14,144.97
				l-4.16-1.8l4.16-1.34L18.14,144.97z M18.12,120.39l0.01,18.08l-6.55,2.11l-2.76-5.1L18.12,120.39z M6.9,138.62l1.04,1.92
				l-1.76-0.76L6.9,138.62z M0.79,148.54l0.86-1.39l1.06-0.34l1.54,5.46L0.79,148.54z M4.88,142.75l-0.01-0.05l0.07,0.03
				L4.88,142.75z M3.54,137.99l-3.29-11.64l4.9,9.04L3.54,137.99z M5.75,145.82l3.62-1.17l1.02,0.44l4.64,8.56l-1.76,1.33
				l-5.05-0.37L5.75,145.82z"/>
			<path d="M13.98,287.17l4.16-1.34l0,2.18h3.19l0-3.21l18.6-6.01L27.77,288h5.29l16.29-12.35c0.62-0.47,0.81-1.32,0.45-2.01
				c-0.36-0.69-1.16-1.03-1.91-0.78l-26.57,8.58l-0.02-20.33c1.26-0.48,2.19-1.59,2.42-2.98c0.35-2.1-1.08-4.09-3.18-4.44
				c-2.09-0.35-4.09,1.08-4.44,3.18c-0.19,1.16,0.16,2.33,0.92,3.19l-9.96,16.18L0,263.18v21.41l1.09,0.47l0.18,0.62L0,287.74V288
				h15.9L13.98,287.17z M4.88,286.75l-0.01-0.05l0.07,0.03L4.88,286.75z M3.54,281.99l-3.29-11.64l4.89,9.04L3.54,281.99z
				 M6.18,283.79l0.72-1.16l1.04,1.92L6.18,283.79z M8.83,279.49l9.29-15.09l0.01,18.08l-6.55,2.11L8.83,279.49z"/>
			<path d="M277.01,279.83l10.99,4.76v-21.41l-3.8-7.02c-0.39-0.72-1.25-1.03-2-0.72c-0.76,0.31-1.16,1.13-0.94,1.92l6.71,23.74
				l-15.15-6.56c-0.08-1.49-1.19-2.78-2.72-3.03c-1.77-0.29-3.44,0.91-3.74,2.68c-0.14,0.86,0.06,1.72,0.56,2.42
				c0.51,0.71,1.26,1.17,2.11,1.31c0.57,0.1,1.15,0.03,1.68-0.17l9.51,10.25h4.36L277.01,279.83z"/>
			<path d="M263.24,189.15c0.18,0.03,0.36,0.04,0.54,0.04c0.67,0,1.33-0.21,1.89-0.61c0.71-0.51,1.17-1.26,1.31-2.11
				c0.08-0.47,0.05-0.95-0.08-1.41l21.1-16v-4.01l-17.58,13.32l13.23-21.49l4.34,0.32V154l-2.46-0.18l1.51-2.46l0.94,1.02v-8.06
				l-2.4,0.77l-8.59-9.27l10.99,4.76v-21.41l-3.8-7.02c-0.39-0.72-1.25-1.03-2-0.72h0c-0.75,0.31-1.16,1.13-0.94,1.91l6.7,23.73
				l-15.13-6.56c-0.08-1.49-1.19-2.78-2.72-3.03c-1.77-0.29-3.44,0.91-3.74,2.68c-0.29,1.77,0.91,3.44,2.68,3.74
				c0.57,0.09,1.15,0.03,1.68-0.17l11.53,12.43l-18.93,6.11c-0.73,0.23-1.19,0.95-1.1,1.71c0.09,0.76,0.71,1.35,1.47,1.4l16.37,1.21
				l-16.05,26.08c-1.66-0.14-3.17,1.04-3.45,2.71c-0.14,0.86,0.06,1.72,0.57,2.42S262.39,189.01,263.24,189.15z M272.07,152.82
				l12.57-4.06l0.15,0.17l-2.85,4.63L272.07,152.82z"/>
			<path d="M263.24,45.15c0.18,0.03,0.36,0.04,0.54,0.04c0.67,0,1.33-0.21,1.89-0.61c0.71-0.51,1.17-1.26,1.31-2.11
				c0.08-0.47,0.05-0.95-0.08-1.41l21.1-16v-4.01l-17.58,13.32l13.23-21.49l4.34,0.32V10l-2.46-0.18l1.51-2.46L288,8.38V0.32
				l-2.4,0.77L284.59,0h-4.35l2.02,2.18l-18.93,6.11c-0.73,0.23-1.19,0.95-1.1,1.71c0.09,0.76,0.71,1.35,1.47,1.4l16.37,1.21
				L264.01,38.7c-1.66-0.13-3.17,1.04-3.45,2.71c-0.14,0.86,0.06,1.72,0.57,2.42S262.39,45.01,263.24,45.15z M272.07,8.82
				l12.57-4.06l0.15,0.17l-2.85,4.63L272.07,8.82z"/>
			<path d="M217,287.66c-0.27-0.76-0.84-1.39-1.55-1.75l-0.39-6.97l8.07,9.05h4.17l-9.38-10.52l8.42,2.06
				c0.43,1.49,1.84,2.54,3.47,2.45c1.88-0.1,3.32-1.72,3.22-3.6c-0.1-1.88-1.7-3.34-3.6-3.22h0c-1,0.06-1.9,0.54-2.5,1.3
				l-10.02-2.45l2.31-1.56c0.46,0.21,0.95,0.3,1.46,0.27c1.73-0.1,3.06-1.58,2.96-3.31c-0.05-0.84-0.42-1.61-1.04-2.17
				c-0.63-0.56-1.44-0.85-2.27-0.79c-1.73,0.1-3.06,1.58-2.96,3.31c0,0.06,0.01,0.11,0.01,0.17l-2.73,1.84l-0.34-6.03
				c1.28-0.67,2.1-2.06,2.02-3.55c-0.12-2.08-1.9-3.67-3.97-3.55c-1,0.06-1.93,0.5-2.6,1.25c-0.67,0.75-1.01,1.72-0.95,2.72
				c0.08,1.49,1.05,2.78,2.4,3.3l0.24,4.29l-7.79-8.74c0.17-0.43,0.25-0.89,0.23-1.36c-0.05-0.84-0.42-1.61-1.04-2.17
				c-0.63-0.56-1.43-0.85-2.27-0.79c-1.73,0.1-3.06,1.58-2.96,3.31c0.05,0.84,0.42,1.61,1.04,2.17c0.62,0.56,1.43,0.83,2.26,0.79
				c0.09-0.01,0.19-0.01,0.28-0.03l7.72,8.66l-9.61-2.35c-0.16-0.57-0.48-1.08-0.93-1.48c-0.63-0.56-1.44-0.85-2.27-0.79
				c-0.84,0.05-1.61,0.42-2.17,1.04s-0.84,1.43-0.79,2.27c0.05,0.84,0.42,1.61,1.04,2.17s1.44,0.85,2.27,0.79
				c0.81-0.04,1.56-0.4,2.1-0.97l10.76,2.63l-5.95,4.01c-0.66-0.42-1.44-0.63-2.23-0.58c-1,0.06-1.93,0.5-2.6,1.25
				c-0.67,0.75-1.01,1.72-0.95,2.72c0.12,2.08,1.88,3.66,3.97,3.55c1-0.06,1.93-0.5,2.6-1.25c0.67-0.75,1.01-1.72,0.95-2.72
				c-0.01-0.12-0.02-0.25-0.04-0.37l6.76-4.56l0.48,8.65c-0.56,0.37-1.01,0.92-1.24,1.57l-0.12,0.34h6.14L217,287.66z"/>
			<path d="M191.31,235.08c1.02,0.17,2.04-0.07,2.88-0.67s1.39-1.49,1.56-2.51c0.35-2.1-1.08-4.09-3.18-4.44
				c-1.29-0.22-2.59,0.25-3.46,1.19l-18.29-7.92l22.53-17.08c0.62-0.47,0.81-1.32,0.45-2.01c-0.36-0.7-1.17-1.03-1.91-0.78
				l-26.57,8.58l-0.02-20.33c1.26-0.48,2.19-1.59,2.42-2.97c0.35-2.1-1.08-4.09-3.18-4.44c-2.09-0.35-4.09,1.08-4.44,3.18
				c-0.19,1.16,0.16,2.33,0.92,3.19l-9.96,16.18l-10.88-20.08c-0.39-0.71-1.25-1.03-2.01-0.72c-0.75,0.31-1.16,1.13-0.94,1.92
				l6.71,23.74l-15.15-6.56c-0.08-1.49-1.19-2.78-2.72-3.03c-0.85-0.15-1.72,0.06-2.42,0.57s-1.17,1.26-1.31,2.11
				c-0.29,1.77,0.91,3.44,2.68,3.73c0.56,0.1,1.15,0.03,1.68-0.17l11.53,12.43l-18.93,6.11c-0.72,0.23-1.18,0.95-1.09,1.71
				c0.09,0.76,0.71,1.35,1.47,1.4l16.37,1.21l-16.06,26.08c-1.65-0.14-3.17,1.04-3.45,2.71c-0.29,1.77,0.91,3.44,2.68,3.74
				c0.86,0.14,1.72-0.06,2.42-0.57s1.17-1.26,1.31-2.11c0.08-0.47,0.05-0.96-0.08-1.41l28.51-21.62l10.23,36.2
				c-0.61,0.49-1.03,1.2-1.16,2c-0.29,1.77,0.91,3.44,2.68,3.74c0.18,0.03,0.36,0.04,0.54,0.04c0.67,0,1.33-0.21,1.89-0.61
				c0.71-0.51,1.17-1.26,1.31-2.11c0.22-1.32-0.42-2.63-1.52-3.3l-0.02-23.97l13.28,14.33c0.55,0.59,1.45,0.68,2.1,0.21
				c0.65-0.47,0.85-1.35,0.47-2.06l-15.76-29.1l22.82,1.69C188.72,233.82,189.87,234.84,191.31,235.08z M162.16,239.27l-6.52-7.03
				l2.61-1.98l3.42,0.25l0.48,0.89L162.16,239.27z M162.14,223.3l-0.53,0.4l-2.46-4.55l3,1.3L162.14,223.3z M162.14,216.97
				l-4.16-1.8l4.16-1.34L162.14,216.97z M162.12,192.39l0.01,18.08l-6.55,2.11l-2.76-5.09L162.12,192.39z M150.9,210.62l1.04,1.92
				l-1.76-0.76L150.9,210.62z M149.14,207.38l-1.6,2.61l-3.29-11.64L149.14,207.38z M148.94,214.73l-0.05,0.02l-0.01-0.05
				L148.94,214.73z M144.79,220.54l0.86-1.39l1.06-0.34l1.54,5.46L144.79,220.54z M145.62,226.12l-4.07-0.3l1.51-2.46L145.62,226.12
				z M133.02,207.83l12.07,5.23l0.18,0.62l-1.71,2.79l-1.94,0.63L133.02,207.83z M128.07,224.82l12.57-4.06l0.15,0.17l-2.85,4.63
				L128.07,224.82z M126.42,250.38l13.23-21.49l9.15,0.68l1.36,1.47l0.31,1.11L126.42,250.38z M149.75,217.82l3.62-1.17l1.02,0.44
				l4.64,8.56l-1.75,1.33l-5.05-0.37L149.75,217.82z M154.94,236.18l7.22,7.79l0.01,17.8L154.94,236.18z M165.33,212.79l18.6-6
				l-16.47,12.48l-2.12-0.92L165.33,212.79z M172.38,250.3l-7.03-7.58l0-5.41L172.38,250.3z M165.34,227.58l0-2.7l2.56-1.94
				l13.44,5.82L165.34,227.58z"/>
			<path d="M198.4,124.24c-0.63-0.56-1.42-0.84-2.27-0.79c-0.84,0.05-1.61,0.42-2.17,1.04c-0.56,0.63-0.84,1.43-0.79,2.27
				c0.05,0.84,0.42,1.61,1.04,2.17c0.62,0.56,1.42,0.84,2.27,0.79c0.81-0.05,1.56-0.4,2.1-0.98l10.76,2.63l-5.95,4.01
				c-0.66-0.42-1.44-0.62-2.23-0.58c-1,0.06-1.93,0.5-2.6,1.25c-0.67,0.75-1.01,1.72-0.95,2.72c0.06,1.01,0.5,1.93,1.25,2.6
				c0.75,0.67,1.71,1.02,2.72,0.95c1-0.06,1.93-0.5,2.6-1.25c0.67-0.75,1.01-1.72,0.95-2.72c-0.01-0.12-0.02-0.25-0.04-0.37
				l6.76-4.56l0.48,8.65c-0.93,0.6-1.49,1.67-1.43,2.81c0.1,1.73,1.55,3.08,3.31,2.96c0.84-0.05,1.61-0.42,2.17-1.04
				c0.56-0.62,0.84-1.43,0.79-2.27c-0.06-1.14-0.74-2.14-1.73-2.63l-0.39-6.97l9.86,11.06c-0.13,0.38-0.18,0.77-0.16,1.17
				c0.09,1.67,1.48,2.96,3.14,2.96c0.06,0,0.12,0,0.18,0c1.73-0.1,3.06-1.58,2.96-3.31c-0.05-0.84-0.42-1.61-1.04-2.17
				c-0.63-0.56-1.43-0.84-2.27-0.79c-0.16,0.01-0.32,0.03-0.48,0.06l-9.32-10.45l8.42,2.06c0.43,1.49,1.84,2.53,3.47,2.45
				c0.91-0.05,1.75-0.45,2.35-1.13s0.92-1.56,0.86-2.47c-0.05-0.91-0.45-1.75-1.13-2.35c-0.68-0.61-1.55-0.91-2.46-0.86
				c-1,0.06-1.9,0.54-2.5,1.3l-10.02-2.45l2.31-1.56c0.46,0.21,0.96,0.3,1.46,0.27c1.73-0.1,3.06-1.58,2.96-3.31
				c-0.05-0.84-0.42-1.61-1.04-2.17c-0.62-0.56-1.43-0.84-2.27-0.79c-0.84,0.05-1.61,0.42-2.17,1.04c-0.56,0.63-0.84,1.43-0.79,2.27
				c0,0.06,0.01,0.11,0.01,0.17l-2.73,1.84l-0.34-6.03c1.28-0.67,2.1-2.06,2.02-3.55c-0.06-1.01-0.5-1.93-1.25-2.6
				c-0.75-0.67-1.73-1.01-2.72-0.95c-1,0.06-1.93,0.5-2.6,1.25c-0.67,0.75-1.01,1.72-0.95,2.72c0.08,1.49,1.05,2.78,2.4,3.3
				l0.24,4.29l-7.79-8.74c0.17-0.43,0.25-0.89,0.23-1.36c-0.1-1.73-1.58-3.07-3.31-2.96c-0.84,0.05-1.61,0.42-2.17,1.04
				c-0.56,0.63-0.84,1.43-0.79,2.27c0.05,0.84,0.42,1.61,1.04,2.17c0.63,0.56,1.42,0.84,2.27,0.79c0.09-0.01,0.19-0.01,0.28-0.03
				l7.72,8.66l-9.61-2.35C199.16,125.15,198.85,124.64,198.4,124.24z"/>
			<path d="M119.24,117.15c1.77,0.29,3.44-0.91,3.74-2.68c0.08-0.47,0.05-0.96-0.08-1.41l28.51-21.62l10.23,36.2
				c-0.61,0.49-1.03,1.2-1.16,2c-0.29,1.77,0.91,3.44,2.68,3.74c0.18,0.03,0.36,0.04,0.53,0.04c1.56,0,2.94-1.13,3.21-2.72
				c0.22-1.32-0.42-2.63-1.52-3.3l-0.02-23.97l13.28,14.33c0.55,0.59,1.45,0.68,2.1,0.21c0.65-0.47,0.86-1.35,0.47-2.06l-15.76-29.1
				l22.82,1.69c0.44,1.34,1.6,2.36,3.03,2.6c1.02,0.16,2.04-0.07,2.88-0.67c0.84-0.6,1.39-1.49,1.56-2.51
				c0.35-2.1-1.08-4.09-3.18-4.44c-1.3-0.21-2.59,0.25-3.46,1.19l-18.29-7.92l22.53-17.08c0.62-0.47,0.81-1.32,0.45-2.01
				c-0.36-0.69-1.16-1.02-1.91-0.78l-26.57,8.58l-0.02-20.33c1.26-0.48,2.19-1.6,2.42-2.98c0.35-2.1-1.08-4.09-3.18-4.44
				c-1.01-0.17-2.04,0.07-2.88,0.67c-0.84,0.6-1.39,1.49-1.56,2.51c-0.19,1.16,0.16,2.33,0.92,3.19l-9.96,16.18L140.2,40.16
				c-0.39-0.72-1.25-1.02-2.01-0.72c-0.75,0.31-1.16,1.13-0.94,1.91l6.71,23.74l-15.15-6.56c-0.08-1.49-1.19-2.78-2.72-3.03
				c-0.85-0.14-1.72,0.06-2.42,0.57c-0.71,0.51-1.17,1.26-1.31,2.11c-0.29,1.77,0.91,3.44,2.68,3.73c0.57,0.09,1.15,0.03,1.68-0.17
				l11.53,12.43l-18.93,6.11c-0.72,0.23-1.18,0.95-1.09,1.71c0.09,0.76,0.71,1.35,1.47,1.4l16.37,1.21l-16.06,26.08
				c-0.76-0.06-1.51,0.15-2.14,0.6c-0.71,0.51-1.17,1.26-1.31,2.11c-0.14,0.86,0.06,1.72,0.57,2.42S118.39,117.01,119.24,117.15z
				 M172.38,106.3l-7.03-7.58l0-5.4L172.38,106.3z M181.34,84.77l-16-1.18l0-2.7l2.56-1.94L181.34,84.77z M183.93,62.79
				l-16.47,12.48l-2.12-0.92l0-5.56L183.93,62.79z M162.17,117.77l-7.23-25.59l7.22,7.79L162.17,117.77z M162.16,95.27l-6.52-7.03
				l2.61-1.98l3.42,0.25l0.48,0.89L162.16,95.27z M162.14,79.3l-0.53,0.4l-2.46-4.55l3,1.3L162.14,79.3z M162.14,72.97l-4.16-1.8
				l4.16-1.34L162.14,72.97z M162.12,48.39l0.01,18.08l-6.55,2.11l-2.76-5.1L162.12,48.39z M150.9,66.62l1.04,1.92l-1.76-0.76
				L150.9,66.62z M153.38,72.65l1.02,0.44l4.64,8.56l-1.75,1.33l-5.05-0.37l-2.48-8.79L153.38,72.65z M149.14,63.38l-1.6,2.61
				l-3.29-11.64L149.14,63.38z M148.94,70.73l-0.05,0.02l-0.01-0.05L148.94,70.73z M144.79,76.54l0.86-1.39l1.06-0.34l1.54,5.47
				L144.79,76.54z M145.62,82.12l-4.07-0.3l1.51-2.46L145.62,82.12z M133.02,63.83l12.07,5.23l0.18,0.62l-1.71,2.79l-1.94,0.63
				L133.02,63.83z M128.07,80.82l12.57-4.06l0.15,0.17l-2.85,4.63L128.07,80.82z M139.66,84.88l9.15,0.68l1.36,1.47l0.31,1.11
				l-24.06,18.24L139.66,84.88z"/>
			<path d="M224.76,3.18L224.76,3.18c0.09,1.67,1.48,2.97,3.13,2.97c0.06,0,0.12,0,0.18,0c1.73-0.1,3.06-1.58,2.96-3.31
				c-0.05-0.84-0.42-1.61-1.04-2.17c-0.36-0.32-0.78-0.53-1.22-0.66h-5.64l1.79,2C224.8,2.38,224.74,2.78,224.76,3.18z"/>
			<path d="M214.05,3.86c0.06,0,0.12,0,0.18,0c1.73-0.1,3.06-1.58,2.96-3.31c-0.01-0.18-0.04-0.36-0.09-0.55h-6.08
				c-0.07,0.3-0.12,0.6-0.1,0.9C211.01,2.57,212.4,3.86,214.05,3.86z"/>
			<path d="M85.82,209.99c1.88-0.1,3.32-1.72,3.22-3.6c-0.1-1.88-1.71-3.33-3.6-3.22c-1,0.06-1.9,0.54-2.5,1.3l-10.02-2.45
				l2.31-1.56c0.46,0.21,0.96,0.31,1.46,0.27c1.73-0.1,3.06-1.58,2.96-3.31c-0.05-0.84-0.42-1.61-1.04-2.17
				c-0.63-0.56-1.43-0.85-2.27-0.79c-0.84,0.05-1.61,0.42-2.17,1.04c-0.56,0.62-0.84,1.43-0.79,2.27c0,0.06,0.01,0.11,0.01,0.17
				l-2.73,1.84l-0.34-6.03c1.28-0.67,2.1-2.06,2.02-3.55c-0.12-2.08-1.91-3.67-3.97-3.55c-2.07,0.12-3.67,1.9-3.55,3.97
				c0.08,1.5,1.05,2.78,2.4,3.3l0.24,4.29l-7.79-8.74c0.17-0.43,0.25-0.89,0.23-1.36c-0.05-0.84-0.42-1.61-1.04-2.17
				c-0.62-0.56-1.43-0.85-2.27-0.79c-1.73,0.1-3.06,1.58-2.96,3.31c0.05,0.84,0.42,1.61,1.04,2.17c0.63,0.56,1.43,0.83,2.27,0.79
				c0.09-0.01,0.19-0.01,0.28-0.03l7.72,8.66l-9.61-2.35c-0.16-0.57-0.48-1.08-0.93-1.48c-0.63-0.56-1.43-0.85-2.27-0.79
				c-1.73,0.1-3.06,1.58-2.96,3.31c0.05,0.84,0.42,1.61,1.04,2.17c0.62,0.56,1.43,0.85,2.27,0.79c0.81-0.04,1.56-0.4,2.1-0.97
				l10.76,2.63l-5.95,4.01c-0.66-0.42-1.44-0.63-2.23-0.58c-2.07,0.12-3.67,1.9-3.55,3.97c0.12,2.07,1.89,3.67,3.97,3.55
				c2.07-0.12,3.67-1.9,3.55-3.97c-0.01-0.12-0.02-0.25-0.04-0.37l6.76-4.56l0.48,8.65c-0.93,0.6-1.49,1.67-1.43,2.81
				c0.1,1.73,1.59,3.07,3.31,2.96c0.84-0.05,1.61-0.42,2.17-1.04c0.56-0.63,0.84-1.43,0.79-2.27c-0.06-1.14-0.74-2.14-1.73-2.63
				l-0.39-6.97L80.92,218c-0.13,0.37-0.18,0.77-0.16,1.17c0.05,0.84,0.42,1.61,1.04,2.17c0.58,0.52,1.32,0.8,2.09,0.8
				c0.06,0,0.12,0,0.18,0c1.73-0.1,3.06-1.58,2.96-3.31s-1.61-3.07-3.31-2.96c-0.16,0.01-0.32,0.03-0.48,0.06l-9.32-10.45l8.42,2.06
				C82.78,209.03,84.19,210.09,85.82,209.99z"/>
			<path d="M52.13,51.45c-1.73,0.1-3.06,1.58-2.96,3.31v0c0.1,1.73,1.58,3.06,3.31,2.96c0.81-0.05,1.56-0.4,2.1-0.98l10.76,2.63
				l-5.95,4.01c-0.66-0.42-1.44-0.63-2.23-0.58c-1,0.06-1.93,0.5-2.6,1.25c-0.67,0.75-1.01,1.72-0.95,2.72
				c0.06,1.01,0.5,1.93,1.25,2.6c0.75,0.67,1.72,1,2.72,0.95c2.07-0.12,3.67-1.9,3.55-3.97c-0.01-0.12-0.02-0.25-0.04-0.37
				l6.76-4.56l0.48,8.65c-0.93,0.6-1.49,1.67-1.43,2.81c0.1,1.73,1.58,3.05,3.31,2.96c1.73-0.1,3.06-1.58,2.96-3.31
				c-0.06-1.14-0.74-2.14-1.73-2.63l-0.39-6.97L80.92,74c-0.13,0.37-0.18,0.77-0.16,1.17c0.05,0.84,0.42,1.61,1.04,2.17
				c0.58,0.52,1.32,0.8,2.09,0.8c0.06,0,0.12,0,0.18,0c0.84-0.05,1.61-0.42,2.17-1.04c0.56-0.62,0.84-1.43,0.79-2.27
				c-0.05-0.84-0.42-1.61-1.04-2.17c-0.63-0.56-1.44-0.84-2.27-0.79c-0.16,0.01-0.32,0.03-0.48,0.06l-9.32-10.45l8.42,2.06
				c0.43,1.49,1.87,2.54,3.47,2.45c1.88-0.1,3.32-1.72,3.22-3.6c-0.1-1.88-1.71-3.32-3.6-3.22c-1,0.06-1.9,0.54-2.5,1.3l-10.02-2.45
				l2.31-1.56c0.46,0.21,0.96,0.29,1.46,0.27c1.73-0.1,3.06-1.58,2.96-3.31c-0.05-0.84-0.42-1.61-1.04-2.17
				c-0.62-0.56-1.43-0.84-2.27-0.79c-0.84,0.05-1.61,0.42-2.17,1.04c-0.56,0.63-0.84,1.43-0.79,2.27c0,0.06,0.01,0.11,0.01,0.17
				l-2.73,1.84l-0.34-6.03c1.28-0.67,2.1-2.06,2.02-3.55c-0.06-1.01-0.5-1.93-1.25-2.6c-0.75-0.67-1.71-1-2.72-0.95
				c-1,0.06-1.93,0.5-2.6,1.25c-0.67,0.75-1.01,1.72-0.95,2.72c0.08,1.49,1.05,2.78,2.4,3.3l0.24,4.29l-7.79-8.74
				c0.17-0.43,0.25-0.89,0.23-1.36c-0.1-1.73-1.59-3.07-3.31-2.96c-1.73,0.1-3.06,1.58-2.96,3.31c0.1,1.73,1.59,3.05,3.31,2.96
				c0.09-0.01,0.19-0.01,0.28-0.03l7.72,8.66l-9.61-2.35C54.93,52.34,53.61,51.36,52.13,51.45z"/>
			<polygon points="18.14,288.97 18.14,288 15.9,288 			"/>
		</g>
	</g>
</g>
</svg>
