<?xml version="1.0" encoding="utf-8"?>
<!-- Generator: Adobe Illustrator 23.0.1, SVG Export Plug-In . SVG Version: 6.00 Build 0)  -->
<svg version="1.1" id="2019logo" xmlns="http://www.w3.org/2000/svg" xmlns:xlink="http://www.w3.org/1999/xlink" x="0px"
	 y="0px" viewBox="0 0 508.5 371.25" style="enable-background:new 0 0 508.5 371.25;" xml:space="preserve">
<style type="text/css">
	.st0{fill:#104A71;}
	.st1{fill:#285C80;}
	.st2{fill:#F4854F;}
	.st3{fill:#FEF59B;}
	.st4{fill:#5FCFCA;}
	.st5{opacity:0.6;}
	.st6{fill:#F8B391;}
	.st7{fill:#F16623;}
	.st8{fill:#F58C5A;}
	.st9{fill:#FCE0D3;}
	.st9:hover{border: 2px solid hotpink;}
</style>
<g>
	<g>
		<path class="st0" d="M20.76,291.51l217.75,70.42c4.06,1.31,9.8,2.07,15.74,2.07c5.94,0,11.68-0.75,15.74-2.07l217.75-70.42
			c7.59-2.46,14.01-11.27,14.01-19.26v-108.5c0-7.98-6.42-16.8-14.01-19.26L306.62,85.92l-3.43-1.11l0.34-3.59
			c0.15-1.61,0.23-3.2,0.23-4.71c0-17.98-9.78-34.58-25.52-43.32l-0.36-0.2c-4.01-2.22-14.64-8.11-20.19-14.2
			c-1.36-1.49-2.49-2.98-3.42-4.42c-0.93,1.44-2.06,2.93-3.42,4.42c-5.55,6.09-16.19,11.99-20.2,14.21l-0.36,0.2
			c-15.74,8.73-25.52,25.33-25.52,43.32c0,1.51,0.08,3.1,0.23,4.71l0.34,3.59l-3.43,1.11L20.76,144.49
			c-7.59,2.46-14.01,11.27-14.01,19.26v108.5C6.75,280.23,13.17,289.05,20.76,291.51z"/>
	</g>
	<g>
		<path class="st1" d="M6.75,163.75v108.5c0,4.16,1.75,8.54,4.5,12.14V151.61C8.5,155.21,6.75,159.59,6.75,163.75z"/>
		<path class="st1" d="M20.76,144.49c-0.17,0.06-0.34,0.13-0.51,0.19v146.63c0.17,0.06,0.34,0.14,0.51,0.19l8.49,2.75v-152.5
			L20.76,144.49z"/>
		<polygon class="st1" points="38.25,138.84 38.25,297.16 47.25,300.07 47.25,135.93 		"/>
		<polygon class="st1" points="56.25,133.02 56.25,302.98 65.25,305.9 65.25,130.11 		"/>
		<polygon class="st1" points="74.25,127.2 74.25,308.81 83.25,311.72 83.25,124.29 		"/>
		<polygon class="st1" points="92.25,121.37 92.25,314.63 101.25,317.54 101.25,118.46 		"/>
		<polygon class="st1" points="110.25,115.55 110.25,320.45 119.25,323.36 119.25,112.64 		"/>
		<polygon class="st1" points="128.25,109.73 128.25,326.27 137.25,329.18 137.25,106.82 		"/>
		<polygon class="st1" points="146.25,103.91 146.25,332.09 155.25,335 155.25,101 		"/>
		<polygon class="st1" points="164.25,98.09 164.25,337.91 173.25,340.82 173.25,95.18 		"/>
		<polygon class="st1" points="182.25,92.27 182.25,343.73 191.25,346.64 191.25,89.36 		"/>
		<path class="st1" d="M204.75,76.5c0,1.51,0.08,3.1,0.23,4.71l0.34,3.59l-3.43,1.11l-1.63,0.53v263.11l9,2.91V55.9
			C206.34,62.26,204.75,69.27,204.75,76.5z"/>
		<path class="st1" d="M218.25,42.54v312.84l9,2.91V35.01C223.93,37.17,220.92,39.71,218.25,42.54z"/>
		<path class="st1" d="M236.25,29.77V361.2l2.26,0.73c1.92,0.62,4.23,1.11,6.74,1.46V23.75C242.29,26.01,239.05,28.09,236.25,29.77z
			"/>
		<path class="st1" d="M257.67,18.78c-1.36-1.49-2.49-2.98-3.42-4.42v349.63c3.13,0,6.2-0.21,9-0.6V23.75
			C261.17,22.16,259.22,20.48,257.67,18.78z"/>
		<path class="st1" d="M278.23,33.18l-0.36-0.2c-1.3-0.72-3.31-1.84-5.62-3.22V361.2l9-2.91V35.01
			C280.27,34.37,279.26,33.76,278.23,33.18z"/>
		<path class="st1" d="M290.25,42.53v312.84l9-2.91V55.9C297,50.99,293.97,46.48,290.25,42.53z"/>
		<polygon class="st1" points="308.25,86.45 308.25,349.55 317.25,346.64 317.25,89.36 		"/>
		<polygon class="st1" points="326.25,92.27 326.25,343.73 335.25,340.82 335.25,95.18 		"/>
		<polygon class="st1" points="344.25,98.09 344.25,337.91 353.25,335 353.25,101 		"/>
		<polygon class="st1" points="362.25,103.91 362.25,332.09 371.25,329.18 371.25,106.82 		"/>
		<polygon class="st1" points="380.25,109.73 380.25,326.27 389.25,323.36 389.25,112.64 		"/>
		<polygon class="st1" points="398.25,115.55 398.25,320.45 407.25,317.54 407.25,118.46 		"/>
		<polygon class="st1" points="416.25,121.37 416.25,314.63 425.25,311.72 425.25,124.29 		"/>
		<polygon class="st1" points="434.25,127.2 434.25,308.81 443.25,305.9 443.25,130.11 		"/>
		<polygon class="st1" points="452.25,133.02 452.25,302.98 461.25,300.07 461.25,135.93 		"/>
		<polygon class="st1" points="470.25,138.84 470.25,297.16 479.25,294.25 479.25,141.75 		"/>
		<path class="st1" d="M488.25,144.69v146.63c3.44-1.25,6.6-3.78,9-6.92V151.61C494.85,148.47,491.69,145.94,488.25,144.69z"/>
	</g>
</g>
<g>
	<g>
		<path class="st0" d="M256.4,195.99h-28.27l-4.5,4.5l-8.35,30.2l-9.59-34.7h-32.01l-4.5,4.5l3.31,9.22
			c-5.89-9.74-17.63-16.03-33.68-16.03c-14.32,0-25.2,4.96-31.59,12.9c-7.08,5.73-10.97,13.98-10.97,23.5v0.34H60.71l-4.5,4.5v12.43
			h11v1.54c0,0.71-0.1,1.39-0.28,2.04c-1.13,0.39-2.47,0.61-4.02,0.61c-6.05,0-10.01-3.08-10.01-9.46V226.9
			c0-2.28,0.39-4.26,1.15-5.9c1.48-0.67,3.23-1.04,5.24-1.04c6.05,0,10.89,3.41,13.97,7.59l18.04-12.21l4.5-4.5
			c-4.95-9.79-17.27-17.16-34.54-17.16c-14.46,0-25.87,4.98-32.56,13.25c-7.07,5.75-11.1,14.01-11.1,23.81v13.97
			c0,18.7,13.75,31.35,33.44,31.35c10.01,0,17.38-3.19,22.11-9.13l1.87,6.82h16.94l4.5-4.5v-21.47
			c1.82,16.37,15.74,28.28,37.85,28.28c14.21,0,25.04-4.97,31.43-12.89c7.11-5.76,11.03-14.07,11.03-23.62v-13.97
			c0-1.71-0.13-3.38-0.37-5l19.08,53.17h29.26l4.5-4.5L256.4,195.99z M138.81,250.22c-4.95,0-7.26-2.86-7.26-8.03v-19.14
			c0-1.27,0.14-2.39,0.41-3.38c0.71-0.17,1.49-0.27,2.35-0.27c4.95,0,7.15,2.86,7.15,8.14v19.14c0,1.23-0.13,2.32-0.38,3.28
			C140.39,250.13,139.64,250.22,138.81,250.22z"/>
	</g>
	<g>
		<path class="st0" d="M366.61,193.68c-14.32,0-25.2,4.96-31.59,12.9c-7.08,5.73-10.97,13.98-10.97,23.5v13.97
			c0,3.18,0.44,6.21,1.28,9.07l-16.47-11.15c-3.08,4.18-7.92,7.59-13.97,7.59c-7.04,0-10.78-4.4-10.78-11.22v-11.88
			c0-2.17,0.38-4.08,1.12-5.7c1.45-0.66,3.17-1.02,5.16-1.02c6.05,0,10.89,3.41,13.97,7.59l17.93-11.99l4.5-4.5
			c-4.51-9.79-17.16-17.16-34.43-17.16c-14.53,0-25.94,4.99-32.58,13.22c-7,5.68-10.97,13.8-10.97,23.4v13.64
			c0,18.92,15.4,32.12,39.05,32.12c14.59,0,25.71-5.43,31.73-13.02c2.76-2.22,4.97-4.76,6.56-7.51
			c4.78,12.24,17.52,20.52,35.95,20.52c14.21,0,25.04-4.97,31.43-12.89c7.11-5.76,11.02-14.07,11.02-23.62v-13.97
			C404.56,207.32,390.26,193.68,366.61,193.68z M366.61,250.22c-4.95,0-7.26-2.86-7.26-8.03v-19.14c0-1.27,0.14-2.39,0.41-3.38
			c0.71-0.17,1.49-0.27,2.35-0.27c4.95,0,7.15,2.86,7.15,8.14v19.14c0,1.23-0.13,2.32-0.38,3.28
			C368.2,250.13,367.45,250.22,366.61,250.22z"/>
	</g>
	<g>
		<polygon class="st0" points="484.75,195.99 457.8,195.99 453.3,200.49 453.3,219.2 435.69,195.99 410.61,195.99 406.11,200.49
			406.11,273.75 433.06,273.75 437.56,269.25 437.56,250.16 454.73,273.75 480.25,273.75 484.75,269.25 		"/>
	</g>
</g>
<g>
	<g>
		<path class="st2" d="M79.52,269.25l-1.87-6.82c-4.73,5.94-12.1,9.13-22.11,9.13c-19.69,0-33.44-12.65-33.44-31.35v-13.97
			c0-19.25,15.51-32.56,39.16-32.56c17.27,0,29.59,7.37,34.54,17.16l-18.04,12.21c-3.08-4.18-7.92-7.59-13.97-7.59
			c-6.93,0-10.89,4.18-10.89,11.44v15.18c0,6.38,3.96,9.46,10.01,9.46c5.94,0,8.8-3.19,8.8-7.15v-1.54h-11v-12.43h35.75v38.83H79.52
			z"/>
		<path class="st3" d="M61.26,196.68c13.61,0,25.02,5.02,30.54,13.25l-13.47,9.12c-3.96-4.22-9.13-6.59-14.53-6.59
			c-8.57,0-13.89,5.53-13.89,14.44v15.18c0,7.69,4.99,12.46,13.01,12.46c5.87,0,11.8-3.14,11.8-10.15v-1.54v-3h-3h-8v-6.43h29.75
			v32.83H81.81l-1.26-4.61l-1.56-5.7l-3.68,4.62c-4.23,5.31-10.88,8-19.76,8c-18.21,0-30.44-11.39-30.44-28.35v-13.97
			C25.1,208.56,39.63,196.68,61.26,196.68 M61.26,193.68c-23.65,0-39.16,13.31-39.16,32.56v13.97c0,18.7,13.75,31.35,33.44,31.35
			c10.01,0,17.38-3.19,22.11-9.13l1.87,6.82h16.94v-38.83H60.71v12.43h11v1.54c0,3.96-2.86,7.15-8.8,7.15
			c-6.05,0-10.01-3.08-10.01-9.46V226.9c0-7.26,3.96-11.44,10.89-11.44c6.05,0,10.89,3.41,13.97,7.59l18.04-12.21
			C90.85,201.05,78.53,193.68,61.26,193.68L61.26,193.68z"/>
	</g>
	<g>
		<path class="st2" d="M138.81,271.56c-23.76,0-38.06-13.75-38.06-32.01v-13.97c0-18.26,14.3-31.9,38.06-31.9
			c23.65,0,37.95,13.64,37.95,31.9v13.97C176.76,257.81,162.46,271.56,138.81,271.56z M145.96,223.05c0-5.28-2.2-8.14-7.15-8.14
			s-7.26,2.86-7.26,8.14v19.14c0,5.17,2.31,8.03,7.26,8.03s7.15-2.86,7.15-8.03V223.05z"/>
		<path class="st3" d="M138.81,196.68c10.65,0,19.59,2.89,25.87,8.36c5.94,5.18,9.08,12.28,9.08,20.54v13.97
			c0,17.35-14.05,29.01-34.95,29.01c-10.69,0-19.67-2.91-25.97-8.42c-5.95-5.2-9.09-12.32-9.09-20.59v-13.97
			c0-8.26,3.14-15.36,9.09-20.53C119.13,199.57,128.11,196.68,138.81,196.68 M138.81,253.22c6.45,0,10.15-4.02,10.15-11.03v-19.14
			c0-7.08-3.7-11.14-10.15-11.14c-6.52,0-10.26,4.06-10.26,11.14v19.14C128.55,249.2,132.29,253.22,138.81,253.22 M138.81,193.68
			c-23.76,0-38.06,13.64-38.06,31.9v13.97c0,18.26,14.3,32.01,38.06,32.01c23.65,0,37.95-13.75,37.95-32.01v-13.97
			C176.76,207.32,162.46,193.68,138.81,193.68L138.81,193.68z M138.81,250.22c-4.95,0-7.26-2.86-7.26-8.03v-19.14
			c0-5.28,2.31-8.14,7.26-8.14s7.15,2.86,7.15,8.14v19.14C145.96,247.36,143.76,250.22,138.81,250.22L138.81,250.22z"/>
	</g>
	<g>
		<path class="st2" d="M229.23,269.25h-29.26l-26.29-73.26h32.01l11.22,40.59l11.22-40.59h28.27L229.23,269.25z"/>
		<path class="st3" d="M252.08,198.99l-24.94,67.26h-25.06l-24.14-67.26h25.46l10.61,38.39l2.89,10.46l2.89-10.46l10.61-38.39
			H252.08 M256.4,195.99h-28.27l-11.22,40.59l-11.22-40.59h-32.01l26.29,73.26h29.26L256.4,195.99L256.4,195.99z"/>
	</g>
	<g>
		<path class="st2" d="M292.37,271.56c-23.65,0-39.05-13.2-39.05-32.12V225.8c0-18.92,15.4-32.12,39.05-32.12
			c17.27,0,29.92,7.37,34.43,17.16l-17.93,11.99c-3.08-4.18-7.92-7.59-13.97-7.59c-7.04,0-10.78,4.4-10.78,11.22v11.88
			c0,6.82,3.74,11.22,10.78,11.22c6.05,0,10.89-3.41,13.97-7.59l18.04,12.21C322.07,263.97,309.64,271.56,292.37,271.56z"/>
		<path class="st3" d="M292.37,196.68c13.73,0,25.34,5.1,30.49,13.19l-13.41,8.97c-3.97-4.22-9.14-6.6-14.54-6.6
			c-8.5,0-13.78,5.45-13.78,14.22v11.88c0,8.77,5.28,14.22,13.78,14.22c5.4,0,10.57-2.37,14.53-6.59l13.5,9.13
			c-5.47,8.36-16.89,13.45-30.56,13.45c-21.56,0-36.05-11.7-36.05-29.12V225.8C256.32,208.38,270.8,196.68,292.37,196.68
			 M292.37,193.68c-23.65,0-39.05,13.2-39.05,32.12v13.64c0,18.92,15.4,32.12,39.05,32.12c17.27,0,29.7-7.59,34.54-17.38
			l-18.04-12.21c-3.08,4.18-7.92,7.59-13.97,7.59c-7.04,0-10.78-4.4-10.78-11.22v-11.88c0-6.82,3.74-11.22,10.78-11.22
			c6.05,0,10.89,3.41,13.97,7.59l17.93-11.99C322.29,201.05,309.64,193.68,292.37,193.68L292.37,193.68z"/>
	</g>
	<g>
		<path class="st2" d="M366.61,271.56c-23.76,0-38.06-13.75-38.06-32.01v-13.97c0-18.26,14.3-31.9,38.06-31.9
			c23.65,0,37.95,13.64,37.95,31.9v13.97C404.56,257.81,390.26,271.56,366.61,271.56z M373.76,223.05c0-5.28-2.2-8.14-7.15-8.14
			s-7.26,2.86-7.26,8.14v19.14c0,5.17,2.31,8.03,7.26,8.03s7.15-2.86,7.15-8.03V223.05z"/>
		<path class="st3" d="M366.61,196.68c10.65,0,19.59,2.89,25.87,8.36c5.94,5.18,9.08,12.28,9.08,20.54v13.97
			c0,17.35-14.05,29.01-34.95,29.01c-10.69,0-19.67-2.91-25.97-8.42c-5.95-5.2-9.09-12.32-9.09-20.59v-13.97
			c0-8.26,3.14-15.36,9.09-20.53C346.94,199.57,355.92,196.68,366.61,196.68 M366.61,253.22c6.45,0,10.15-4.02,10.15-11.03v-19.14
			c0-7.08-3.7-11.14-10.15-11.14c-6.52,0-10.26,4.06-10.26,11.14v19.14C356.35,249.2,360.09,253.22,366.61,253.22 M366.61,193.68
			c-23.76,0-38.06,13.64-38.06,31.9v13.97c0,18.26,14.3,32.01,38.06,32.01c23.65,0,37.95-13.75,37.95-32.01v-13.97
			C404.56,207.32,390.26,193.68,366.61,193.68L366.61,193.68z M366.61,250.22c-4.95,0-7.26-2.86-7.26-8.03v-19.14
			c0-5.28,2.31-8.14,7.26-8.14s7.15,2.86,7.15,8.14v19.14C373.76,247.36,371.56,250.22,366.61,250.22L366.61,250.22z"/>
	</g>
	<g>
		<path class="st2" d="M459.23,269.25l-17.93-24.64l-3.74-5.72v30.36h-26.95v-73.26h25.08l19.03,25.08l3.08,4.51v-29.59h26.95v73.26
			H459.23z"/>
		<path class="st3" d="M481.75,198.99v67.26h-20.99l-16.99-23.35l-3.7-5.66l-5.51-8.43v10.07v27.36h-20.95v-67.26h20.59l18.08,23.83
			l3.04,4.45l5.48,8.02v-9.71v-26.59H481.75 M484.75,195.99H457.8v29.59l-3.08-4.51l-19.03-25.08h-25.08v73.26h26.95v-30.36
			l3.74,5.72l17.93,24.64h25.52V195.99L484.75,195.99z"/>
	</g>
</g>
<g>
	<path class="st0" d="M159.51,182.36c-2.72,0-6.38-3.92-6.55-5.02c-0.43-2.13-1.02-4.17-1.02-18.04c0-13.45,1.02-22.98,2.3-29.02
		c-3.49,0.17-12.43,3.32-13.53,3.32c-0.77,0-2.38-2.38-2.38-4.17c0-0.6,0.17-1.02,0.51-1.19c1.79-1.02,18.21-6.72,36.94-6.72
		c39.58,0,43.49,18.73,43.49,26.56C219.26,165.42,201.9,182.36,159.51,182.36z M174.83,128.65c-5.87,0-9.45,0.34-10.47,0.43
		c-0.94,4.43-2.47,12.51-3.32,21.45c-0.94,9.53-1.11,20-1.11,25.53c22.13-0.17,46.81-6.38,46.81-27.83
		C206.75,140.06,201.22,128.65,174.83,128.65z"/>
	<path class="st0" d="M249.14,169.25c-1.19,2.38-4.94,10.21-11.32,10.21c-4.34,0-6.55-2.98-6.55-6.3c0-2.55,1.96-6.64,2.98-8.94
		c0.08-0.26,0.17-0.43,0.17-0.6c0-0.43-0.43-0.68-0.94-0.68c-1.96-0.08-5.02-0.68-5.7-1.02c-0.68,2.47-4.68,11.23-6.55,11.23
		c-0.77,0-1.11-2.64-1.11-3.4c0-0.6,3.15-4.77,4.6-9.45c-0.51-0.43-2.89-1.79-2.89-5.87c0-1.62,1.11-4.34,3.23-4.34
		c2.72,0,4,2.38,4,5.7c1.36,0.94,6.04,1.19,8.17,1.19c3.4,0,5.19,1.45,5.19,4.17c0,2.64-3.92,9.7-3.92,11.83
		c0,0.6,0.26,1.11,0.85,1.11c2.47,0,5.87-4.94,8.51-9.87c0.26-0.51,0.43-0.68,0.68-0.68c0.6,0,1.11,1.53,1.11,3.06
		C249.65,167.55,249.48,168.57,249.14,169.25z"/>
	<path class="st0" d="M281.06,169.25c-1.19,2.38-4.94,10.21-11.32,10.21c-3.66,0-6.13-2.3-7.4-5.96c-1.96,2.89-4.94,5.96-9.02,5.96
		c-5.87,0-8.6-6.13-8.6-14.21c0-1.96,0.34-9.02,0.68-9.7c0.51-0.77,1.53-1.11,3.4-1.11c1.96,0,3.57,0.26,4,1.11
		c0.08,0.17,0.17,0.94,0.17,1.96c0,2.47-0.26,6.89-0.26,9.53c0,3.83,0.43,7.06,2.21,7.06c1.79,0,4.08-2.64,6.3-6.04
		c-0.08-0.94-0.08-1.87-0.08-2.81c0-1.96,0.26-9.02,0.68-9.7c0.51-0.77,1.45-1.11,3.4-1.11c1.87,0,3.49,0.26,3.92,1.11
		c0.08,0.26,0.17,1.19,0.17,2.47c0,2.55-0.17,6.55-0.17,9.02c0,3.83,0.43,7.06,2.21,7.06c2.38,0,5.87-4.94,8.51-9.87
		c0.17-0.51,0.34-0.68,0.68-0.68c0.6,0,1.02,1.53,1.02,3.06C281.57,167.55,281.48,168.57,281.06,169.25z"/>
	<path class="st0" d="M288.98,179.47c-2.3,0-4.51-0.68-6.47-1.7c0.78,7.49,0.65,13.86,0.34,14.29c-0.27,0.37-1.45,1.45-2.81,1.45
		h-0.09c-0.85,0-3.36-1.15-3.74-1.62c-0.38-0.47-1.38-5.67-1.36-9.02c0.11-17.79,1.19-27.49,1.28-27.58
		c0.26-0.94,2.38-1.02,2.38-1.02s2.3,0,2.64,1.02c0,0,0.08,0.6,0.17,1.62c2.21-1.53,4.85-2.47,7.66-2.47
		c7.58,0,13.7,5.62,13.7,12.51S296.55,179.47,288.98,179.47z M288.98,160.06c-4.77,0-6.89,3.06-6.89,6.89
		c0,3.75,2.13,6.89,6.89,6.89c3.15,0,5.7-3.15,5.7-6.89C294.68,163.13,292.13,160.06,288.98,160.06z"/>
	<path class="st0" d="M343.71,169.25c-1.19,2.38-4.94,10.21-11.4,10.21c-2.64,0-4.51-1.19-5.7-3.4c-2.38,2.04-5.53,3.4-8.94,3.4
		c-7.49,0-13.62-5.62-13.62-12.51s6.13-12.51,13.62-12.51c2.72,0,5.28,0.85,7.4,2.21c0.08-0.6,0.17-0.94,0.26-1.11
		c0.51-0.77,0.94-1.11,2.89-1.11c1.87,0,3.15,0.26,3.58,1.11c0.08,0.17,0.17,0.94,0.17,1.96c0,2.47-0.26,6.89-0.26,9.53
		c0,3.83,0.43,7.06,2.21,7.06c2.47,0,5.87-4.94,8.51-9.87c0.25-0.51,0.43-0.68,0.68-0.68c0.6,0,1.11,1.53,1.11,3.06
		C344.22,167.55,344.05,168.57,343.71,169.25z M324.64,166.53c-0.17-3.57-2.3-6.47-6.98-6.47c-3.06,0-5.62,3.06-5.62,6.89
		c0,3.75,2.55,6.89,5.62,6.89c4.85,0,6.98-3.06,6.98-6.89v-0.26V166.53z"/>
	<path class="st0" d="M356.56,169.25c-1.28,2.38-5.02,10.21-11.41,10.21c-6.98,0-7.06-14.55-7.15-15.15
		c-0.25-5.19-0.42-11.75-0.42-19.49c0-7.92,0.51-16.94,1.02-18.04c0.42-0.6,2.81-1.7,3.66-1.7c1.36,0,2.72,1.02,2.98,1.45
		c0.17,0.6,0.42,4.6,0.42,10.89c0,7.75-0.77,19.15-0.77,28v3.06c0,3.15,0.43,5.62,1.87,5.62c2.38,0,5.87-4.94,8.51-9.87
		c0.25-0.51,0.43-0.68,0.68-0.68c0.6,0,1.02,1.53,1.02,3.06v0.51C356.98,167.89,356.81,168.74,356.56,169.25z"/>
</g>
<g>
	<g>
		<path class="st2" d="M216.71,326.25h-23.9l-3.65-7.25l16.82-16.82l1.45-2.9v-1.45l-1.16-2.32l-2.32-1.16h-5.22l-8.41,2.9
			l3.77-11.6h16.53l7.25,7.25v10.15l-13.34,13.34l1.45-0.29h8.7l6.09-2.03L216.71,326.25z"/>
		<path class="st3" d="M209.69,287.9l5.93,5.93v8.29l-12.68,12.68l-5.26,5.26l7.29-1.46l1.23-0.25h8.48h0.37l0.35-0.12l1.82-0.61
			l-2.12,6.37H194.2l-2.3-4.56l15.67-15.67l0.26-0.26l0.16-0.33l1.45-2.9l0.24-0.48v-0.53v-1.45v-0.53l-0.24-0.48l-1.16-2.32
			l-0.34-0.67l-0.67-0.34l-2.32-1.16l-0.48-0.24h-0.53h-5.22h-0.38l-0.36,0.12l-4.14,1.43l1.87-5.75H209.69 M210.62,285.65h-16.53
			l-3.77,11.6l8.41-2.9h5.22l2.32,1.16l1.16,2.32v1.45l-1.45,2.9L189.16,319l3.65,7.25h23.9l4.06-12.18l-6.09,2.03h-8.7l-1.45,0.29
			l13.34-13.34V292.9L210.62,285.65L210.62,285.65z"/>
	</g>
	<g>
		<path class="st2" d="M249.44,326.25H233.2l-7.54-7.54v-25.52l7.54-7.54h16.24l7.54,7.54v25.52L249.44,326.25z M245.96,297.54
			l-1.16-2.32l-2.32-1.16h-2.32l-2.32,1.16l-1.16,2.32v16.24l1.16,2.32l2.32,1.16h2.32l2.32-1.16l1.16-2.32V297.54z"/>
		<path class="st3" d="M248.51,287.9l6.22,6.22v23.66l-6.22,6.22h-14.38l-6.22-6.22v-23.66l6.22-6.22H248.51 M239.63,319.51h0.53
			h2.32h0.53l0.48-0.24l2.32-1.16l0.67-0.34l0.34-0.67l1.16-2.32l0.24-0.48v-0.53v-16.24v-0.53l-0.24-0.48l-1.16-2.32l-0.34-0.67
			l-0.67-0.34l-2.32-1.16l-0.48-0.24h-0.53h-2.32h-0.53l-0.48,0.24l-2.32,1.16l-0.67,0.34l-0.34,0.67l-1.16,2.32l-0.24,0.48v0.53
			v16.24v0.53l0.24,0.48l1.16,2.32l0.34,0.67l0.67,0.34l2.32,1.16L239.63,319.51 M249.44,285.65H233.2l-7.54,7.54v25.52l7.54,7.54
			h16.24l7.54-7.54v-25.52L249.44,285.65L249.44,285.65z M240.16,317.26l-2.32-1.16l-1.16-2.32v-16.24l1.16-2.32l2.32-1.16h2.32
			l2.32,1.16l1.16,2.32v16.24l-1.16,2.32l-2.32,1.16H240.16L240.16,317.26z"/>
	</g>
	<g>
		<path class="st2" d="M264.75,326.25l2.03-5.22v-24.94h-4.93l5.22-10.44h10.44v35.38l2.03,5.22H264.75z"/>
		<path class="st3" d="M275.26,287.9v33.13v0.42l0.15,0.39l0.84,2.15h-8.21l0.84-2.15l0.15-0.39v-0.42v-24.94v-2.25h-2.25h-1.29
			l2.97-5.94H275.26 M277.51,285.65h-10.44l-5.22,10.44h4.93v24.94l-2.03,5.22h14.79l-2.03-5.22V285.65L277.51,285.65z"/>
	</g>
	<g>
		<path class="st2" d="M307.45,326.25h-19.43l-3.77-11.6l8.58,2.9h7.37l2.9-1.45l1.45-2.9v-3.77l-3.48,1.74h-10.15l-6.67-6.67
			v-11.31l7.54-7.54h16.24l7.54,7.54v24.94L307.45,326.25z M304.55,297.54l-1.16-2.32l-2.32-1.16h-2.9l-2.32,1.16l-1.16,2.32v2.03
			l1.16,2.32l2.32,1.16h2.9l2.32-1.16l1.16-2.32V297.54z"/>
		<path class="st3" d="M307.09,287.9l6.22,6.22v23.08l-6.8,6.8h-16.86l-1.88-5.78l4.34,1.47l0.35,0.12h0.37h7.37h0.53l0.48-0.24
			l2.9-1.45l0.67-0.34l0.34-0.67l1.45-2.9l0.24-0.47v-0.53v-3.77v-3.64l-3.26,1.63l-3,1.5h-8.69l-5.35-5.35v-9.45l6.22-6.22H307.09
			 M297.64,305.3h0.53h2.9h0.53l0.48-0.24l2.32-1.16l0.67-0.34l0.34-0.67l1.16-2.32l0.24-0.47v-0.53v-2.03v-0.53l-0.24-0.47
			l-1.16-2.32l-0.34-0.67l-0.67-0.34l-2.32-1.16l-0.48-0.24h-0.53h-2.9h-0.53l-0.48,0.24l-2.32,1.16l-0.67,0.34l-0.34,0.67
			l-1.16,2.32l-0.24,0.48v0.53v2.03v0.53l0.24,0.48l1.16,2.32l0.34,0.67l0.67,0.34l2.32,1.16L297.64,305.3 M308.03,285.65h-16.24
			l-7.54,7.54v11.31l6.67,6.67h10.15l3.48-1.74v3.77l-1.45,2.9l-2.9,1.45h-7.37l-8.58-2.9l3.77,11.6h19.43l8.12-8.12v-24.94
			L308.03,285.65L308.03,285.65z M298.17,303.05l-2.32-1.16l-1.16-2.32v-2.03l1.16-2.32l2.32-1.16h2.9l2.32,1.16l1.16,2.32v2.03
			l-1.16,2.32l-2.32,1.16H298.17L298.17,303.05z"/>
	</g>
</g>
<g>
	<path class="st4" d="M178.03,119.25c-18.73,0-35.15,5.7-36.94,6.72c-0.34,0.17-0.51,0.6-0.51,1.19c0,1.79,1.62,4.17,2.38,4.17
		c1.11,0,10.04-3.15,13.53-3.32c-1.28,6.04-2.3,15.58-2.3,29.02c0,13.87,0.6,15.92,1.02,18.04c0.17,1.11,3.83,5.02,6.55,5.02
		c42.39,0,59.75-16.94,59.75-34.3C221.52,137.98,217.6,119.25,178.03,119.25z M162.2,173.81c0-5.53,0.17-16,1.11-25.53
		c0.85-8.94,2.38-17.02,3.32-21.45c1.02-0.08,4.6-0.43,10.47-0.43c26.39,0,31.92,11.41,31.92,19.58
		C209.01,167.42,184.33,173.64,162.2,173.81z"/>
	<path class="st4" d="M291.23,152.19c-2.81,0-5.45,0.94-7.66,2.47c-0.08-1.02-0.17-1.62-0.17-1.62c-0.34-1.02-2.64-1.02-2.64-1.02
		s-2.13,0.08-2.38,1.02c-0.06,0.07-0.71,5.72-1.06,16.26c-1.34,1.55-2.64,2.55-3.71,2.55c-1.79,0-2.21-3.23-2.21-7.06
		c0-2.47,0.17-6.47,0.17-9.02c0-1.28-0.08-2.21-0.17-2.47c-0.43-0.85-2.04-1.11-3.92-1.11c-1.96,0-2.89,0.34-3.4,1.11
		c-0.43,0.68-0.68,7.75-0.68,9.7c0,0.94,0,1.87,0.08,2.81c-2.21,3.4-4.51,6.04-6.3,6.04s-2.21-3.23-2.21-7.06
		c0-2.64,0.26-7.06,0.26-9.53c0-1.02-0.08-1.79-0.17-1.96c-0.43-0.85-2.04-1.11-4-1.11c-1.87,0-2.89,0.34-3.4,1.11
		c-0.34,0.68-0.68,7.75-0.68,9.7c0,1.35,0.08,2.63,0.24,3.85c-1.95,2.86-3.98,5-5.6,5c-0.6,0-0.85-0.51-0.85-1.11
		c0-2.13,3.92-9.19,3.92-11.83c0-2.72-1.79-4.17-5.19-4.17c-2.13,0-6.81-0.26-8.17-1.19c0-3.32-1.28-5.7-4-5.7
		c-2.13,0-3.23,2.72-3.23,4.34c0,4.09,2.38,5.45,2.89,5.87c-1.45,4.68-4.6,8.85-4.6,9.45c0,0.77,0.34,3.4,1.11,3.4
		c1.87,0,5.87-8.77,6.55-11.23c0.68,0.34,3.75,0.94,5.7,1.02c0.51,0,0.94,0.26,0.94,0.68c0,0.17-0.08,0.34-0.17,0.6
		c-1.02,2.3-2.98,6.38-2.98,8.94c0,3.32,2.21,6.3,6.55,6.3c3.68,0,6.48-2.6,8.42-5.26c1.38,3.24,3.7,5.26,7.07,5.26
		c4.08,0,7.06-3.06,9.02-5.96c1.28,3.66,3.74,5.96,7.4,5.96c1.98,0,3.7-0.75,5.17-1.86c-0.03,1.67-0.05,3.42-0.07,5.27
		c-0.02,3.34,0.98,8.55,1.36,9.02c0.38,0.47,2.89,1.62,3.74,1.62h0.09c1.36,0,2.54-1.08,2.81-1.45c0.31-0.43,0.44-6.8-0.34-14.29
		c1.96,1.02,4.17,1.7,6.47,1.7c7.58,0,13.7-5.62,13.7-12.51S298.81,152.19,291.23,152.19z M291.23,171.59
		c-4.77,0-6.89-3.15-6.89-6.89c0-3.83,2.13-6.89,6.89-6.89c3.15,0,5.7,3.06,5.7,6.89C296.93,168.45,294.38,171.59,291.23,171.59z"/>
	<path class="st4" d="M358.22,161.3c-0.25,0-0.43,0.17-0.68,0.68c-2.64,4.94-6.13,9.87-8.51,9.87c-1.45,0-1.87-2.47-1.87-5.62v-3.06
		c0-8.85,0.77-20.26,0.77-28c0-6.3-0.25-10.3-0.42-10.89c-0.26-0.43-1.62-1.45-2.98-1.45c-0.85,0-3.23,1.11-3.66,1.7
		c-0.51,1.11-1.02,10.13-1.02,18.04c0,7.75,0.17,14.3,0.42,19.49c0.04,0.25,0.07,2.97,0.62,6.04c-1.66,2.22-3.33,3.75-4.71,3.75
		c-1.79,0-2.21-3.23-2.21-7.06c0-2.64,0.26-7.06,0.26-9.53c0-1.02-0.08-1.79-0.17-1.96c-0.43-0.85-1.7-1.11-3.58-1.11
		c-1.96,0-2.38,0.34-2.89,1.11c-0.08,0.17-0.17,0.51-0.26,1.11c-2.13-1.36-4.68-2.21-7.4-2.21c-7.49,0-13.62,5.62-13.62,12.51
		s6.13,12.51,13.62,12.51c3.4,0,6.55-1.36,8.94-3.4c1.19,2.21,3.06,3.4,5.7,3.4c3.25,0,5.81-1.98,7.71-4.25
		c1.05,2.4,2.66,4.25,5.14,4.25c6.38,0,10.13-7.83,11.41-10.21c0.26-0.51,0.43-1.36,0.43-2.13v-0.51
		C359.24,162.83,358.81,161.3,358.22,161.3z M326.9,164.45v0.26c0,3.83-2.13,6.89-6.98,6.89c-3.06,0-5.62-3.15-5.62-6.89
		c0-3.83,2.55-6.89,5.62-6.89c4.68,0,6.81,2.89,6.98,6.47V164.45z"/>
</g>
<g class="st5">
	<g>
		<g>
			<path class="st6" d="M200.43,218.81c-0.3-0.16-1.18-0.65-1.62-1.12c-0.52-0.57-0.56-1.13-0.56-1.13s-0.05,0.56-0.56,1.13
				c-0.43,0.48-1.32,0.96-1.62,1.12c-1.38,0.77-2.32,2.24-2.32,3.94c0,2.49,2.01,4.5,4.5,4.5s4.5-2.01,4.5-4.5
				C202.75,221.06,201.81,219.58,200.43,218.81z"/>
		</g>
		<g>
			<path class="st6" d="M235.83,218.81c-0.3-0.16-1.18-0.65-1.62-1.12c-0.52-0.57-0.56-1.13-0.56-1.13s-0.05,0.56-0.56,1.13
				c-0.43,0.48-1.32,0.96-1.62,1.12c-1.38,0.77-2.32,2.24-2.32,3.94c0,2.49,2.01,4.5,4.5,4.5c2.49,0,4.5-2.01,4.5-4.5
				C238.15,221.06,237.21,219.58,235.83,218.81z"/>
		</g>
		<g>
			<path class="st6" d="M195.93,204.31c-0.3-0.16-1.18-0.65-1.62-1.12c-0.52-0.57-0.56-1.13-0.56-1.13s-0.05,0.56-0.56,1.13
				c-0.43,0.48-1.32,0.96-1.62,1.12c-1.38,0.77-2.32,2.24-2.32,3.94c0,2.49,2.01,4.5,4.5,4.5s4.5-2.01,4.5-4.5
				C198.25,206.56,197.31,205.08,195.93,204.31z"/>
		</g>
		<g>
			<path class="st6" d="M241.43,203.81c-0.3-0.16-1.18-0.65-1.62-1.12c-0.52-0.57-0.56-1.13-0.56-1.13s-0.05,0.56-0.56,1.13
				c-0.43,0.48-1.32,0.96-1.62,1.12c-1.38,0.77-2.32,2.24-2.32,3.94c0,2.49,2.01,4.5,4.5,4.5s4.5-2.01,4.5-4.5
				C243.75,206.06,242.81,204.58,241.43,203.81z"/>
		</g>
		<g>
			<path class="st6" d="M205.43,233.81c-0.3-0.16-1.18-0.65-1.62-1.12c-0.52-0.57-0.56-1.13-0.56-1.13s-0.05,0.56-0.56,1.13
				c-0.43,0.48-1.32,0.96-1.62,1.12c-1.38,0.77-2.32,2.24-2.32,3.94c0,2.49,2.01,4.5,4.5,4.5s4.5-2.01,4.5-4.5
				C207.75,236.06,206.81,234.58,205.43,233.81z"/>
		</g>
		<g>
			<path class="st6" d="M230.68,233.81c-0.3-0.16-1.18-0.65-1.62-1.12c-0.52-0.57-0.56-1.13-0.56-1.13s-0.05,0.56-0.56,1.13
				c-0.43,0.48-1.32,0.96-1.62,1.12c-1.38,0.77-2.32,2.24-2.32,3.94c0,2.49,2.01,4.5,4.5,4.5s4.5-2.01,4.5-4.5
				C233,236.06,232.06,234.58,230.68,233.81z"/>
		</g>
		<g>
			<path class="st6" d="M210.43,249.31c-0.3-0.16-1.18-0.65-1.62-1.12c-0.52-0.57-0.56-1.13-0.56-1.13s-0.05,0.56-0.56,1.13
				c-0.43,0.48-1.32,0.96-1.62,1.12c-1.38,0.77-2.32,2.24-2.32,3.94c0,2.49,2.01,4.5,4.5,4.5s4.5-2.01,4.5-4.5
				C212.75,251.56,211.81,250.08,210.43,249.31z"/>
		</g>
		<g>
			<path class="st6" d="M226.68,249.31c-0.3-0.16-1.18-0.65-1.62-1.12c-0.52-0.57-0.56-1.13-0.56-1.13s-0.05,0.56-0.56,1.13
				c-0.43,0.48-1.32,0.96-1.62,1.12c-1.38,0.77-2.32,2.24-2.32,3.94c0,2.49,2.01,4.5,4.5,4.5s4.5-2.01,4.5-4.5
				C229,251.56,228.06,250.08,226.68,249.31z"/>
		</g>
	</g>
	<g>
		<g>
			<path class="st6" d="M271.88,218.81c-0.3-0.16-1.18-0.65-1.62-1.12c-0.52-0.57-0.56-1.13-0.56-1.13s-0.05,0.56-0.56,1.13
				c-0.43,0.48-1.32,0.96-1.62,1.12c-1.38,0.77-2.32,2.24-2.32,3.94c0,2.49,2.01,4.5,4.5,4.5c2.49,0,4.5-2.01,4.5-4.5
				C274.2,221.06,273.26,219.58,271.88,218.81z"/>
		</g>
		<g>
			<path class="st6" d="M271.88,233.81c-0.3-0.16-1.18-0.65-1.62-1.12c-0.52-0.57-0.56-1.13-0.56-1.13s-0.05,0.56-0.56,1.13
				c-0.43,0.48-1.32,0.96-1.62,1.12c-1.38,0.77-2.32,2.24-2.32,3.94c0,2.49,2.01,4.5,4.5,4.5c2.49,0,4.5-2.01,4.5-4.5
				C274.2,236.06,273.26,234.58,271.88,233.81z"/>
		</g>
		<g>
			<path class="st6" d="M273.38,248.81c-0.3-0.16-1.18-0.65-1.62-1.12c-0.52-0.57-0.56-1.13-0.56-1.13s-0.05,0.56-0.56,1.13
				c-0.43,0.48-1.32,0.96-1.62,1.12c-1.38,0.77-2.32,2.24-2.32,3.94c0,2.49,2.01,4.5,4.5,4.5c2.49,0,4.5-2.01,4.5-4.5
				C275.7,251.06,274.76,249.58,273.38,248.81z"/>
		</g>
		<g>
			<path class="st6" d="M286.43,255.31c-0.3-0.16-1.18-0.65-1.62-1.12c-0.52-0.57-0.56-1.13-0.56-1.13s-0.05,0.56-0.56,1.13
				c-0.43,0.48-1.32,0.96-1.62,1.12c-1.38,0.77-2.32,2.24-2.32,3.94c0,2.49,2.01,4.5,4.5,4.5c2.49,0,4.5-2.01,4.5-4.5
				C288.75,257.56,287.81,256.08,286.43,255.31z"/>
		</g>
		<g>
			<path class="st6" d="M300.43,256.31c-0.3-0.16-1.18-0.65-1.62-1.12c-0.52-0.57-0.56-1.13-0.56-1.13s-0.05,0.56-0.56,1.13
				c-0.43,0.48-1.32,0.96-1.62,1.12c-1.38,0.77-2.32,2.24-2.32,3.94c0,2.49,2.01,4.5,4.5,4.5c2.49,0,4.5-2.01,4.5-4.5
				C302.75,258.56,301.81,257.08,300.43,256.31z"/>
		</g>
		<g>
			<path class="st6" d="M313.43,252.31c-0.3-0.16-1.18-0.65-1.62-1.12c-0.52-0.57-0.56-1.13-0.56-1.13s-0.05,0.56-0.56,1.13
				c-0.43,0.48-1.32,0.96-1.62,1.12c-1.38,0.77-2.32,2.24-2.32,3.94c0,2.49,2.01,4.5,4.5,4.5c2.49,0,4.5-2.01,4.5-4.5
				C315.75,254.56,314.81,253.08,313.43,252.31z"/>
		</g>
		<g>
			<path class="st6" d="M280.38,204.81c-0.3-0.16-1.18-0.65-1.62-1.12c-0.52-0.57-0.56-1.13-0.56-1.13s-0.05,0.56-0.56,1.13
				c-0.43,0.48-1.32,0.96-1.62,1.12c-1.38,0.77-2.32,2.24-2.32,3.94c0,2.49,2.01,4.5,4.5,4.5c2.49,0,4.5-2.01,4.5-4.5
				C282.7,207.06,281.76,205.58,280.38,204.81z"/>
		</g>
		<g>
			<path class="st6" d="M293.38,201.31c-0.3-0.16-1.18-0.65-1.62-1.12c-0.52-0.57-0.56-1.13-0.56-1.13s-0.05,0.56-0.56,1.13
				c-0.43,0.48-1.32,0.96-1.62,1.12c-1.38,0.77-2.32,2.24-2.32,3.94c0,2.49,2.01,4.5,4.5,4.5c2.49,0,4.5-2.01,4.5-4.5
				C295.7,203.56,294.76,202.08,293.38,201.31z"/>
		</g>
		<g>
			<path class="st6" d="M306.88,203.31c-0.3-0.16-1.18-0.65-1.62-1.12c-0.52-0.57-0.56-1.13-0.56-1.13s-0.05,0.56-0.56,1.13
				c-0.43,0.48-1.32,0.96-1.62,1.12c-1.38,0.77-2.32,2.24-2.32,3.94c0,2.49,2.01,4.5,4.5,4.5c2.49,0,4.5-2.01,4.5-4.5
				C309.2,205.56,308.26,204.08,306.88,203.31z"/>
		</g>
	</g>
	<g>
		<g>
			<path class="st6" d="M345.43,218.81c-0.3-0.16-1.18-0.65-1.62-1.12c-0.52-0.57-0.56-1.13-0.56-1.13s-0.05,0.56-0.56,1.13
				c-0.43,0.48-1.32,0.96-1.62,1.12c-1.38,0.77-2.32,2.24-2.32,3.94c0,2.49,2.01,4.5,4.5,4.5c2.49,0,4.5-2.01,4.5-4.5
				C347.75,221.06,346.81,219.58,345.43,218.81z"/>
		</g>
		<g>
			<path class="st6" d="M390.93,218.81c-0.3-0.16-1.18-0.65-1.62-1.12c-0.52-0.57-0.56-1.13-0.56-1.13s-0.05,0.56-0.56,1.13
				c-0.43,0.48-1.32,0.96-1.62,1.12c-1.38,0.77-2.32,2.24-2.32,3.94c0,2.49,2.01,4.5,4.5,4.5c2.49,0,4.5-2.01,4.5-4.5
				C393.25,221.06,392.31,219.58,390.93,218.81z"/>
		</g>
		<g>
			<path class="st6" d="M345.23,233.81c-0.3-0.16-1.18-0.65-1.62-1.12c-0.52-0.57-0.56-1.13-0.56-1.13s-0.05,0.56-0.56,1.13
				c-0.43,0.48-1.32,0.96-1.62,1.12c-1.38,0.77-2.32,2.24-2.32,3.94c0,2.49,2.01,4.5,4.5,4.5c2.49,0,4.5-2.01,4.5-4.5
				C347.55,236.06,346.61,234.58,345.23,233.81z"/>
		</g>
		<g>
			<path class="st6" d="M391.23,233.81c-0.3-0.16-1.18-0.65-1.62-1.12c-0.52-0.57-0.56-1.13-0.56-1.13s-0.05,0.56-0.56,1.13
				c-0.43,0.48-1.32,0.96-1.62,1.12c-1.38,0.77-2.32,2.24-2.32,3.94c0,2.49,2.01,4.5,4.5,4.5c2.49,0,4.5-2.01,4.5-4.5
				C393.55,236.06,392.61,234.58,391.23,233.81z"/>
		</g>
		<g>
			<path class="st6" d="M349.93,248.31c-0.3-0.16-1.18-0.65-1.62-1.12c-0.52-0.57-0.56-1.13-0.56-1.13s-0.05,0.56-0.56,1.13
				c-0.43,0.48-1.32,0.96-1.62,1.12c-1.38,0.77-2.32,2.24-2.32,3.94c0,2.49,2.01,4.5,4.5,4.5c2.49,0,4.5-2.01,4.5-4.5
				C352.25,250.56,351.31,249.08,349.93,248.31z"/>
		</g>
		<g>
			<path class="st6" d="M387.93,248.31c-0.3-0.16-1.18-0.65-1.62-1.12c-0.52-0.57-0.56-1.13-0.56-1.13s-0.05,0.56-0.56,1.13
				c-0.43,0.48-1.32,0.96-1.62,1.12c-1.38,0.77-2.32,2.24-2.32,3.94c0,2.49,2.01,4.5,4.5,4.5c2.49,0,4.5-2.01,4.5-4.5
				C390.25,250.56,389.31,249.08,387.93,248.31z"/>
		</g>
		<g>
			<path class="st6" d="M361.93,255.96c-0.3-0.16-1.18-0.65-1.62-1.12c-0.52-0.57-0.56-1.13-0.56-1.13s-0.05,0.56-0.56,1.12
				c-0.43,0.48-1.32,0.96-1.62,1.13c-1.38,0.77-2.32,2.24-2.32,3.94c0,2.49,2.01,4.5,4.5,4.5c2.49,0,4.5-2.01,4.5-4.5
				C364.25,258.21,363.31,256.73,361.93,255.96z"/>
		</g>
		<g>
			<path class="st6" d="M375.93,255.81c-0.3-0.16-1.18-0.65-1.62-1.12c-0.52-0.57-0.56-1.13-0.56-1.13s-0.05,0.56-0.56,1.13
				c-0.43,0.48-1.32,0.96-1.62,1.12c-1.38,0.77-2.32,2.24-2.32,3.94c0,2.49,2.01,4.5,4.5,4.5c2.49,0,4.5-2.01,4.5-4.5
				C378.25,258.06,377.31,256.58,375.93,255.81z"/>
		</g>
		<g>
			<path class="st6" d="M351.43,206.36c-0.3-0.16-1.18-0.65-1.62-1.12c-0.52-0.57-0.56-1.13-0.56-1.13s-0.05,0.56-0.56,1.12
				c-0.43,0.48-1.32,0.96-1.62,1.13c-1.38,0.77-2.32,2.24-2.32,3.94c0,2.49,2.01,4.5,4.5,4.5c2.49,0,4.5-2.01,4.5-4.5
				C353.75,208.61,352.81,207.13,351.43,206.36z"/>
		</g>
		<g>
			<path class="st6" d="M386.43,206.31c-0.3-0.16-1.18-0.65-1.62-1.12c-0.52-0.57-0.56-1.13-0.56-1.13s-0.05,0.56-0.56,1.13
				c-0.43,0.48-1.32,0.96-1.62,1.12c-1.38,0.77-2.32,2.24-2.32,3.94c0,2.49,2.01,4.5,4.5,4.5c2.49,0,4.5-2.01,4.5-4.5
				C388.75,208.56,387.81,207.08,386.43,206.31z"/>
		</g>
		<g>
			<path class="st6" d="M362.43,200.81c-0.3-0.16-1.18-0.65-1.62-1.12c-0.52-0.57-0.56-1.13-0.56-1.13s-0.05,0.56-0.56,1.13
				c-0.43,0.48-1.32,0.96-1.62,1.12c-1.38,0.77-2.32,2.24-2.32,3.94c0,2.49,2.01,4.5,4.5,4.5c2.49,0,4.5-2.01,4.5-4.5
				C364.75,203.06,363.81,201.58,362.43,200.81z"/>
		</g>
		<g>
			<path class="st6" d="M375.43,200.81c-0.3-0.16-1.18-0.65-1.62-1.12c-0.52-0.57-0.56-1.13-0.56-1.13s-0.05,0.56-0.56,1.13
				c-0.43,0.48-1.32,0.96-1.62,1.12c-1.38,0.77-2.32,2.24-2.32,3.94c0,2.49,2.01,4.5,4.5,4.5c2.49,0,4.5-2.01,4.5-4.5
				C377.75,203.06,376.81,201.58,375.43,200.81z"/>
		</g>
	</g>
	<g>
		<g>
			<path class="st6" d="M426.43,220.81c-0.3-0.16-1.18-0.65-1.62-1.12c-0.52-0.57-0.56-1.13-0.56-1.13s-0.05,0.56-0.56,1.13
				c-0.43,0.48-1.32,0.96-1.62,1.12c-1.38,0.77-2.32,2.24-2.32,3.94c0,2.49,2.01,4.5,4.5,4.5c2.49,0,4.5-2.01,4.5-4.5
				C428.75,223.06,427.81,221.58,426.43,220.81z"/>
		</g>
		<g>
			<path class="st6" d="M472.93,220.81c-0.3-0.16-1.18-0.65-1.62-1.12c-0.52-0.57-0.56-1.13-0.56-1.13s-0.05,0.56-0.56,1.13
				c-0.43,0.48-1.32,0.96-1.62,1.12c-1.38,0.77-2.32,2.24-2.32,3.94c0,2.49,2.01,4.5,4.5,4.5c2.49,0,4.5-2.01,4.5-4.5
				C475.25,223.06,474.31,221.58,472.93,220.81z"/>
		</g>
		<g>
			<path class="st6" d="M426.43,204.81c-0.3-0.16-1.18-0.65-1.62-1.12c-0.52-0.57-0.56-1.13-0.56-1.13s-0.05,0.56-0.56,1.13
				c-0.43,0.48-1.32,0.96-1.62,1.12c-1.38,0.77-2.32,2.24-2.32,3.94c0,2.49,2.01,4.5,4.5,4.5c2.49,0,4.5-2.01,4.5-4.5
				C428.75,207.06,427.81,205.58,426.43,204.81z"/>
		</g>
		<g>
			<path class="st6" d="M472.93,204.81c-0.3-0.16-1.18-0.65-1.62-1.12c-0.52-0.57-0.56-1.13-0.56-1.13s-0.05,0.56-0.56,1.13
				c-0.43,0.48-1.32,0.96-1.62,1.12c-1.38,0.77-2.32,2.24-2.32,3.94c0,2.49,2.01,4.5,4.5,4.5c2.49,0,4.5-2.01,4.5-4.5
				C475.25,207.06,474.31,205.58,472.93,204.81z"/>
		</g>
		<g>
			<path class="st6" d="M426.43,236.81c-0.3-0.16-1.18-0.65-1.62-1.12c-0.52-0.57-0.56-1.13-0.56-1.13s-0.05,0.56-0.56,1.13
				c-0.43,0.48-1.32,0.96-1.62,1.12c-1.38,0.77-2.32,2.24-2.32,3.94c0,2.49,2.01,4.5,4.5,4.5c2.49,0,4.5-2.01,4.5-4.5
				C428.75,239.06,427.81,237.58,426.43,236.81z"/>
		</g>
		<g>
			<path class="st6" d="M472.93,236.81c-0.3-0.16-1.18-0.65-1.62-1.12c-0.52-0.57-0.56-1.13-0.56-1.13s-0.05,0.56-0.56,1.13
				c-0.43,0.48-1.32,0.96-1.62,1.12c-1.38,0.77-2.32,2.24-2.32,3.94c0,2.49,2.01,4.5,4.5,4.5c2.49,0,4.5-2.01,4.5-4.5
				C475.25,239.06,474.31,237.58,472.93,236.81z"/>
		</g>
		<g>
			<path class="st6" d="M426.43,252.81c-0.3-0.16-1.18-0.65-1.62-1.12c-0.52-0.57-0.56-1.13-0.56-1.13s-0.05,0.56-0.56,1.13
				c-0.43,0.48-1.32,0.96-1.62,1.12c-1.38,0.77-2.32,2.24-2.32,3.94c0,2.49,2.01,4.5,4.5,4.5c2.49,0,4.5-2.01,4.5-4.5
				C428.75,255.06,427.81,253.58,426.43,252.81z"/>
		</g>
		<g>
			<path class="st6" d="M472.93,252.81c-0.3-0.16-1.18-0.65-1.62-1.12c-0.52-0.57-0.56-1.13-0.56-1.13s-0.05,0.56-0.56,1.13
				c-0.43,0.48-1.32,0.96-1.62,1.12c-1.38,0.77-2.32,2.24-2.32,3.94c0,2.49,2.01,4.5,4.5,4.5c2.49,0,4.5-2.01,4.5-4.5
				C475.25,255.06,474.31,253.58,472.93,252.81z"/>
		</g>
		<g>
			<path class="st6" d="M439.68,214.56c-0.3-0.16-1.18-0.65-1.62-1.12c-0.52-0.57-0.56-1.13-0.56-1.13s-0.05,0.56-0.56,1.13
				c-0.43,0.48-1.32,0.96-1.62,1.12c-1.38,0.77-2.32,2.24-2.32,3.94c0,2.49,2.01,4.5,4.5,4.5c2.49,0,4.5-2.01,4.5-4.5
				C442,216.81,441.06,215.33,439.68,214.56z"/>
		</g>
		<g>
			<path class="st6" d="M449.68,228.41c-0.3-0.16-1.18-0.65-1.62-1.12c-0.52-0.57-0.56-1.13-0.56-1.13s-0.05,0.56-0.56,1.12
				c-0.43,0.48-1.32,0.96-1.62,1.13c-1.38,0.77-2.32,2.24-2.32,3.94c0,2.49,2.01,4.5,4.5,4.5c2.49,0,4.5-2.01,4.5-4.5
				C452,230.66,451.06,229.18,449.68,228.41z"/>
		</g>
		<g>
			<path class="st6" d="M459.68,242.06c-0.3-0.16-1.18-0.65-1.62-1.12c-0.52-0.57-0.56-1.13-0.56-1.13s-0.05,0.56-0.56,1.13
				c-0.43,0.48-1.32,0.96-1.62,1.12c-1.38,0.77-2.32,2.24-2.32,3.94c0,2.49,2.01,4.5,4.5,4.5c2.49,0,4.5-2.01,4.5-4.5
				C462,244.31,461.06,242.83,459.68,242.06z"/>
		</g>
	</g>
	<g>
		<g>
			<path class="st6" d="M117.43,218.81c-0.3-0.16-1.18-0.65-1.62-1.12c-0.52-0.57-0.56-1.13-0.56-1.13s-0.05,0.56-0.56,1.13
				c-0.43,0.48-1.32,0.96-1.62,1.12c-1.38,0.77-2.32,2.24-2.32,3.94c0,2.49,2.01,4.5,4.5,4.5c2.49,0,4.5-2.01,4.5-4.5
				C119.75,221.06,118.81,219.58,117.43,218.81z"/>
		</g>
		<g>
			<path class="st6" d="M162.93,218.81c-0.3-0.16-1.18-0.65-1.62-1.12c-0.52-0.57-0.56-1.13-0.56-1.13s-0.05,0.56-0.56,1.13
				c-0.43,0.48-1.32,0.96-1.62,1.12c-1.38,0.77-2.32,2.24-2.32,3.94c0,2.49,2.01,4.5,4.5,4.5s4.5-2.01,4.5-4.5
				C165.25,221.06,164.31,219.58,162.93,218.81z"/>
		</g>
		<g>
			<path class="st6" d="M117.23,233.81c-0.3-0.16-1.18-0.65-1.62-1.12c-0.52-0.57-0.56-1.13-0.56-1.13s-0.05,0.56-0.56,1.13
				c-0.43,0.48-1.32,0.96-1.62,1.12c-1.38,0.77-2.32,2.24-2.32,3.94c0,2.49,2.01,4.5,4.5,4.5s4.5-2.01,4.5-4.5
				C119.55,236.06,118.61,234.58,117.23,233.81z"/>
		</g>
		<g>
			<path class="st6" d="M163.23,233.81c-0.3-0.16-1.18-0.65-1.62-1.12c-0.52-0.57-0.56-1.13-0.56-1.13s-0.05,0.56-0.56,1.13
				c-0.43,0.48-1.32,0.96-1.62,1.12c-1.38,0.77-2.32,2.24-2.32,3.94c0,2.49,2.01,4.5,4.5,4.5s4.5-2.01,4.5-4.5
				C165.55,236.06,164.61,234.58,163.23,233.81z"/>
		</g>
		<g>
			<path class="st6" d="M121.93,248.31c-0.3-0.16-1.18-0.65-1.62-1.12c-0.52-0.57-0.56-1.13-0.56-1.13s-0.05,0.56-0.56,1.13
				c-0.43,0.48-1.32,0.96-1.62,1.12c-1.38,0.77-2.32,2.24-2.32,3.94c0,2.49,2.01,4.5,4.5,4.5c2.49,0,4.5-2.01,4.5-4.5
				C124.25,250.56,123.31,249.08,121.93,248.31z"/>
		</g>
		<g>
			<path class="st6" d="M159.93,248.31c-0.3-0.16-1.18-0.65-1.62-1.12c-0.52-0.57-0.56-1.13-0.56-1.13s-0.05,0.56-0.56,1.13
				c-0.43,0.48-1.32,0.96-1.62,1.12c-1.38,0.77-2.32,2.24-2.32,3.94c0,2.49,2.01,4.5,4.5,4.5s4.5-2.01,4.5-4.5
				C162.25,250.56,161.31,249.08,159.93,248.31z"/>
		</g>
		<g>
			<path class="st6" d="M133.93,255.96c-0.3-0.16-1.18-0.65-1.62-1.12c-0.52-0.57-0.56-1.13-0.56-1.13s-0.05,0.56-0.56,1.12
				c-0.43,0.48-1.32,0.96-1.62,1.13c-1.38,0.77-2.32,2.24-2.32,3.94c0,2.49,2.01,4.5,4.5,4.5s4.5-2.01,4.5-4.5
				C136.25,258.21,135.31,256.73,133.93,255.96z"/>
		</g>
		<g>
			<path class="st6" d="M147.93,255.81c-0.3-0.16-1.18-0.65-1.62-1.12c-0.52-0.57-0.56-1.13-0.56-1.13s-0.05,0.56-0.56,1.13
				c-0.43,0.48-1.32,0.96-1.62,1.12c-1.38,0.77-2.32,2.24-2.32,3.94c0,2.49,2.01,4.5,4.5,4.5s4.5-2.01,4.5-4.5
				C150.25,258.06,149.31,256.58,147.93,255.81z"/>
		</g>
		<g>
			<path class="st6" d="M123.43,206.36c-0.3-0.16-1.18-0.65-1.62-1.12c-0.52-0.57-0.56-1.13-0.56-1.13s-0.05,0.56-0.56,1.12
				c-0.43,0.48-1.32,0.96-1.62,1.13c-1.38,0.77-2.32,2.24-2.32,3.94c0,2.49,2.01,4.5,4.5,4.5c2.49,0,4.5-2.01,4.5-4.5
				C125.75,208.61,124.81,207.13,123.43,206.36z"/>
		</g>
		<g>
			<path class="st6" d="M158.43,206.31c-0.3-0.16-1.18-0.65-1.62-1.12c-0.52-0.57-0.56-1.13-0.56-1.13s-0.05,0.56-0.56,1.13
				c-0.43,0.48-1.32,0.96-1.62,1.12c-1.38,0.77-2.32,2.24-2.32,3.94c0,2.49,2.01,4.5,4.5,4.5s4.5-2.01,4.5-4.5
				C160.75,208.56,159.81,207.08,158.43,206.31z"/>
		</g>
		<g>
			<path class="st6" d="M134.43,200.81c-0.3-0.16-1.18-0.65-1.62-1.12c-0.52-0.57-0.56-1.13-0.56-1.13s-0.05,0.56-0.56,1.13
				c-0.43,0.48-1.32,0.96-1.62,1.12c-1.38,0.77-2.32,2.24-2.32,3.94c0,2.49,2.01,4.5,4.5,4.5s4.5-2.01,4.5-4.5
				C136.75,203.06,135.81,201.58,134.43,200.81z"/>
		</g>
		<g>
			<path class="st6" d="M147.43,200.81c-0.3-0.16-1.18-0.65-1.62-1.12c-0.52-0.57-0.56-1.13-0.56-1.13s-0.05,0.56-0.56,1.13
				c-0.43,0.48-1.32,0.96-1.62,1.12c-1.38,0.77-2.32,2.24-2.32,3.94c0,2.49,2.01,4.5,4.5,4.5s4.5-2.01,4.5-4.5
				C149.75,203.06,148.81,201.58,147.43,200.81z"/>
		</g>
	</g>
	<g>
		<g>
			<path class="st6" d="M47.93,205.31c-0.3-0.16-1.18-0.65-1.62-1.12c-0.52-0.57-0.56-1.13-0.56-1.13s-0.05,0.56-0.56,1.13
				c-0.43,0.48-1.32,0.96-1.62,1.12c-1.38,0.77-2.32,2.24-2.32,3.94c0,2.49,2.01,4.5,4.5,4.5c2.49,0,4.5-2.01,4.5-4.5
				C50.25,207.56,49.31,206.08,47.93,205.31z"/>
		</g>
		<g>
			<path class="st6" d="M39.93,215.31c-0.3-0.16-1.18-0.65-1.62-1.12c-0.52-0.57-0.56-1.13-0.56-1.13s-0.05,0.56-0.56,1.13
				c-0.43,0.48-1.32,0.96-1.62,1.12c-1.38,0.77-2.32,2.24-2.32,3.94c0,2.49,2.01,4.5,4.5,4.5c2.49,0,4.5-2.01,4.5-4.5
				C42.25,217.56,41.31,216.08,39.93,215.31z"/>
		</g>
		<g>
			<path class="st6" d="M38.43,229.81c-0.3-0.16-1.18-0.65-1.62-1.12c-0.52-0.57-0.56-1.13-0.56-1.13s-0.05,0.56-0.56,1.13
				c-0.43,0.48-1.32,0.96-1.62,1.12c-1.38,0.77-2.32,2.24-2.32,3.94c0,2.49,2.01,4.5,4.5,4.5c2.49,0,4.5-2.01,4.5-4.5
				C40.75,232.06,39.81,230.58,38.43,229.81z"/>
		</g>
		<g>
			<path class="st6" d="M39.93,243.56c-0.3-0.16-1.18-0.65-1.62-1.12c-0.52-0.57-0.56-1.13-0.56-1.13s-0.05,0.56-0.56,1.13
				c-0.43,0.48-1.32,0.96-1.62,1.12c-1.38,0.77-2.32,2.24-2.32,3.94c0,2.49,2.01,4.5,4.5,4.5c2.49,0,4.5-2.01,4.5-4.5
				C42.25,245.81,41.31,244.33,39.93,243.56z"/>
		</g>
		<g>
			<path class="st6" d="M48.43,255c-0.3-0.16-1.18-0.65-1.62-1.12c-0.52-0.57-0.56-1.13-0.56-1.13s-0.05,0.56-0.56,1.13
				c-0.43,0.48-1.32,0.96-1.62,1.12c-1.38,0.77-2.32,2.24-2.32,3.94c0,2.49,2.01,4.5,4.5,4.5c2.49,0,4.5-2.01,4.5-4.5
				C50.75,257.24,49.81,255.77,48.43,255z"/>
		</g>
		<g>
			<path class="st6" d="M69.93,201.81c-0.3-0.16-1.18-0.65-1.62-1.12c-0.52-0.57-0.56-1.13-0.56-1.13s-0.05,0.56-0.56,1.13
				c-0.43,0.48-1.32,0.96-1.62,1.12c-1.38,0.77-2.32,2.24-2.32,3.94c0,2.49,2.01,4.5,4.5,4.5c2.49,0,4.5-2.01,4.5-4.5
				C72.25,204.06,71.31,202.58,69.93,201.81z"/>
		</g>
		<g>
			<path class="st6" d="M81.43,205.31c-0.3-0.16-1.18-0.65-1.62-1.12c-0.52-0.57-0.56-1.13-0.56-1.13s-0.05,0.56-0.56,1.13
				c-0.43,0.48-1.32,0.96-1.62,1.12c-1.38,0.77-2.32,2.24-2.32,3.94c0,2.49,2.01,4.5,4.5,4.5c2.49,0,4.5-2.01,4.5-4.5
				C83.75,207.56,82.81,206.08,81.43,205.31z"/>
		</g>
		<g>
			<path class="st6" d="M64.93,257.5c-0.3-0.16-1.18-0.65-1.62-1.12c-0.52-0.57-0.56-1.13-0.56-1.13s-0.05,0.56-0.56,1.12
				c-0.43,0.48-1.32,0.96-1.62,1.13c-1.38,0.77-2.32,2.24-2.32,3.94c0,2.49,2.01,4.5,4.5,4.5c2.49,0,4.5-2.01,4.5-4.5
				C67.25,259.74,66.31,258.27,64.93,257.5z"/>
		</g>
		<g>
			<path class="st6" d="M88.93,252.5c-0.3-0.16-1.18-0.65-1.62-1.12c-0.52-0.57-0.56-1.13-0.56-1.13s-0.05,0.56-0.56,1.13
				c-0.43,0.48-1.32,0.96-1.62,1.12c-1.38,0.77-2.32,2.24-2.32,3.94c0,2.49,2.01,4.5,4.5,4.5c2.49,0,4.5-2.01,4.5-4.5
				C91.25,254.74,90.31,253.27,88.93,252.5z"/>
		</g>
		<g>
			<path class="st6" d="M88.93,238.5c-0.3-0.16-1.18-0.65-1.62-1.12c-0.52-0.57-0.56-1.13-0.56-1.13s-0.05,0.56-0.56,1.13
				c-0.43,0.48-1.32,0.96-1.62,1.12c-1.38,0.77-2.32,2.24-2.32,3.94c0,2.49,2.01,4.5,4.5,4.5c2.49,0,4.5-2.01,4.5-4.5
				C91.25,240.74,90.31,239.27,88.93,238.5z"/>
		</g>
		<g>
			<path class="st6" d="M58.93,200.46c-0.3-0.16-1.18-0.65-1.62-1.12c-0.52-0.57-0.56-1.13-0.56-1.13s-0.05,0.56-0.56,1.12
				c-0.43,0.48-1.32,0.96-1.62,1.13c-1.38,0.77-2.32,2.24-2.32,3.94c0,2.49,2.01,4.5,4.5,4.5c2.49,0,4.5-2.01,4.5-4.5
				C61.25,202.71,60.31,201.23,58.93,200.46z"/>
		</g>
	</g>
</g>
<path class="st7" d="M254.25,21.71c0.03,0.04,0.07,0.07,0.1,0.11c5.36,5.88,14.22,11.16,21.34,15.11l0.36,0.2
	c14.31,7.94,23.21,23.03,23.21,39.38c0,1.37-0.07,2.82-0.21,4.29l-0.68,7.19l6.87,2.22l181.12,58.58c5.7,1.84,10.9,8.98,10.9,14.98
	v108.5c0,5.99-5.19,13.13-10.9,14.98l-217.75,70.42c-3.63,1.17-8.86,1.85-14.36,1.85c-5.49,0-10.73-0.67-14.36-1.85L22.15,287.23
	c-5.7-1.84-10.9-8.98-10.9-14.98v-108.5c0-5.99,5.19-13.13,10.9-14.98L203.27,90.2l6.87-2.22l-0.68-7.19
	c-0.14-1.47-0.21-2.92-0.21-4.29c0-16.35,8.89-31.44,23.2-39.38l0.35-0.2c7.12-3.94,15.98-9.23,21.34-15.11
	C254.18,21.78,254.22,21.74,254.25,21.71 M254.25,2.25c0,0-0.55,6.69-6.75,13.5c-5.22,5.73-15.87,11.54-19.41,13.5
	c-16.6,9.21-27.84,26.92-27.84,47.25c0,1.73,0.09,3.44,0.25,5.14L19.38,140.21c-9.42,3.05-17.13,13.64-17.13,23.54v108.5
	c0,9.9,7.71,20.49,17.13,23.54l217.75,70.42c4.71,1.52,10.92,2.28,17.13,2.28s12.42-0.76,17.13-2.28l217.75-70.42
	c9.42-3.05,17.13-13.64,17.13-23.54v-108.5c0-9.9-7.71-20.49-17.13-23.54L308,81.64c0.16-1.69,0.25-3.4,0.25-5.14
	c0-20.33-11.24-38.04-27.84-47.25c-3.54-1.96-14.19-7.77-19.41-13.5C254.8,8.95,254.25,2.25,254.25,2.25L254.25,2.25z"/>
<g>
	<path class="st7" d="M271.68,44.99l-0.35-0.2c-5.35-2.97-11.64-6.66-17.07-10.93c-5.43,4.27-11.72,7.96-17.08,10.93l-0.35,0.19
		c-11.45,6.35-18.57,18.43-18.57,31.51c0,19.85,16.15,36,36,36s36-16.15,36-36C290.25,63.42,283.13,51.34,271.68,44.99z"/>
	<path class="st8" d="M267.31,52.86l-0.35-0.19c-3.73-2.06-8.23-4.65-12.71-7.68c-4.48,3.03-8.99,5.62-12.72,7.69l-0.35,0.19
		c-8.59,4.77-13.93,13.83-13.93,23.64c0,14.89,12.11,27,27,27s27-12.11,27-27C281.25,66.69,275.91,57.63,267.31,52.86z"/>
	<path class="st6" d="M272.25,76.5c0-6.54-3.57-12.59-9.31-15.77l-0.35-0.19c-2.38-1.32-5.27-2.95-8.35-4.85
		c-3.08,1.9-5.97,3.53-8.36,4.85l-0.34,0.19c-5.73,3.18-9.3,9.22-9.3,15.77c0,9.93,8.07,18,18,18S272.25,86.43,272.25,76.5z"/>
	<path class="st9" d="M263.25,76.5c0-3.28-1.79-6.3-4.67-7.9l-0.34-0.19c-1.15-0.64-2.5-1.39-3.99-2.25c-1.49,0.86-2.84,1.61-4,2.25
		l-0.34,0.19c-2.87,1.59-4.66,4.62-4.66,7.9c0,4.96,4.04,9,9,9S263.25,81.46,263.25,76.5z"/>
</g>
</svg>
