<svg xmlns="http://www.w3.org/2000/svg" xmlns:xlink="http://www.w3.org/1999/xlink" version="1.1" x="0px" y="0px" viewBox="0 0 324 324" enable-background="new 0 0 324 324" xml:space="preserve"><style>.style0{fill:	#095380;}.style1{fill:	none;}.style10{stroke:	#231F20;stroke-miterlimit:	10;fill:	#75688B;}.style2{fill:	#719E55;}.style3{fill:	#EA4555;}.style4{fill:	#E02D3B;}.style5{fill:	#2E797D;}.style6{fill:	#75688B;}.style7{fill:	#E99138;}.style8{stroke:	#231F20;stroke-miterlimit:	10;fill:	#E99138;}.style9{stroke:	#231F20;stroke-miterlimit:	10;fill:	#719E55;}</style><g><path d="M162 18C82.5 18 18 82.5 18 162c0 79.5 64.5 144 144 144s144-64.5 144-144C306 82.5 241.5 18 162 18z M162 157.5c-23.3 0-42.2-18.9-42.2-42.2c0-23.3 18.9-42.2 42.2-42.2c23.3 0 42.2 18.9 42.2 42.2 C204.2 138.6 185.3 157.5 162 157.5c23 0 43.8 10.7 59 28.1H103C118.2 168.2 139 157.5 162 157.5z M218.2 285.9 c-17.4 7.9-36.5 12.1-56.2 12.1s-38.8-4.2-56.2-12.1v-55.3h112.5V285.9z M240.8 264.4h-12.5v-33.8v-10h-10H105.8h-10v10v33.8H83.2 l-22.5-67.5h202.5L240.8 264.4z" class="style0"/></g><g display="none"><path display="inline" d="M252 90H144v54.3l14.6-5.9c4.6-1.9 9.9 0.3 11.7 4.9c1.9 4.6-0.3 9.9-4.9 11.7l-21.4 8.7v7.2 h108V90z M243 162h-54v-9h54V162z M243 144h-63v-9h63V144z M243 126h-72v-9h72V126z M243 108h-90v-9h90V108z" class="style1"/><path display="inline" d="M162 18C82.5 18 18 82.5 18 162c0 79.5 64.5 144 144 144s144-64.5 144-144 C306 82.5 241.5 18 162 18z M111.2 288.2c-16.8-6.8-32.2-16.9-45.4-30.1c-3-3-5.9-6.2-8.6-9.4V180c0-14.9 12.1-27 27-27 c-14.9 0-27-12.1-27-27c0-14.9 12.1-27 27-27s27 12.1 27 27c0 14.9-12.1 27-27 27c7.5 0 14.2 3 19.1 7.9l55.3-22.5 c4.6-1.9 9.9 0.3 11.7 4.9c1.9 4.6-0.3 9.9-4.9 11.7l-54.3 22.1c0.1 0.9 0.1 1.9 0.1 2.8V288.2z M180 144v-9h63v9H180z M243 153v9 h-54v-9H243z M171 126v-9h72v9H171z M153 108v-9h90v9H153z M189 279v16.3c-8.8 1.8-17.8 2.7-27 2.7s-18.2-0.9-27-2.7V279 c0-14.9 12.1-27 27-27c-14.9 0-27-12.1-27-27s12.1-27 27-27c14.9 0 27 12.1 27 27s-12.1 27-27 27C176.9 252 189 264.1 189 279z M249 266.6c-15 12.5-32.4 21.6-51 26.6V279c0-14.9 12.1-27 27-27c-14.9 0-27-12.1-27-27s12.1-27 27-27s27 12.1 27 27 s-12.1 27-27 27C235.4 252 244.5 257.9 249 266.6z M261 90v90h-9H144h-9v-3.9l12.5-5.1H252V90H144v45.7l-9 3.7V90h-9v-9h144v9H261z " class="style2"/></g><g display="none"><g display="inline"><path d="M247.5 144h-27h0c-2.5 0-4.5 2-4.5 4.5s2 4.5 4.5 4.5h0h27c2.5 0 4.5-2 4.5-4.5S250 144 247.5 144z" class="style3"/><path d="M162 18C82.5 18 18 82.5 18 162c0 79.5 64.5 144 144 144s144-64.5 144-144C306 82.5 241.5 18 162 18z M145 270H99c-9.9 0-18-8.1-18-18V72c0-9.9 8.1-18 18-18h72c9.9 0 18 8.1 18 18v55h-9V81H90v162h55V270z M145 234H99v-9h46V234z M145 216H99v-9h46V216z M145 198H99v-9h46V198z M145 180H99v-9h46V180z M145 162H99v-9h46V162z M146.6 144H99V90h72v37 C159.8 127 150.3 134.1 146.6 144z M213.4 288H171v-9h60.4C225.6 282.5 219.6 285.5 213.4 288z M244.7 270H171v-9h84.2 C251.9 264.2 248.3 267.2 244.7 270z M264 252h-93v-9h100.3C269 246.1 266.5 249.1 264 252z M277.4 234H171v-9h111.6 C281 228.1 279.3 231.1 277.4 234z M297 178.6c-1.6 13-5 25.6-10.1 37.4H171v-45h126V178.6z M162 162v136c-3 0-6-0.1-9-0.3V153 c0-9.9 8.1-18 18-18h124.3c1.8 8.8 2.7 17.8 2.7 27v0H162z" class="style4"/><path d="M130.5 72h9c2.5 0 4.5-2 4.5-4.5s-2-4.5-4.5-4.5h-9c-2.5 0-4.5 2-4.5 4.5S128 72 130.5 72z" class="style3"/></g></g><g display="none"><g display="inline"><path d="M144.2 156.6c-4.4 4.2-6.6 8.9-6.8 14.3c-0.1 6 1.9 10.4 5.9 13.2c1.6 1.1 3.2 1.8 5 2.3 c1.8 0.5 4.6 0.7 8.3 0.7c3.1 0 6.6-0.9 10.6-2.6c4-1.7 7.6-3.6 10.8-5.7c3.2-2.1 6.4-4 9.6-5.7c3.3-1.7 5.8-2.5 7.5-2.5 c1.4 0.1 3.1 0.9 5.2 2.5c2.1 1.6 4 3.4 5.7 5.4c1.7 2 3.6 3.8 5.5 5.4c1.9 1.7 3.4 2.5 4.5 2.6c1.9 0.2 3.4-0.2 4.7-1.1 c1.3-0.9 2.7-2.6 4.5-5.1c1.5-2.2 2.6-4.9 3.4-8.1c0.8-3.2 1.2-6.1 1.2-8.5c0-1.2-0.1-2.4-0.4-3.6c-0.3-1.2-0.7-2.4-1.3-3.6 c-0.6-1.2-1.5-2.2-2.7-2.9c-1.2-0.8-2.6-1.1-4.2-1.1c-1.8 0-4.4 1.1-7.8 3.3c-3.4 2.2-6.9 4.5-10.4 6.7c-3.5 2.2-6.2 3.4-8.1 3.4 c-1.4 0.1-3.1-0.5-5.1-1.5c-2-1.1-4-2.4-6.1-3.9c-2.1-1.6-4.4-3.1-6.7-4.7c-2.4-1.6-5-2.9-8-3.9c-3-1.1-6-1.6-8.9-1.5 C153.9 150.4 148.6 152.5 144.2 156.6z" class="style5"/><path d="M180.6 189.4c0.5-0.2 1.3-0.8 2.5-1.9c0.2-0.1 0.4-0.3 0.8-0.7c0.4-0.3 0.7-0.6 0.8-0.7 c0.2-0.1 0.4-0.3 0.8-0.6c0.4-0.3 0.7-0.5 0.9-0.6c0.2-0.1 0.6-0.2 1-0.4c0.4-0.2 0.8-0.3 1.2-0.4c0.4-0.1 0.8-0.1 1.3-0.2 c0.5-0.1 1.1-0.1 1.6-0.1c1.4 0 2.6 0.2 3.6 0.6c0.9 0.4 1.6 0.8 1.8 1.2c0.3 0.4 0.7 1 1.1 1.8c0.5 0.9 0.9 1.4 1 1.6 c0.1 0.2 0.5 0.1 1-0.1c1.2-0.6 1.6-1.6 1.1-2.7c-1-2.5-2.1-4.2-3.1-4.9c-1.2-0.8-3.3-1.2-6.1-1.2c-2.5 0-4.4 0.3-5.7 0.8 c-1.6 0.6-3.6 2.1-6.3 4.5c-1.4 1.3-1.7 2.5-1 3.5C179.7 189.5 180.1 189.6 180.6 189.4z" class="style5"/><path d="M162 18C82.5 18 18 82.5 18 162c0 79.5 64.5 144 144 144s144-64.5 144-144C306 82.5 241.5 18 162 18z M182.3 85c2.4 1.6 5.8 3.4 10.4 5.5c4.6 2.1 8.1 3.9 10.4 5.3c1.1 0.7 2.2 1.4 3.1 2c1 0.6 2.6 1.9 4.9 3.7 c2.3 1.8 4.3 3.7 6.1 5.7c1.8 1.9 3.8 4.5 6 7.6c2.2 3.2 4.1 6.4 5.5 9.8c1.5 3.4 2.7 7.4 3.8 11.9c1 4.6 1.6 9.3 1.6 14.3 c0 8.8-1.7 16.9-5 24.5c-3.3 7.5-7.8 13.8-13.3 19c-5.6 5.1-12.1 9.1-19.5 12c-7.4 2.9-15.2 4.3-23.3 4.3c-8.1 0-16-1.5-23.5-4.6 c-7.6-3.1-14.2-7.3-19.9-12.6c-5.7-5.3-10.3-11.8-13.7-19.4c-3.4-7.6-5.1-15.7-5.1-24.3c0-4.8 0.5-9.4 1.6-13.9 c1-4.5 2.4-8.4 3.9-11.7c1.6-3.3 3.5-6.5 5.7-9.5c2.2-3 4.3-5.5 6.3-7.6c2-2 4.1-3.9 6.3-5.6c2.2-1.7 3.9-3 5.2-3.7 c1.3-0.8 2.4-1.4 3.4-2c0.8-0.4 2.1-1.1 4.1-2.1c2-1 3.4-1.8 4.4-2.3c0.9-0.5 2.2-1.3 3.9-2.4c1.6-1.1 3.3-2.2 4.9-3.5 c1.9-1.5 3.5-3.4 4.7-5.8c1.2-2.4 2-5.7 2.4-10.1C174.3 77.8 179.3 83 182.3 85z M214.2 249.8c-38.2 38.2-64.9 20.8-89.1 12.7 c-19.1-6.4-31.8 6.4-31.8 6.4l-3.6 3.6c-7.5-4.9-14.6-10.7-21-17.1c-6.5-6.5-12.2-13.5-17.1-21l3.6-3.6c0 0 12.7-12.7 6.4-31.8 c-8-24.2-25.5-50.9 12.7-89.1c38.2-38.2 89.1-63.6 89.1-63.6l6.4 6.4l-89.1 89.1c0 0 12.7 38.2 38.2 63.6 c25.5 25.5 63.6 38.2 63.6 38.2l89.1-89.1l6.4 6.4C277.8 160.7 252.4 211.6 214.2 249.8z" class="style5"/><path d="M202.6 195.1c-1.6 1.2-3.9 2.2-7 3.1c-3.1 0.9-6.6 1.4-10.5 1.4c-6.9 0-12.1-1.3-15.5-3.9 c-0.3-0.2-0.6-0.3-1-0.3c-0.6 0-1.3 0.3-2.1 1c-0.4 0.3-0.6 0.8-0.6 1.3c0 0.5 0.2 1.1 0.6 1.6c1.8 1.7 4.2 2.9 7 3.7 c2.9 0.7 5.6 1.1 8.2 1c2.6-0.1 5.3-0.2 8-0.4c2.2-0.2 4.5-0.8 6.8-1.6c2.3-0.9 4.1-1.7 5.2-2.4c1.2-0.7 1.9-1.3 2.3-1.6 c0.6-0.6 0.8-1.4 0.6-2.3C204.2 194.5 203.6 194.4 202.6 195.1z" class="style5"/></g></g><g display="none"><path display="inline" d="M162 18C82.5 18 18 82.5 18 162c0 79.5 64.5 144 144 144s144-64.5 144-144 C306 82.5 241.5 18 162 18z M203 256.8c0 3-2.5 5.5-5.5 5.5h-1v27.1c-4.2 1.1-8.5 2.1-12.9 2.8v-19.5c0-1.6-1.3-2.9-2.9-2.9 c-1.6 0-2.9 1.3-2.9 2.9v20.4c-2.3 0.3-4.7 0.5-7.1 0.6v-21c0-1.6-1.3-2.9-2.9-2.9c-1.6 0-2.9 1.3-2.9 2.9V294c-1 0-2 0-3 0 c-1.3 0-2.7 0-4-0.1v-21.2c0-1.6-1.3-2.9-2.9-2.9c-1.6 0-2.9 1.3-2.9 2.9v20.9c-2.4-0.2-4.7-0.4-7-0.7v-20.2c0-1.6-1.3-2.9-2.9-2.9 c-1.6 0-2.9 1.3-2.9 2.9v19.4c-4-0.7-8-1.6-11.9-2.6v-27.1h-1c-3 0-5.5-2.5-5.5-5.5v-8.7h82V256.8z M211.2 237.5 c0 3.6-2.9 6.6-6.6 6.6h-85.2c-3.6 0-6.6-3-6.6-6.6v-4.6h98.4V237.5z M220.2 220.9c0 4.3-3.5 7.8-7.8 7.8H111.6 c-4.3 0-7.8-3.5-7.8-7.8v-3.8h116.4V220.9z M102.7 200.3v-29l30.6-27.4l2.5 2.5v53.9H102.7z M145.3 200.3v-44.3l14.2 14.2 l18.8-17.5v47.7H145.3z M221.3 200.3h-33v-57l31-28.9l2 2.3V200.3z M227.5 109.5l-10-10l-58.1 54.1L133 127.4l-30.4 27.2l-7.8-8.7 l38.6-34.5l26.2 26.1l49.5-46.1l-9.1-9.1L237.4 72L227.5 109.5z" class="style6"/></g><g display="none"><g display="inline"><path d="M120.9 81c0-5.1 1.4-10 3.9-14.1c-7.8 4.7-12.9 13.3-12.9 23.1c0 14.9 12.1 27 27 27 c9.8 0 18.3-5.2 23.1-12.9c-4.1 2.5-8.9 3.9-14.1 3.9C133 108 120.9 95.9 120.9 81z" class="style7"/><path d="M214.4 82.6c0-9.9-8.1-18-18-18c-7.3 0-13.6 4.4-16.4 10.6c2.3-1 4.8-1.6 7.4-1.6c9.9 0 18 8.1 18 18 c0 2.6-0.6 5.1-1.6 7.4C210 96.2 214.4 89.9 214.4 82.6z" class="style7"/><path d="M162 18C82.5 18 18 82.5 18 162c0 79.5 64.5 144 144 144s144-64.5 144-144C306 82.5 241.5 18 162 18z M85.9 157.2c2.7-4.2 8.2-5.4 12.4-2.8c4.2 2.7 5.4 8.2 2.8 12.4c-2.7 4.2-8.2 5.4-12.4 2.8C84.5 166.9 83.2 161.4 85.9 157.2z M100.4 134.4c2.7-4.2 8.2-5.4 12.4-2.8c4.2 2.7 5.4 8.2 2.8 12.4c-2.7 4.2-8.2 5.4-12.4 2.8C99 144.1 97.7 138.6 100.4 134.4z M126 234c0 5-16.1 9-36 9s-36-4-36-9v-9c0 5 16.1 9 36 9s36-4 36-9V234z M126 216c0 5-16.1 9-36 9s-36-4-36-9v-9c0 5 16.1 9 36 9 s36-4 36-9V216z M126 198c0 5-16.1 9-36 9s-36-4-36-9v-9c0-5 16.1-9 36-9s36 4 36 9V198z M148.5 225c-5 0-9-4-9-9s4-9 9-9 c5 0 9 4 9 9S153.5 225 148.5 225z M175.5 225c-5 0-9-4-9-9s4-9 9-9c5 0 9 4 9 9S180.5 225 175.5 225z M180 126 c-4.8 0-9.3-1.3-13.2-3.5C162 130 153.6 135 144 135c-12.8 0-23.5-8.9-26.3-20.9c-2.8 1.8-6.1 2.9-9.7 2.9c-9.9 0-18-8.1-18-18 c0-6.7 3.7-12.5 9.1-15.6C99 82.6 99 81.8 99 81c0-12.2 8.1-22.5 19.2-25.8C121.5 44.1 131.8 36 144 36c3.7 0 7.2 0.7 10.4 2.1 c2.7-6.5 9.1-11.1 16.6-11.1c9.9 0 18 8.1 18 18c14.9 0 27 12.1 27 27c9.9 0 18 8.1 18 18c0 0.8-0.1 1.6-0.2 2.3 c5.5 3.1 9.2 8.9 9.2 15.7c0 9.9-8.1 18-18 18c-3.3 0-6.4-0.9-9-2.4c-2.6 1.5-5.7 2.4-9 2.4c-4.6 0-8.8-1.7-12-4.6 C190.7 124.3 185.6 126 180 126z M225.7 154.4c4.2-2.7 9.8-1.4 12.4 2.8s1.4 9.8-2.8 12.4c-4.2 2.7-9.8 1.4-12.4-2.8 C220.2 162.6 221.5 157.1 225.7 154.4z M220.8 146.8c-4.2 2.7-9.8 1.4-12.4-2.8c-2.7-4.2-1.4-9.8 2.8-12.4 c4.2-2.7 9.8-1.4 12.4 2.8C226.3 138.6 225 144.1 220.8 146.8z M270 234c0 5-16.1 9-36 9c-19.9 0-36-4-36-9v-9c0 5 16.1 9 36 9 c19.9 0 36-4 36-9V234z M270 216c0 5-16.1 9-36 9c-19.9 0-36-4-36-9v-9c0 5 16.1 9 36 9c19.9 0 36-4 36-9V216z M234 207 c-19.9 0-36-4-36-9v-9c0-5 16.1-9 36-9c19.9 0 36 4 36 9v9C270 203 253.9 207 234 207z" class="style7"/></g></g><g display="none"><rect x="-522.5" y="-270" display="inline" width="161" height="161" class="style0"/><rect x="-314.5" y="-270" display="inline" width="161" height="161" class="style4"/><rect x="-88.5" y="-270" display="inline" width="161" height="161" class="style5"/><rect x="150" y="-270" display="inline" width="161" height="161" class="style8"/><rect x="388" y="-270" display="inline" width="161" height="161" class="style9"/><rect x="622" y="-270" display="inline" width="161" height="161" class="style10"/></g></svg>