<?xml version="1.0" encoding="utf-8"?>
<!-- Generator: Adobe Illustrator 16.0.4, SVG Export Plug-In . SVG Version: 6.00 Build 0)  -->
<!DOCTYPE svg PUBLIC "-//W3C//DTD SVG 1.1//EN" "http://www.w3.org/Graphics/SVG/1.1/DTD/svg11.dtd">
<svg version="1.1" id="Form-Down_Arrow-Rev-F" xmlns="http://www.w3.org/2000/svg" xmlns:xlink="http://www.w3.org/1999/xlink"
	 x="0px" y="0px" width="18px" height="18px" viewBox="0 0 18 18" enable-background="new 0 0 18 18" xml:space="preserve">
<path fill="#FFFFFF" d="M13.5,6.75c-0.056,0.028-0.111,0.054-0.166,0.08c0.749-0.866,2.153-1.989,2.678-3.338
	C16.905,1.195,18,0,18,0s-3.375,2.25-9,2.25S0,0,0,0s1.095,1.195,1.988,3.492C2.513,4.841,3.917,5.964,4.667,6.83
	C4.611,6.804,4.556,6.778,4.5,6.75C2.277,5.639,0,7.64,0,10.125s1.426,3.932,4.5,4.5C6.712,15.034,7.875,18,9,18
	s2.287-2.966,4.5-3.375c3.074-0.568,4.5-2.015,4.5-4.5S15.723,5.639,13.5,6.75z"/>
</svg>
