<?xml version="1.0" encoding="utf-8"?>
<!-- Generator: Adobe Illustrator 16.0.4, SVG Export Plug-In . SVG Version: 6.00 Build 0)  -->
<!DOCTYPE svg PUBLIC "-//W3C//DTD SVG 1.1//EN" "http://www.w3.org/Graphics/SVG/1.1/DTD/svg11.dtd">
<svg version="1.1" id="Track-Site_Building_F" xmlns="http://www.w3.org/2000/svg" xmlns:xlink="http://www.w3.org/1999/xlink"
	 x="0px" y="0px" width="36px" height="36px" viewBox="0 0 36 36" enable-background="new 0 0 36 36" xml:space="preserve">
<g>
	<path fill="#445B49" d="M35.901,19.882l-1.828-1.517c0.002-0.122,0.004-0.243,0.004-0.365c0-0.122-0.002-0.243-0.004-0.364
		l1.828-1.517L33.8,15.016c-0.045-0.241-0.096-0.48-0.151-0.718l1.471-1.861l-2.282-0.641c-0.096-0.227-0.195-0.45-0.3-0.671
		L33.588,9l-2.369-0.153c-0.139-0.2-0.282-0.396-0.43-0.59l0.587-2.302l-2.351,0.344c-0.177-0.167-0.357-0.33-0.541-0.488
		l0.095-2.374l-2.225,0.824c-0.208-0.127-0.42-0.249-0.635-0.367l-0.398-2.338l-2.004,1.267c-0.23-0.081-0.464-0.156-0.699-0.227
		l-0.876-2.204l-1.698,1.658c-0.24-0.03-0.483-0.055-0.728-0.075L18,0l-1.317,1.976c-0.244,0.02-0.486,0.044-0.727,0.075
		l-1.698-1.657l-0.876,2.203c-0.235,0.07-0.468,0.146-0.699,0.227l-2.004-1.267l-0.399,2.338c-0.214,0.118-0.426,0.24-0.634,0.367
		L7.419,3.438l0.096,2.374C7.331,5.97,7.151,6.132,6.974,6.299L4.623,5.956L5.21,8.257c-0.147,0.193-0.291,0.39-0.429,0.59L2.411,9
		l1.051,2.126c-0.105,0.221-0.205,0.444-0.3,0.67L0.88,12.438l1.47,1.861c-0.056,0.237-0.106,0.476-0.151,0.717l-2.101,1.103
		l1.828,1.518C1.923,17.757,1.922,17.878,1.922,18c0,0.122,0.001,0.243,0.004,0.364l-1.828,1.518l2.101,1.103
		c0.045,0.24,0.095,0.479,0.151,0.717l-1.47,1.861l2.282,0.641c0.095,0.227,0.195,0.45,0.299,0.671L2.411,27l2.37,0.152
		c0.139,0.2,0.282,0.396,0.429,0.59l-0.587,2.302l2.351-0.343c0.176,0.166,0.357,0.329,0.541,0.487l-0.096,2.374l2.225-0.824
		c0.208,0.128,0.42,0.249,0.635,0.367l0.399,2.338l2.003-1.267c0.231,0.08,0.464,0.156,0.699,0.227l0.876,2.203l1.698-1.657
		c0.241,0.03,0.483,0.055,0.728,0.074L18,36l1.317-1.977c0.244-0.02,0.486-0.044,0.728-0.074l1.698,1.657l0.876-2.203
		c0.235-0.07,0.468-0.146,0.698-0.227l2.004,1.268l0.399-2.339c0.215-0.117,0.427-0.239,0.635-0.366l2.225,0.823l-0.096-2.373
		c0.185-0.159,0.365-0.322,0.542-0.488l2.351,0.344l-0.587-2.302c0.147-0.193,0.29-0.391,0.429-0.59L33.588,27l-1.051-2.125
		c0.104-0.222,0.204-0.445,0.299-0.672l2.283-0.641l-1.471-1.86c0.056-0.237,0.106-0.477,0.151-0.718L35.901,19.882z M18,33.379
		C9.506,33.379,2.621,26.493,2.621,18C2.621,9.506,9.506,2.621,18,2.621S33.379,9.506,33.379,18
		C33.379,26.493,26.493,33.379,18,33.379z"/>
	<path fill="#445B49" d="M23.864,4.116C22.007,3.33,20.034,2.932,18,2.932c-2.034,0-4.008,0.398-5.865,1.184
		c-1.794,0.759-3.406,1.846-4.79,3.229s-2.471,2.996-3.229,4.79C3.33,13.992,2.931,15.966,2.931,18s0.398,4.008,1.184,5.865
		c0.759,1.794,1.846,3.405,3.229,4.789c1.384,1.385,2.996,2.471,4.79,3.229c1.857,0.786,3.831,1.185,5.865,1.185
		c2.035,0,4.007-0.398,5.865-1.185c1.795-0.759,3.406-1.845,4.79-3.229c1.384-1.384,2.471-2.995,3.229-4.789
		c0.785-1.857,1.184-3.831,1.184-5.865s-0.398-4.008-1.184-5.865c-0.759-1.794-1.846-3.406-3.229-4.79S25.659,4.875,23.864,4.116z
		 M18,31.107c-7.239,0-13.107-5.869-13.107-13.107c0-7.239,5.868-13.107,13.107-13.107S31.106,10.761,31.106,18
		C31.106,25.238,25.238,31.107,18,31.107z"/>
	<path fill="#445B49" d="M21.308,15.062c-3.524-0.646-4.394-2.542-4.394-3.167c0-0.534,0.546-1.533,1.73-1.52
		c4.235,0.047,5.239,2.085,6.071,3.595h0.638l0.98-4.297c-1.158,0.091-2.446,0.495-3.123,0.924c-1.235-0.546-2.9-0.911-5.295-0.911
		c-5.23,0-8.286,3.218-8.3,5.937c-0.016,2.975,1.999,5.436,5.582,6.118c3.608,0.687,4.059,1.796,4.059,2.46
		c0,0.403-0.416,1.453-1.782,1.453c-3.513,0-5.848-2.075-6.694-3.584h-0.546l-0.813,4.312c0.989-0.286,2.134-0.871,2.719-1.326
		c1.223,0.754,2.94,1.313,6.062,1.313c5.243,0,8.353-3.424,8.353-6.377C26.554,17.988,24.523,15.651,21.308,15.062z"/>
</g>
</svg>
