<?xml version="1.0" encoding="utf-8"?>
<!-- Generator: Adobe Illustrator 16.0.4, SVG Export Plug-In . SVG Version: 6.00 Build 0)  -->
<!DOCTYPE svg PUBLIC "-//W3C//DTD SVG 1.1//EN" "http://www.w3.org/Graphics/SVG/1.1/DTD/svg11.dtd">
<svg version="1.1" id="Wordmark-Final_Color" xmlns="http://www.w3.org/2000/svg" xmlns:xlink="http://www.w3.org/1999/xlink"
	 x="0px" y="0px" width="126px" height="126px" viewBox="0 0 126 126" enable-background="new 0 0 126 126" xml:space="preserve">
<path fill="#445A48" d="M120.619,69.057l-5.885-4.883c0.009-0.391,0.016-0.781,0.016-1.174c0-0.392-0.007-0.782-0.016-1.172
	l5.885-4.884l-6.763-3.548c-0.146-0.776-0.308-1.546-0.487-2.31l4.731-5.989l-7.346-2.063c-0.305-0.729-0.627-1.448-0.964-2.159
	l3.384-6.843l-7.628-0.491c-0.446-0.644-0.907-1.276-1.382-1.898l1.89-7.409l-7.567,1.106c-0.568-0.536-1.148-1.061-1.741-1.571
	l0.308-7.64l-7.161,2.651c-0.671-0.409-1.353-0.802-2.043-1.18l-1.285-7.527l-6.449,4.08c-0.742-0.26-1.492-0.503-2.249-0.73
	l-2.821-7.092l-5.465,5.335c-0.774-0.098-1.556-0.177-2.34-0.241l-4.241-6.36l-4.24,6.36c-0.785,0.063-1.566,0.143-2.34,0.241
	l-5.465-5.335l-2.821,7.092c-0.757,0.227-1.506,0.47-2.248,0.73l-6.45-4.079l-1.285,7.526c-0.69,0.379-1.372,0.771-2.042,1.18
	l-7.162-2.65l0.309,7.64c-0.593,0.51-1.173,1.034-1.742,1.57l-7.568-1.105l1.89,7.409c-0.475,0.622-0.935,1.254-1.381,1.898
	l-7.629,0.492l3.384,6.843c-0.337,0.711-0.658,1.43-0.964,2.158l-7.346,2.064l4.731,5.989c-0.18,0.763-0.341,1.533-0.486,2.308
	l-6.764,3.55l5.885,4.883c-0.009,0.39-0.015,0.781-0.015,1.173c0,0.392,0.006,0.782,0.015,1.172l-5.885,4.884l6.763,3.55
	c0.146,0.775,0.307,1.545,0.487,2.309l-4.731,5.989l7.346,2.063c0.305,0.729,0.627,1.447,0.964,2.158l-3.384,6.844l7.628,0.491
	c0.446,0.644,0.907,1.276,1.381,1.897l-1.889,7.41l7.567-1.106c0.568,0.536,1.148,1.061,1.741,1.571l-0.308,7.639l7.161-2.65
	c0.671,0.409,1.352,0.802,2.043,1.181l1.286,7.526l6.449-4.079c0.742,0.26,1.492,0.503,2.249,0.729l2.82,7.093l5.465-5.335
	c0.775,0.098,1.556,0.177,2.341,0.24l4.24,6.36l4.24-6.36c0.784-0.063,1.565-0.143,2.34-0.24l5.466,5.335l2.82-7.092
	c0.757-0.227,1.507-0.47,2.249-0.73l6.45,4.079l1.284-7.525c0.69-0.379,1.373-0.771,2.044-1.181l7.161,2.65l-0.309-7.639
	c0.593-0.511,1.173-1.035,1.742-1.571l7.567,1.105l-1.89-7.408c0.475-0.622,0.935-1.255,1.382-1.898l7.628-0.492l-3.384-6.842
	c0.337-0.711,0.659-1.432,0.964-2.16l7.346-2.062l-4.731-5.989c0.18-0.763,0.342-1.533,0.487-2.31L120.619,69.057z"/>
<g>
	<path fill="#FFFFFF" d="M59.291,53.89v7.37c-2.116,0-3.8-0.663-4.59-1.53c-1.709,0.688-6.758,1.53-11.349,1.53
		c-10.48,0-18.488-1.912-18.488-10.328c0-8.925,7.498-11.093,18.82-11.093c3.57,0,6.579,0.434,8.084,1.556
		c2.524-0.612,6.247-1.173,10.021-1.173c0,0-1.428,2.55-2.524,4.284c-1.122,1.759-2.831,4.08-2.831,4.08h-3.672
		c0-4.412-1.76-7.676-6.987-7.676c-3.442,0-5.61,2.856-5.61,9.996c0,6.401,1.097,9.359,3.698,9.359c0.944,0,2.142-0.179,2.55-0.536
		v-5.661c0-2.729-2.244-3.239-4.539-3.239v-1.02c2.855,0,7.803,0.127,10.659,0.127s7.804-0.127,10.659-0.127v1.02
		C60.693,50.83,59.291,51.519,59.291,53.89z"/>
	<path fill="#FFFFFF" d="M99.53,45.449c-0.638,1.734-1.861,4.31-1.861,4.31H94.25c0-5.432-3.314-8.849-8.772-8.849
		c-4.055,0-5.967,2.856-5.967,9.996c0,6.401,1.785,9.206,5.381,9.206c4.411,0,12.623-1.734,11.985-8.084l1.224-0.306
		c0.281,0.918,0.408,1.479,0.408,2.499c0,5.177-6.859,7.038-15.811,7.038c-10.481,0-18.488-1.912-18.488-10.328
		c0-8.925,7.497-11.093,18.82-11.093c5.049,0,7.803,0.536,9.358,1.556c2.04-0.612,5.636-1.045,8.696-1.045
		C101.085,40.349,100.269,43.485,99.53,45.449z"/>
	<path fill="#FFFFFF" d="M46.208,86.599c-4.488,0-12.292,0.128-16.78,0.128V85.63c6.401,0,9.079-2.524,9.079-7.421V73.16
		c-2.244,0.484-5.688,0.51-7.702,0.51v-1.275c7.957,0,10.15-2.295,11.986-6.223c1.632,0,4.462,0.128,6.095,0.128
		c1.632,0,4.462-0.128,6.095-0.128c0,0-0.791,3.596-0.791,9.513c0,5.712,1.989,9.945,8.798,9.945v1.097
		C58.5,86.727,50.697,86.599,46.208,86.599z"/>
	<path fill="#FFFFFF" d="M78.644,87.16c-11.603,0-16.933-3.086-16.933-10.558c0-6.427,4.564-10.864,16.933-10.864
		c9.768,0,15.275,1.531,15.275,4.896c0,2.397-2.754,3.29-6.478,3.29c-5.406,0-7.293-1.352-7.293-3.341
		c0-1.76,1.301-3.009,4.208-3.009c0.943,0,2.167,0.204,3.188,0.561l0.127-0.51c-1.249-0.383-2.295-0.587-4.564-0.587
		c-4.718,0-6.682,3.315-6.682,9.614c0.715-1.249,3.673-2.015,8.212-2.015c7.268,0,10.914,2.244,10.914,6.248
		C95.551,85.196,89.89,87.16,78.644,87.16z M80.965,81.422c0-3.723-0.638-4.743-2.143-4.743c-1.453,0-2.397,1.021-2.397,4.743
		c0,3.545,0.638,4.718,2.143,4.718C80.124,86.14,80.965,84.967,80.965,81.422z"/>
</g>
<g>
	<polygon fill="#91998D" points="62.999,93.911 63.91,96.714 66.858,96.714 64.473,98.447 65.383,101.25 62.999,99.518 
		60.615,101.25 61.525,98.447 59.141,96.714 62.088,96.714 	"/>
	<polygon fill="#91998D" points="72.529,93.911 73.439,96.714 76.387,96.714 74.002,98.447 74.913,101.25 72.529,99.518 
		70.144,101.25 71.055,98.447 68.67,96.714 71.618,96.714 	"/>
	<polygon fill="#91998D" points="53.47,93.911 54.381,96.714 57.329,96.714 54.944,98.447 55.854,101.25 53.47,99.518 
		51.085,101.25 51.997,98.447 49.612,96.714 52.559,96.714 	"/>
</g>
<g>
	<path fill="#A1ACA3" d="M65.641,24.104c-0.619-0.386-1.203-0.538-1.787-0.923c-0.362-0.246-0.865-0.83-1.286-1.332
		c-0.082,0.806-0.327,1.133-0.607,1.367c-0.596,0.467-0.97,0.607-1.484,0.888c-0.432,0.222-2.781,1.624-2.781,4.639
		c0,3.015,2.536,5.235,5.352,5.235s5.259-2.045,5.259-5.142S66.015,24.337,65.641,24.104z"/>
	<path fill="#91998D" d="M65.639,24.103c-0.607-0.386-1.204-0.538-1.788-0.923c-0.362-0.233-0.865-0.83-1.285-1.332
		c-0.082,0.806-0.315,1.145-0.608,1.367c-0.596,0.467-0.97,0.608-1.483,0.888c-0.433,0.233-2.781,1.625-2.781,4.639
		c0,0.962,0.258,1.844,0.702,2.598c0.945,1.608,2.732,2.637,4.649,2.637c2.816,0,5.259-2.045,5.259-5.142
		c0-1.7-0.69-2.89-1.376-3.655C66.366,24.551,65.807,24.208,65.639,24.103z"/>
</g>
<g>
	<path fill="#FFFFFF" d="M63,15.75c26.095,0,47.25,21.154,47.25,47.25S89.094,110.25,63,110.25c-26.096,0-47.25-21.154-47.25-47.25
		S36.904,15.75,63,15.75 M63,14.75c-26.605,0-48.25,21.645-48.25,48.25c0,26.605,21.645,48.25,48.25,48.25
		c26.605,0,48.25-21.645,48.25-48.25C111.25,36.395,89.605,14.75,63,14.75L63,14.75z"/>
</g>
</svg>
