<?xml version="1.0" encoding="utf-8"?>
<!-- Generator: Adobe Illustrator 16.0.4, SVG Export Plug-In . SVG Version: 6.00 Build 0)  -->
<!DOCTYPE svg PUBLIC "-//W3C//DTD SVG 1.1//EN" "http://www.w3.org/Graphics/SVG/1.1/DTD/svg11.dtd">
<svg version="1.1" id="Wordmark_Final-Rev_KO" xmlns="http://www.w3.org/2000/svg" xmlns:xlink="http://www.w3.org/1999/xlink"
	 x="0px" y="0px" width="126px" height="126px" viewBox="0 0 126 126" enable-background="new 0 0 126 126" xml:space="preserve">
<g>
	<path fill="#FFFFFF" d="M63,15.75c-26.096,0-47.25,21.154-47.25,47.25S36.904,110.25,63,110.25c26.095,0,47.25-21.154,47.25-47.25
		S89.094,15.75,63,15.75z M58.922,25.378c0.507-0.598,1.044-0.974,1.355-1.161c0.081-0.05,0.151-0.09,0.196-0.114
		c0.514-0.28,0.888-0.421,1.483-0.888c0.021-0.016,0.041-0.034,0.061-0.051c0.174-0.157,0.329-0.365,0.436-0.716
		c0.049-0.167,0.088-0.361,0.112-0.601c0,0.001,0.001,0.002,0.002,0.003c0,0,0-0.001,0-0.001c0.421,0.502,0.924,1.086,1.286,1.332
		c0.072,0.048,0.145,0.092,0.218,0.134c0.511,0.291,1.029,0.449,1.558,0.782c0.004,0.003,0.008,0.005,0.012,0.007
		c0.037,0.023,0.098,0.062,0.169,0.108c0.009,0.006,0.017,0.01,0.026,0.017c0.03,0.021,0.064,0.044,0.1,0.069
		c0.017,0.011,0.031,0.021,0.049,0.034c0.036,0.025,0.073,0.054,0.113,0.083c0.02,0.015,0.038,0.029,0.059,0.045
		c0.041,0.031,0.083,0.065,0.126,0.101c0.021,0.018,0.043,0.036,0.064,0.054c0.045,0.038,0.091,0.078,0.138,0.12
		c0.021,0.02,0.044,0.041,0.066,0.062c0.049,0.045,0.098,0.091,0.147,0.141c0.021,0.021,0.041,0.042,0.062,0.063
		c0.053,0.054,0.105,0.109,0.158,0.168c0.003,0.003,0.006,0.006,0.009,0.01c0.048,0.053,0.096,0.109,0.144,0.167
		c0.029,0.035,0.058,0.071,0.086,0.108c0.052,0.065,0.104,0.133,0.154,0.204c0.026,0.038,0.053,0.077,0.079,0.116
		c0.041,0.06,0.08,0.122,0.119,0.185c0.034,0.054,0.066,0.109,0.099,0.166c0.036,0.063,0.071,0.129,0.105,0.196
		c0.029,0.057,0.058,0.115,0.086,0.175c0.035,0.076,0.069,0.154,0.103,0.235c0.02,0.049,0.04,0.098,0.06,0.149
		c0.036,0.098,0.07,0.2,0.102,0.304c0.017,0.054,0.032,0.109,0.048,0.165c0.029,0.107,0.055,0.217,0.078,0.33
		c0.012,0.058,0.021,0.117,0.032,0.177c0.019,0.111,0.035,0.226,0.048,0.343c0.007,0.065,0.012,0.132,0.017,0.198
		c0.007,0.102,0.012,0.206,0.015,0.312c0.001,0.044,0.006,0.084,0.006,0.128c0,3.097-2.442,5.142-5.259,5.142
		c-0.117,0-0.233-0.005-0.35-0.013c-0.009,0-0.019-0.001-0.027-0.002c-0.107-0.007-0.215-0.018-0.321-0.032
		c-0.008-0.001-0.016-0.002-0.025-0.003c-0.222-0.03-0.44-0.074-0.654-0.13c-0.021-0.006-0.04-0.011-0.061-0.017
		c-0.091-0.025-0.182-0.053-0.271-0.083c-0.015-0.005-0.028-0.009-0.043-0.014c-0.102-0.034-0.201-0.072-0.301-0.112
		c-0.019-0.008-0.037-0.017-0.056-0.024c-0.078-0.033-0.154-0.067-0.23-0.104c-0.029-0.014-0.058-0.028-0.086-0.042
		c-0.074-0.037-0.147-0.075-0.219-0.116c-0.02-0.011-0.041-0.021-0.06-0.033c-0.086-0.049-0.17-0.101-0.253-0.155
		c-0.031-0.021-0.062-0.042-0.093-0.062c-0.055-0.037-0.108-0.075-0.161-0.113c-0.034-0.025-0.067-0.049-0.101-0.075
		c-0.055-0.042-0.11-0.086-0.164-0.131c-0.044-0.037-0.088-0.074-0.131-0.112c-0.05-0.044-0.1-0.089-0.148-0.136
		c-0.036-0.034-0.07-0.069-0.105-0.104c-0.036-0.037-0.071-0.073-0.106-0.111c-0.035-0.038-0.07-0.076-0.105-0.115
		c-0.035-0.041-0.069-0.082-0.104-0.124c-0.057-0.069-0.112-0.14-0.166-0.211c-0.025-0.035-0.052-0.07-0.077-0.105
		c-0.034-0.048-0.067-0.098-0.1-0.147c-0.021-0.033-0.042-0.066-0.063-0.1c-0.023-0.038-0.048-0.074-0.07-0.112
		c-0.091-0.155-0.173-0.316-0.247-0.481c-0.005-0.011-0.011-0.021-0.015-0.032c-0.03-0.067-0.058-0.135-0.084-0.204
		c-0.008-0.019-0.015-0.038-0.022-0.057c-0.026-0.07-0.052-0.141-0.076-0.213c-0.002-0.009-0.005-0.017-0.008-0.026
		c-0.076-0.238-0.136-0.483-0.178-0.737c-0.002-0.01-0.004-0.02-0.005-0.029c-0.013-0.081-0.023-0.163-0.033-0.245
		c-0.001-0.013-0.002-0.025-0.004-0.039c-0.018-0.175-0.03-0.353-0.03-0.534C57.693,27.233,58.281,26.132,58.922,25.378z
		 M24.864,50.932c0-8.925,7.498-11.093,18.82-11.093c3.57,0,6.579,0.434,8.084,1.556c2.524-0.612,6.247-1.173,10.021-1.173
		c0,0-1.428,2.55-2.524,4.284c-1.122,1.759-2.831,4.08-2.831,4.08h-3.672c0-4.412-1.76-7.676-6.987-7.676
		c-3.442,0-5.61,2.856-5.61,9.996c0,6.401,1.097,9.359,3.698,9.359c0.944,0,2.142-0.179,2.55-0.536v-5.661
		c0-2.729-2.244-3.239-4.539-3.239v-1.02c2.855,0,7.803,0.127,10.659,0.127s7.804-0.127,10.659-0.127v1.02
		c-2.499,0-3.901,0.688-3.901,3.06v7.37c-2.116,0-3.8-0.663-4.59-1.53c-1.709,0.688-6.758,1.53-11.349,1.53
		C32.872,61.26,24.864,59.348,24.864,50.932z M29.428,86.727V85.63c6.401,0,9.079-2.524,9.079-7.421V73.16
		c-2.244,0.484-5.688,0.51-7.702,0.51v-1.275c7.957,0,10.15-2.295,11.986-6.223c1.632,0,4.462,0.128,6.095,0.128
		c1.632,0,4.462-0.128,6.095-0.128c0,0-0.791,3.596-0.791,9.513c0,5.712,1.989,9.945,8.798,9.945v1.097
		c-4.488,0-12.291-0.128-16.779-0.128S33.917,86.727,29.428,86.727z M55.854,101.25l-2.384-1.732l-2.385,1.732l0.911-2.803
		l-2.385-1.733h2.947l0.911-2.803l0.911,2.803h2.948l-2.385,1.733L55.854,101.25z M65.383,101.25l-2.385-1.732l-2.384,1.732
		l0.911-2.803l-2.384-1.733h2.947l0.91-2.803l0.911,2.803h2.948l-2.385,1.733L65.383,101.25z M74.913,101.25l-2.384-1.732
		l-2.385,1.732l0.911-2.803l-2.385-1.733h2.947l0.911-2.803l0.91,2.803h2.948l-2.385,1.733L74.913,101.25z M78.644,87.16
		c-11.603,0-16.933-3.086-16.933-10.558c0-6.427,4.564-10.864,16.933-10.864c9.768,0,15.275,1.531,15.275,4.896
		c0,2.397-2.754,3.29-6.478,3.29c-5.406,0-7.293-1.352-7.293-3.341c0-1.76,1.301-3.009,4.208-3.009c0.943,0,2.167,0.204,3.188,0.561
		l0.127-0.51c-1.249-0.383-2.295-0.587-4.564-0.587c-4.718,0-6.682,3.315-6.682,9.614c0.715-1.249,3.673-2.015,8.212-2.015
		c7.268,0,10.914,2.244,10.914,6.248C95.551,85.196,89.89,87.16,78.644,87.16z M99.53,45.449c-0.638,1.734-1.861,4.31-1.861,4.31
		H94.25c0-5.432-3.314-8.849-8.772-8.849c-4.055,0-5.967,2.856-5.967,9.996c0,6.401,1.785,9.206,5.381,9.206
		c4.411,0,12.623-1.734,11.985-8.084l1.224-0.306c0.281,0.918,0.408,1.479,0.408,2.499c0,5.177-6.859,7.038-15.811,7.038
		c-10.481,0-18.488-1.912-18.488-10.328c0-8.925,7.497-11.093,18.82-11.093c5.049,0,7.803,0.536,9.358,1.556
		c2.04-0.612,5.636-1.045,8.696-1.045C101.085,40.349,100.269,43.485,99.53,45.449z"/>
	<path fill="#FFFFFF" d="M78.823,76.679c-1.453,0-2.397,1.021-2.397,4.743c0,3.545,0.638,4.718,2.143,4.718
		c1.556,0,2.397-1.173,2.397-4.718C80.965,77.699,80.328,76.679,78.823,76.679z"/>
	<path fill="#FFFFFF" d="M120.619,69.057l-5.885-4.883c0.009-0.391,0.016-0.781,0.016-1.174c0-0.392-0.007-0.782-0.016-1.172
		l5.885-4.884l-6.763-3.548c-0.146-0.776-0.308-1.546-0.487-2.31l4.731-5.989l-7.346-2.063c-0.305-0.729-0.627-1.448-0.964-2.159
		l3.384-6.843l-7.628-0.491c-0.446-0.644-0.907-1.276-1.382-1.898l1.89-7.409l-7.567,1.106c-0.568-0.536-1.148-1.061-1.741-1.571
		l0.308-7.64l-7.161,2.651c-0.671-0.409-1.353-0.802-2.043-1.18l-1.285-7.527l-6.449,4.08c-0.742-0.26-1.492-0.503-2.249-0.73
		l-2.821-7.092l-5.465,5.335c-0.774-0.098-1.556-0.177-2.34-0.241l-4.241-6.36l-4.24,6.36c-0.785,0.063-1.566,0.143-2.34,0.241
		l-5.465-5.335l-2.821,7.092c-0.757,0.227-1.506,0.47-2.248,0.73l-6.45-4.079l-1.285,7.526c-0.69,0.379-1.372,0.771-2.042,1.18
		l-7.162-2.65l0.309,7.64c-0.593,0.51-1.173,1.034-1.742,1.57l-7.568-1.105l1.89,7.409c-0.475,0.622-0.935,1.254-1.381,1.898
		l-7.629,0.492l3.384,6.843c-0.337,0.711-0.658,1.43-0.964,2.158l-7.346,2.064l4.731,5.989c-0.18,0.763-0.341,1.533-0.486,2.308
		l-6.764,3.55l5.885,4.883c-0.009,0.39-0.015,0.781-0.015,1.173c0,0.392,0.006,0.782,0.015,1.172l-5.885,4.884l6.763,3.55
		c0.146,0.775,0.307,1.545,0.487,2.309l-4.731,5.989l7.346,2.063c0.305,0.729,0.627,1.447,0.964,2.158l-3.384,6.844l7.628,0.491
		c0.446,0.644,0.907,1.276,1.381,1.897l-1.889,7.41l7.567-1.106c0.568,0.536,1.148,1.061,1.741,1.571l-0.308,7.639l7.161-2.65
		c0.671,0.409,1.352,0.802,2.043,1.181l1.286,7.526l6.449-4.079c0.742,0.26,1.492,0.503,2.249,0.729l2.82,7.093l5.465-5.335
		c0.775,0.098,1.556,0.177,2.341,0.24l4.24,6.36l4.24-6.36c0.784-0.063,1.565-0.143,2.34-0.24l5.466,5.335l2.82-7.092
		c0.757-0.227,1.507-0.47,2.249-0.73l6.45,4.079l1.284-7.525c0.69-0.379,1.373-0.771,2.044-1.181l7.161,2.65l-0.309-7.639
		c0.593-0.511,1.173-1.035,1.742-1.571l7.567,1.105l-1.89-7.408c0.475-0.622,0.935-1.255,1.382-1.898l7.628-0.492l-3.384-6.842
		c0.337-0.711,0.659-1.432,0.964-2.16l7.346-2.062l-4.731-5.989c0.18-0.763,0.342-1.533,0.487-2.31L120.619,69.057z M107.457,81.781
		c-2.43,5.746-5.908,10.906-10.34,15.337c-4.431,4.431-9.591,7.909-15.336,10.34c-5.949,2.517-12.269,3.792-18.781,3.792
		c-6.514,0-12.833-1.275-18.782-3.792c-5.746-2.431-10.906-5.909-15.336-10.34s-7.91-9.591-10.34-15.337
		C16.025,75.832,14.75,69.514,14.75,63c0-6.513,1.275-12.832,3.792-18.781c2.43-5.746,5.909-10.906,10.34-15.337
		c4.431-4.431,9.591-7.909,15.336-10.34C50.167,16.026,56.486,14.75,63,14.75c6.513,0,12.832,1.276,18.781,3.792
		c5.745,2.431,10.905,5.909,15.336,10.34c4.432,4.431,7.91,9.591,10.34,15.337c2.517,5.949,3.793,12.268,3.793,18.781
		C111.25,69.514,109.973,75.832,107.457,81.781z"/>
</g>
</svg>
