<?xml version="1.0" encoding="utf-8"?>
<!-- Generator: Adobe Illustrator 16.0.4, SVG Export Plug-In . SVG Version: 6.00 Build 0)  -->
<!DOCTYPE svg PUBLIC "-//W3C//DTD SVG 1.1//EN" "http://www.w3.org/Graphics/SVG/1.1/DTD/svg11.dtd">
<svg version="1.1" id="Final-Color" xmlns="http://www.w3.org/2000/svg" xmlns:xlink="http://www.w3.org/1999/xlink" x="0px"
	 y="0px" width="162px" height="162px" viewBox="0 0 162 162" enable-background="new 0 0 162 162" xml:space="preserve">
<path fill="#1D5C83" d="M109.338,34.729c-0.068-0.36-0.141-0.716-0.221-1.065c0.08,0.349,0.149,0.706,0.218,1.065H109.338z"/>
<path fill="#1D5C83" d="M108.388,31.035c0.109,0.331,0.213,0.668,0.312,1.011C108.601,31.704,108.497,31.366,108.388,31.035z"/>
<path fill="#1D5C83" d="M108.779,32.325c0.101,0.362,0.194,0.732,0.283,1.107C108.974,33.057,108.88,32.688,108.779,32.325z"/>
<path fill="#1D5C83" d="M107.947,29.792c0.118,0.311,0.231,0.626,0.342,0.947C108.179,30.419,108.065,30.103,107.947,29.792z"/>
<g>
	<rect x="4.544" y="41.875" fill="#FFFFFF" width="152.91" height="101.463"/>
	<path fill="#445A48" d="M156.74,42.589v100.035H5.259V42.589H156.74 M158.169,41.16H3.83v102.893h154.339V41.16L158.169,41.16z"/>
</g>
<rect x="7.046" y="44.375" fill="#AAB0C5" width="147.908" height="96.461"/>
<rect x="7.046" y="44.375" fill="none" stroke="#445A48" stroke-width="1.0718" stroke-miterlimit="10" width="147.908" height="96.461"/>
<g>
	<path fill="#445A48" d="M63.146,75c-3.087,0-4.373,0.371-4.373,2.315v9.403c-3.43,0-5.401-0.686-6.545-1.572
		c-2.344,0.714-7.603,1.572-12.462,1.572c-10.289,0-16.691-1.486-21.122-5.859c-4.487-4.402-5.716-7.631-5.716-11.861
		c0-10.632,8.717-13.577,22.208-13.577c3.973,0,7.345,0.515,9.231,1.687c2.887-0.657,7.031-1.258,12.491-1.258l5.344,5.316
		c0,0-2.4,4.173-3.315,5.688c-0.029,0.029-0.257,0.4-0.257,0.429l4.516,4.544V75z M42.482,63.881c-1.744,0-3.115,0.857-3.916,2.772
		c1.915,0.029,3.916,0.057,5.431,0.085c0.2,0,0.429,0,0.629,0c-0.258-0.371-0.486-0.686-0.486-0.8
		c-0.028-0.686-0.114-1.344-0.229-1.943C43.454,63.91,42.997,63.881,42.482,63.881z"/>
	<path fill="#445A48" d="M84.666,86.718c-10.602,0-16.404-1.486-21.006-5.831c-4.401-4.202-5.831-7.631-5.831-11.89
		c0-10.661,7.459-13.577,21.293-13.577c10.287,0,16.919,1.801,21.349,6.46c3.744,3.973,5.573,7.545,5.573,12.119
		C106.045,83.574,97.271,86.718,84.666,86.718z M81.265,73.971c0,1.258,0.028,2.372,0.114,3.344c0.943-1.343,1.2-4.087,1.2-8.346
		c0-1.572,0-2.944-0.085-4.115C81.579,66.311,81.265,69.227,81.265,73.971z"/>
	<path fill="#445A48" d="M150.357,64.396c-6.288,0-7.774,2.887-10.062,7.917l-2.801,6.203c-1.657,3.687-2.772,7.745-2.772,7.745
		c-3.029,0-6.831-0.143-9.003-0.143c-2.173,0-6.002,0.143-8.889,0.143l-5.174-5.173c0,0-1.058-3.888-2.658-7.574l-2.744-6.202
		c-0.399-0.887-0.771-1.715-1.2-2.458c-0.857-0.286-1.915-0.458-3.229-0.458l-5.23-5.23v-3.258c5.173,0,12.233,0.143,16.263,0.143
		c4.03,0,11.09-0.143,15.12-0.143c2.172,0,5.945,0.143,8.117,0.143s5.945-0.143,9.031-0.143l5.231,5.23V64.396z"/>
	<path fill="#445A48" d="M57.793,103.268c-0.714,1.943-1.943,4.573-1.943,4.573h-0.6c0,0.028,0.686,0.714,0.686,0.743
		c0.629,2.144,0.8,2.858,0.8,4.115c0,6.26-8.032,9.032-18.864,9.032c-10.146,0-16.778-1.715-21.037-5.802
		c-4.258-4.059-5.802-7.146-5.802-11.919c0-10.633,8.718-13.577,22.208-13.577c5.545,0,8.746,0.629,10.661,1.658
		c2.401-0.629,6.317-1.086,10.69-1.086l5.259,5.259C59.852,96.265,58.651,101.01,57.793,103.268z M44.703,103.811
		c0-1.943-0.229-3.258-0.601-4.458c-0.943-0.286-1.972-0.458-3.115-0.458c-4.001,0-5.545,3.03-5.545,10.089
		c0,1.6,0.086,2.972,0.286,4.145c4.087-0.029,10.975-1.344,11.718-6.718L44.703,103.811z"/>
	<path fill="#445A48" d="M81.542,121.731c-10.602,0-16.404-1.486-21.006-5.831c-4.401-4.201-5.831-7.631-5.831-11.89
		c0-10.661,7.459-13.577,21.293-13.577c10.287,0,16.918,1.801,21.349,6.459c3.744,3.973,5.573,7.546,5.573,12.119
		C102.921,118.588,94.146,121.731,81.542,121.731z M78.143,108.984c0,1.258,0.028,2.373,0.114,3.344
		c0.943-1.344,1.2-4.087,1.2-8.346c0-1.572,0-2.944-0.086-4.116C78.457,101.324,78.143,104.239,78.143,108.984z"/>
	<path fill="#445A48" d="M125.242,91.006c3.744,0,8.374,0.143,11.004,0.143s7.231-0.143,10.775-0.143l5.23,5.23v3.173
		c-5.688,0-8.546,2.144-8.546,9.061v12.69c-3.087,0-6.517-0.144-8.46-0.144c-1.944,0-5.374,0.144-7.774,0.144l-13.977-13.776
		c-0.028,2.4,0.172,3.829,0.457,4.915c0.429,0.144,2.029,0.4,3.802,0.43l5.259,5.259v3.173c-3.658,0-8.089-0.144-10.604-0.144
		c-2.544,0-6.946,0.144-10.404,0.144l-5.23-5.23v-3.201c5.631,0,7.46-2.887,7.46-9.489c0-1.43-0.086-2.658-0.285-3.716
		c-0.572-0.058-1.172-0.114-1.944-0.114l-5.23-5.23v-3.173c4.316,0,9.89,0.143,13.062,0.143c3.173,0,8.718-0.143,12.291-0.143
		l3.115,2.887V91.006z M134.017,102.01c0.058-0.229,0.172-1.686-0.114-2.4c-1-0.2-1.915-0.314-2.858-0.343L134.017,102.01z"/>
</g>
<g>
	<path fill="#FFFFFF" d="M53.423,72.956v8.26c-2.372,0-4.259-0.743-5.145-1.715c-1.916,0.772-7.574,1.715-12.719,1.715
		c-11.747,0-20.722-2.144-20.722-11.576c0-10.004,8.403-12.433,21.093-12.433c4.001,0,7.374,0.486,9.061,1.744
		c2.83-0.687,7.002-1.315,11.233-1.315c0,0-1.601,2.858-2.83,4.802c-1.257,1.972-3.172,4.573-3.172,4.573h-4.116
		c0-4.945-1.972-8.603-7.832-8.603c-3.858,0-6.288,3.201-6.288,11.204c0,7.174,1.229,10.489,4.144,10.489
		c1.058,0,2.401-0.2,2.858-0.601v-6.345c0-3.059-2.515-3.63-5.087-3.63v-1.144c3.202,0,8.746,0.143,11.948,0.143
		c3.201,0,8.746-0.143,11.947-0.143v1.144C54.995,69.526,53.423,70.298,53.423,72.956z"/>
	<path fill="#FFFFFF" d="M79.801,81.216c-12.604,0-20.722-2.601-20.722-11.576c0-10.004,7.203-12.433,20.179-12.433
		c11.745,0,20.776,2.429,20.776,12.433C100.034,78.615,91.603,81.216,79.801,81.216z M83.457,69.612
		c0-8.003-1.001-11.29-3.914-11.29c-2.743,0-3.887,3.287-3.887,11.29c0,7.174,1.229,10.403,3.887,10.403
		C82.485,80.016,83.457,76.786,83.457,69.612z"/>
	<path fill="#FFFFFF" d="M121.467,80.616c-2.173,0-6.003,0.143-8.175,0.143c0,0-0.857-3.287-2.516-7.06l-2.743-6.202
		c-2.602-5.859-4.859-8.575-9.547-8.575v-1.229c4.03,0,11.09,0.143,15.12,0.143s11.09-0.143,15.119-0.143
		c2.173,0,5.945,0.143,8.118,0.143c2.172,0,5.944-0.143,8.117-0.143v1.229c-5.717,0-7.432,3.03-9.947,8.575l-2.801,6.202
		c-1.687,3.744-2.601,7.06-2.601,7.06C127.44,80.759,123.639,80.616,121.467,80.616z M123.753,63.867
		c0,1.143,0.286,2.429,0.857,3.801l4.115,9.803l4.23-9.803c0.572-1.315,0.886-2.629,0.886-3.745c0-3.029-2.058-5.001-5.116-5.001
		C125.726,58.922,123.753,60.895,123.753,63.867z"/>
	<path fill="#FFFFFF" d="M52.506,98.509c-0.715,1.943-2.086,4.83-2.086,4.83h-3.83c0-6.088-3.716-9.918-9.833-9.918
		c-4.544,0-6.688,3.201-6.688,11.204c0,7.174,2,10.318,6.03,10.318c4.945,0,14.148-1.943,13.434-9.061l1.372-0.343
		c0.314,1.029,0.457,1.657,0.457,2.801c0,5.802-7.688,7.889-17.721,7.889c-11.747,0-20.722-2.144-20.722-11.576
		c0-10.004,8.403-12.433,21.094-12.433c5.659,0,8.746,0.6,10.489,1.743c2.287-0.686,6.316-1.172,9.746-1.172
		C54.249,92.792,53.335,96.308,52.506,98.509z"/>
	<path fill="#FFFFFF" d="M77.313,116.229c-12.604,0-20.722-2.601-20.722-11.576c0-10.004,7.203-12.433,20.179-12.433
		c11.745,0,20.777,2.429,20.777,12.433C97.548,113.629,89.116,116.229,77.313,116.229z M80.971,104.625
		c0-8.003-0.999-11.29-3.914-11.29c-2.744,0-3.887,3.287-3.887,11.29c0,7.174,1.229,10.404,3.887,10.404
		C80,115.029,80.971,111.799,80.971,104.625z"/>
	<path fill="#FFFFFF" d="M131.016,115.515c-1.943,0-5.373,0.144-7.316,0.144l-15.578-15.349v3.515c0,7.002,2.716,10.69,9.519,10.69
		v1.144c-2.516,0-6.945-0.144-9.461-0.144c-2.544,0-6.945,0.144-9.489,0.144v-1.144c5.145,0,7.432-3.144,7.432-10.633
		c0-7.374-2.172-9.946-7.432-9.946v-1.143c3.173,0,8.746,0.143,11.919,0.143s8.718-0.143,11.89-0.143l13.605,12.233v-0.972
		c0-7.774-4.087-10.118-8.975-10.118v-1.143c2.629,0,7.26,0.143,9.889,0.143c2.63,0,7.231-0.143,9.861-0.143v1.144
		c-5.202,0-8.546,2.344-8.546,10.175v11.547C136.389,115.658,132.959,115.515,131.016,115.515z"/>
</g>
<g>
	<path fill="#CACDC7" d="M17.235,67.911l0.829-0.743l0.771-0.657l1-0.086l1.172-0.771l0.8-0.2l1.429-0.372l1.058-0.4l0.771-0.086
		l1.029-0.485l1.2-0.515l0.4-0.686l1.429-0.057l1.372-0.286l0.029,0.058l-1.087,0.886l-0.972,1.058l-0.8-0.143l-1.144,0.6
		l-1.029,0.458l-0.572,0.543l-1,0.572l-1.172,0.857l-0.687,0.486l-1.343,0.4l-0.715,0.714l-1,0.143l-1.086,0.171l-1.086-0.343
		l-0.028-0.058L17.235,67.911z M17.807,71.827l1.029-1.115l0.886-0.543l0.915-0.543l0.857,0.286l1.172-0.286l0.743-0.629l0.915-0.4
		l1.229-0.172l0.886-1.2l1,0.486l1.172-0.572l1.257-0.143v0.057l-0.915,0.857l-1.172,0.543l-0.286,1.057l-1.486-0.085l-0.914,0.829
		l-0.886,0.458l-0.972,0.171l-0.972,0.686l-0.343,0.857l-1,0.343l-0.972,0.343l-1.515,0.057l-0.8-0.4l-0.029-0.058L17.807,71.827z
		 M18.664,63.996l0.572-0.629l0.972-1.4l1.086-0.458l1.2,0.058l0.4-0.543l1.515-0.372l0.715-0.2l1.372-0.629l0.629-0.4l1.057-0.286
		l1.543-0.314l0.029,0.086l-1.257,0.972l-0.858,0.629l-0.743,0.2l-1.343,0.657l-0.629,0.429l-1.258,0.915l-0.657-0.058l-0.715,0.972
		l-1.086,0.515l-1.2,0.886l-1.029-0.371l-1.143-0.229l-0.029-0.029L18.664,63.996z M20.608,74.514l0.8-0.714l0.857-0.857
		l1.115-0.057l1.171-0.114l0.572-0.429l1.658-0.172l0.572-0.314l1.286-0.629l1.229-0.143l0.029,0.057l-0.886,0.858l-1.343,0.6
		l-0.572,0.229L25.896,74l-0.686,0.171l-0.857,0.8L23.609,75.8l-1.229,0.086l-1.058,0.172l-1.172-0.372l-0.028-0.028L20.608,74.514z
		 M25.152,76.286l0.657-0.715l1.315-0.114l1.114-0.028l0.743-0.372l1.372-0.085l0.028,0.085l-0.943,1.001l-0.743,0.314L27.954,77.2
		l-1.343,0.058h-1l-0.8,0.372v-0.057L25.152,76.286z M41.187,73.256l1.057-1.086l0.715-0.629l0.771-0.143l1.229,0.143l0.771-0.371
		l1.144-0.572l1.343,0.114l0.628-0.572l1.286-0.257l0.058,0.057l-0.801,1.344l-0.657,0.515l-1.229,0.143l-1.172,0.515l-0.772,0.371
		l-0.686,1.058l-0.601,0.458l-0.942,0.171L41.816,74.6l-0.829-0.372l-0.029-0.085L41.187,73.256z M41.216,77.4l1.143-0.886
		l0.514-0.372l1.258-0.743l0.771,0.115l1.115-0.229l1.2-0.6l0.771-0.114l1.001-0.687l1-0.371l1.258-0.058l0.028,0.058l-0.857,0.943
		L49.476,75l-1.143,0.314l-0.572,0.514l-1.229,0.543l-0.915,0.714l-0.771-0.143l-1.286,0.629l-0.601,0.229l-1.343,0.515
		l-0.629,0.028l-0.029-0.086L41.216,77.4z M48.247,61.823l1.057-0.4l1.486-0.114l0.029,0.085l-1.001,1.115l-1.028,0.514l-1.058-0.2
		l-0.029-0.029L48.247,61.823z"/>
	<path fill="#CACDC7" d="M61.508,67.54l0.943-1.429l0.771-0.429l0.743-0.257l1.258-0.171l0.743-0.115l0.914-0.428l1.315-0.343
		l0.714-0.2l1.315-0.457l0.857-0.686l0.686-0.171l0.972-0.429l1.372-0.2v0.057l-1.029,0.915l-0.943,0.486l-0.572,0.4l-1.086,0.2
		l-1.172,0.715l-0.629,0.429l-1.086,0.771l-0.915,0.429l-0.6,0.515l-0.943,0.829l-0.657,0.4l-0.829,0.343l-1.687-0.2l-0.743-0.229
		l-0.028-0.058L61.508,67.54z M62.165,71.056l0.657-1.115l0.743-0.343l1-0.314l1.086-0.343l0.972-0.343l1.086-0.114l0.515-0.4
		l1.258-0.058l0.8-0.485l0.686-0.772l1.257-0.057l1.401-0.229l0.029,0.028l-1.086,0.943l-0.829,0.915l-1.058,0.057l-0.886,0.286
		l-0.829,0.915L68.31,69.77l-0.771,0.743l-0.886,0.543l-0.972,0.6l-0.886,0.572L64.08,72.57l-1.314-0.2l-1.086-0.257l-0.029-0.058
		L62.165,71.056z M63.165,63.253l0.543-0.629l1-1.115l1.029-0.457l1.058-0.114l0.486-0.229l1.314-0.629l0.687-0.143l1.257-0.715
		l0.686-0.171l1.486-0.2l0.028,0.057l-1.114,0.972l-0.572,0.429l-1.343,0.486l-0.572,0.429l-1.315,0.628l-0.486,0.229l-0.772,0.714
		l-1.029,0.486l-1.143,0.8l-0.771,0.114l-1.201-0.486l-0.028-0.058L63.165,63.253z M63.966,73.885l1.086-0.257l0.857-0.686
		l1.115-0.286l1.201-0.286l0.829-0.571l1.343-0.258l0.629-0.285l0.8-1.486l1.772,0.714l0.029,0.085l-0.572,1.858l-1.629-0.343
		l-0.657,0.286l-1.029,0.857l-0.972,0.286l-1,0.743l-0.943,0.657l-1.086,0.229L64.852,75.8l-1.086-0.629l-0.028-0.057L63.966,73.885
		z M68.082,75.4l0.743-0.314l1.772,0.143L71.197,75l1.172-0.372l1.6-0.286l0.029,0.085l-1.229,1.087l-1.029,0.628l-0.572,0.314
		l-1.629,0.172l-0.657,0.515l-0.943,0.114L67.91,77.2L68.082,75.4z M84.886,76.515l0.429-0.543l1.058-0.743l1.258-0.257l0.657-0.4
		l1-0.258l1.086-0.457l1.2-0.2l0.658-0.429h1.028l1.144-0.686l0.743-0.601l0.972-0.372l1.486-0.171l0.028,0.086l-1.058,1.029
		l-0.914,0.514l-0.943,0.2l-1.286,0.429l-0.657,0.771l-0.743,0.258l-0.915,0.771l-1.058,0.515l-0.829,0.629l-0.743,0.257l-1,0.772
		l-1.229,0.343l-0.687-0.029l-1.258-0.229l-0.057-0.057L84.886,76.515z M84.771,59.823l1.715-0.229h0.972l1.429-0.229l0.058,0.058
		l-1.115,0.943L87.2,61.08l-1.314,1.201L84.8,61.338l-0.028-0.058V59.823z M85.715,72.313l0.714-0.915l0.801-0.429l1.286-0.343
		l1.029-0.343l0.886-0.257l1.4-0.343l0.743-0.629l0.943-0.8l1.028,0.286l1.001-0.886l0.828-0.2l1.372-0.171l0.029,0.085
		l-1.001,0.972l-0.686,0.514l-1.315,0.2l-0.429,0.972l-1.229,0.2l-0.943,0.171l-1.172,0.829L90.23,71.77l-0.915,0.572l-1.086,0.743
		l-0.857,0.343l-1.144-0.028l-0.914-0.229v-0.028L85.715,72.313z M85.571,64.024l0.915-1.115l0.914-0.343l1.372,0.172l0.4-0.829
		l1.601,0.2l0.343-0.857l1.058,0.114l1.601-0.257v0.057l-1.2,1.058l-0.572,0.886l-0.886-0.285l-0.886,1.372l-0.887-0.229
		l-0.742,1.143l-0.857,0.486l-1.43-0.029l-0.943-0.486l-0.028-0.029L85.571,64.024z M85.8,67.911l0.857-1.143l0.743-0.343
		l0.829-0.171l1.429-0.286l0.572-0.229l1.4-0.372l0.629-0.143l1.144-0.171l1.057-0.829l0.687-0.286l1.429-0.086l0.028,0.029
		l-1,1.058l-0.657,0.314l-1.314,0.314l-0.857,0.743l-0.515,0.4l-1.172,0.829l-0.571,0.286l-1.115,0.915l-0.686,0.515l-0.715,0.343
		l-1.458-0.057l-1-0.458l-0.028-0.085L85.8,67.911z"/>
	<path fill="#CACDC7" d="M107.464,60.509l0.686-0.543l1.658-0.143l1.344-0.143l1.057-0.429l1.201-0.257l0.028,0.057l-0.972,0.714
		l-1.029,0.543l-0.942,0.943l-1.201,1.2l-0.857,0.172l-1.372-0.629l-0.028-0.028L107.464,60.509z M108.864,64.024l0.829-1.058
		l1.086-0.515l1-0.057l1.029-0.628l1.058-0.314l1.086-0.229l1.001-0.486l1.114-0.171l0.886-0.486l0.973-0.429l0.657-0.4l1.571-0.257
		l0.029,0.028l-1.201,1.058l-0.743,0.229l-0.943,0.486l-0.972,0.343l-0.828,0.743l-1.001,0.457l-0.886,0.715l-0.915,0.571
		l-1.143,0.4l-0.715,0.714l-1.086,0.515l-1.344-0.029l-0.886-0.286l-0.028-0.057L108.864,64.024z M110.15,66.854l1.029-0.743
		l0.715-0.4l1.114-0.458l1.314-0.229l0.743-0.343l1.086-0.371l1.229-0.2l1.086-0.601l0.887-0.571l1.429-0.2l0.057,0.086
		l-1.058,0.972l-1,0.314l-1.2,0.457l-0.943,0.829l-0.972,0.571l-0.743,0.343l-1.001,0.857l-1.086,0.572l-0.771,0.285l-1.229,0.315
		l-0.973-0.429l-0.028-0.028L110.15,66.854z M111.723,69.855l0.601-1.143l1.229-0.2l1.058-0.057l1-0.314l1.344-0.4l0.829-0.314
		l1.2-0.829l0.657-0.229l1.572-0.229l0.028,0.085l-1.172,1.086l-0.601,0.371l-1.4,0.372l-0.743,0.458l-1.172,0.743l-0.886,0.6
		l-0.743,0.772l-0.943,0.8l-1.257-0.286l-1.144-0.229v-0.057L111.723,69.855z M112.809,73.113l0.915-1.2l1.086-0.086l1.144-0.629
		l0.714-0.143l1.001-1.029l1.4,0.372l0.914-0.486l0.772-0.343l1.629-0.343l0.057,0.085l-1.314,1.029l-0.771,0.4l-0.943,0.372
		l-0.629,1.286l-1.429,0.114l-0.571,0.458l-1.229,0.485l-0.743,0.743l-1.515-0.057l-0.829-0.2v-0.058L112.809,73.113z
		 M114.238,75.829l0.543-0.714l1.429-0.429l0.629-0.314l1.058-0.114l1.543-0.572l0.572-0.229l0.914-1l1.572,0.028l1.172-0.229
		l0.028,0.057l-0.943,0.743l-1,1.229l-1.343,0.057l-0.544,0.286l-1.429,0.829l-0.743,0.715l-0.657,0.285l-1.258,0.829l-0.886-0.057
		L113.638,77l-0.028-0.057L114.238,75.829z M119.726,76.2l1-0.229L121.897,76l0.629-0.257l1.344-0.343l1.086-0.143l0.028,0.086
		l-0.8,0.743l-1.144,0.8L122.47,77.2l-1.201-0.085l-0.828,0.629l-0.973,0.143l-0.028-0.029L119.726,76.2z M134.931,59.651
		l0.344-0.629l1.371-0.028l0.029,0.028l-0.915,1.029l-0.714-0.144l-0.715,0.2V60.08L134.931,59.651z"/>
	<path fill="#CACDC7" d="M15.191,102.867l1.029-1.486l0.829-0.429l0.772-0.286l1.314-0.2l0.829-0.143l0.972-0.458l1.372-0.343
		l0.771-0.229l1.372-0.486l0.915-0.714l0.714-0.2l1.058-0.458l1.429-0.229l0.029,0.028l-1.115,0.973l-1,0.514l-0.629,0.4
		l-1.144,0.257l-1.257,0.743l-0.658,0.429l-1.172,0.829l-0.972,0.458l-0.629,0.542l-1,0.886l-0.715,0.4l-0.857,0.371l-1.801-0.2
		l-0.771-0.2l-0.028-0.057L15.191,102.867z M16.021,106.354l0.686-1.172l0.772-0.314l1.029-0.314l1.144-0.372l1-0.343l1.115-0.143
		l0.543-0.429l1.286-0.057l0.829-0.515l0.743-0.771l1.286-0.085l1.458-0.258l0.029,0.057l-1.143,0.944l-0.886,0.942l-1.086,0.058
		l-0.914,0.314l-0.886,0.943l-0.658,0.143l-0.829,0.771l-0.886,0.543l-1.029,0.628l-0.915,0.572l-0.743,0.4l-1.343-0.229
		l-1.115-0.257l-0.028-0.028L16.021,106.354z M16.849,98.552l0.572-0.629l1.058-1.172l1.086-0.457l1.115-0.144l0.514-0.257
		l1.401-0.629l0.714-0.2l1.315-0.743l0.857,0.057l1.429-0.486l0.028,0.086l-1.2,1l-0.601,0.428l-1.429,0.543l-0.601,0.429
		l-1.372,0.657l-0.543,0.257l-0.8,0.743l-1.058,0.543l-1.229,0.829l-0.829,0.085l-1.257-0.458V98.98L16.849,98.552z M17.964,109.613
		l1.258-0.829l0.571-0.629l1-0.429l0.972-0.229l1.143-0.143l0.943-0.257l1.001-0.343l0.6-0.314l1.286-0.687l1.115-0.114l0.028,0.086
		l-0.771,0.8l-1.372,0.543l-0.629,0.257l-0.915,0.543l-0.8,0.572l-0.829,0.772l-0.8,0.6l-0.972,0.515l-0.857,0.028l-1.429,0.429
		l-0.743-0.343l-0.028-0.028L17.964,109.613z M22.337,110.471l1.086,0.543l1.258-0.857l1.229,0.057l1.201-0.486l1.229-0.229
		l0.029,0.115l-0.943,0.771l-1.144,0.6l-0.771,1.001l-1.43,0.399l-0.943-0.229l-1.029,0.344l-0.028-0.058L22.337,110.471z
		 M47.803,95.007l0.772-0.114l2.144,0.086l0.028,0.085l-1.286,1.715l-0.571,0.515l-1.658-0.6l-0.028-0.029L47.803,95.007z"/>
	<path fill="#CACDC7" d="M59.206,102.553l0.943-1.429l0.772-0.429l0.743-0.257l1.257-0.171l0.743-0.114l0.915-0.429l1.314-0.344
		l0.715-0.199l1.314-0.458l0.857-0.686l0.686-0.171l0.972-0.429l1.372-0.201v0.058l-1.029,0.915l-0.943,0.485l-0.572,0.4l-1.086,0.2
		l-1.172,0.714l-0.629,0.429l-1.086,0.771l-0.915,0.429l-0.601,0.515l-0.943,0.829l-0.658,0.4l-0.829,0.343l-1.686-0.201
		l-0.743-0.229l-0.029-0.057L59.206,102.553z M59.864,106.068l0.658-1.114l0.743-0.343l1-0.314l1.086-0.343l0.972-0.343l1.086-0.114
		l0.514-0.4l1.258-0.057l0.8-0.486l0.686-0.771l1.258-0.057l1.4-0.229l0.028,0.029l-1.086,0.943l-0.829,0.915l-1.058,0.057
		l-0.886,0.286l-0.829,0.915l-0.657,0.143l-0.771,0.743l-0.886,0.543l-0.972,0.601l-0.886,0.571l-0.714,0.343l-1.315-0.2
		l-1.086-0.258l-0.028-0.057L59.864,106.068z M60.864,98.266l0.543-0.629l1-1.114l1.029-0.457l1.058-0.115l0.486-0.229l1.315-0.629
		l0.686-0.143l1.258-0.714l0.686-0.171l1.486-0.2l0.029,0.057l-1.115,0.972l-0.571,0.429l-1.344,0.485l-0.571,0.429l-1.315,0.629
		l-0.486,0.229l-0.771,0.715l-1.029,0.485l-1.143,0.801l-0.772,0.114l-1.2-0.486l-0.028-0.057L60.864,98.266z M61.665,108.898
		l1.086-0.257l0.857-0.686l1.115-0.286l1.2-0.285l0.829-0.572l1.344-0.257l0.628-0.286l0.8-1.486l1.772,0.715l0.029,0.086
		l-0.572,1.857l-1.629-0.343l-0.657,0.286l-1.029,0.857l-0.972,0.286l-1,0.743l-0.943,0.658l-1.086,0.229l-0.886,0.656l-1.086-0.628
		l-0.029-0.058L61.665,108.898z M65.78,110.413l0.743-0.314l1.772,0.144l0.6-0.229l1.172-0.372l1.601-0.285l0.028,0.086
		l-1.229,1.086l-1.029,0.629l-0.571,0.314l-1.629,0.172l-0.658,0.514l-0.943,0.114l-0.029-0.057L65.78,110.413z M82.584,111.527
		l0.429-0.543l1.058-0.742l1.258-0.258l0.657-0.4l1-0.257l1.087-0.458l1.2-0.2l0.657-0.429h1.029l1.143-0.686l0.743-0.6l0.973-0.372
		l1.486-0.172l0.028,0.086l-1.058,1.029l-0.915,0.515l-0.943,0.2l-1.286,0.429l-0.657,0.772l-0.743,0.257l-0.914,0.772l-1.058,0.514
		l-0.829,0.629l-0.743,0.258l-1,0.771l-1.229,0.343l-0.686-0.028l-1.258-0.229l-0.058-0.058L82.584,111.527z M82.47,94.836
		l1.715-0.229h0.972l1.43-0.229l0.057,0.057l-1.114,0.943l-0.629,0.714l-1.314,1.201l-1.086-0.943l-0.029-0.057V94.836z
		 M83.413,107.326l0.715-0.915l0.8-0.429l1.286-0.343l1.029-0.343l0.886-0.257l1.4-0.343l0.743-0.629l0.943-0.8l1.029,0.286l1-0.886
		l0.829-0.2l1.372-0.171l0.028,0.085l-1,0.972l-0.687,0.514l-1.314,0.2l-0.429,0.972l-1.229,0.2l-0.943,0.172l-1.171,0.829
		l-0.772,0.543l-0.914,0.572l-1.086,0.743l-0.857,0.343l-1.144-0.029l-0.915-0.229v-0.028L83.413,107.326z M83.271,99.037
		l0.914-1.114L85.1,97.58l1.372,0.171l0.4-0.829l1.6,0.2l0.344-0.858l1.057,0.115l1.602-0.257v0.057l-1.201,1.057l-0.571,0.887
		l-0.886-0.286l-0.887,1.372l-0.886-0.229l-0.743,1.143l-0.857,0.486l-1.43-0.028l-0.942-0.486l-0.028-0.029L83.271,99.037z
		 M83.499,102.925l0.857-1.144l0.743-0.343l0.829-0.172l1.429-0.286l0.571-0.229l1.4-0.372l0.629-0.143l1.144-0.171l1.058-0.829
		l0.686-0.285l1.43-0.086l0.028,0.028l-1,1.058l-0.657,0.314l-1.315,0.314l-0.857,0.743l-0.515,0.4l-1.172,0.829l-0.571,0.286
		l-1.114,0.915l-0.687,0.514l-0.714,0.343l-1.458-0.057l-1-0.457l-0.029-0.086L83.499,102.925z"/>
	<path fill="#CACDC7" d="M106.905,112.643l1.029-1l1.229,0.199l0.029,0.058l-0.629,1.086l-1.43,0.114l-0.743,0.086l-0.028-0.028
		L106.905,112.643z M109.106,95.693l0.686-0.257l1.315-0.457l1.114-0.286h1.115l0.399-0.429l1.572-0.257l0.028,0.058l-1.229,1.028
		l-0.572,0.029l-0.714,0.858l-0.943,0.657l-1.172,0.714l-0.657,0.372l-1.258-0.629l-0.028-0.057L109.106,95.693z M112.136,98.438
		l0.687-0.572l1.143-0.658l1.029-0.229l1.058-0.257l0.972-0.429l0.857-0.572l1.086-0.028l0.943-0.371l0.571-0.515l1.4-0.458
		l1.059-0.171l0.028,0.085l-0.801,0.658l-1.258,0.8l-0.771,0.114l-0.886,0.486l-0.715,0.8l-1,0.314l-0.943,0.429l-0.857,0.657
		l-0.857,0.658l-1.229,0.457l-0.886,0.143l-1-0.314l-0.029-0.057L112.136,98.438z M114.794,100.781l0.629-0.486l1.086-0.657
		l0.629-0.429h1.258l1.058-0.629l0.771-0.143l1.114-0.172l1.087-0.343l0.942-0.771l0.943-0.315l1.315-0.2l0.057,0.114l-1,0.915
		l-0.857,0.486l-1.201,0.229l-0.972,0.629l-0.8,0.715l-0.629,0.514l-1.144,0.4l-0.829,0.972l-0.743,0.2l-1.171,0.4l-0.801,0.171
		l-1.114-0.4l-0.029-0.057L114.794,100.781z M117.224,103.524l0.857-1.257l1.258,0.028l0.943-0.515l1.086-0.2l0.714-0.343
		l0.858-0.286l1.028-0.343l0.857-0.715l1.001-0.143l1.229-0.372l1.314-0.229v0.058l-1,0.857l-1.086,0.686l-0.743,0.686l-1.086,0.171
		l-0.943,0.572l-0.771,0.486l-0.743,0.314l-0.829,0.714l-1.001,0.4l-0.8,0.972l-1.486-0.143l-0.914-0.4l-0.029-0.057
		L117.224,103.524z M119.938,105.726l0.715-0.314l0.886-0.943l1.286,0.086l1.229-0.286l0.715-0.6l1.171-0.258l0.486-0.6l1.486-0.029
		l0.857-0.6l1.172-0.314l1.114-0.229l0.029,0.057l-0.915,0.686l-0.972,0.686l-1,0.286l-1.001,1.114h-0.771l-0.943,0.715
		l-0.914,0.171l-1.001,0.743l-0.771,1.057l-1.286,0.058l-0.715,0.372l-1.286-0.515l-0.028-0.028L119.938,105.726z M122.254,108.727
		l1.001-0.972l1.171-0.515l0.486-0.429l1.314,0.029l1.029-0.6l1.258-0.486l1.143-0.114l0.973-0.543l0.628-0.343l1.372-0.515
		l1.172-0.143l0.029,0.085l-0.858,0.772l-1.285,0.714l-0.658,0.258l-1.058,0.429l-0.8,0.8l-1.2,0.629l-1.115,0.4l-0.829,1.029
		l-0.628,0.085l-1.144,0.572l-1.4,0.171l-0.801-0.4l-0.028-0.057L122.254,108.727z M124.912,111.356l0.715-0.743l1.314-0.715
		l0.972-0.543l0.715-0.028l1.2-0.4l0.571-0.857l1.658,0.114l0.857-0.343l1.028-0.515l0.801-0.286l1.229-0.515l1.2-0.257l0.028,0.086
		l-0.972,0.743l-1.172,0.6l-0.743,0.429l-1.058,0.457l-0.828,0.429l-0.973,1.343l-1-0.085l-1.086,0.657l-0.486,0.515l-1.058,0.399
		l-1.372,0.543l-1.028,0.058l-0.829-0.258l-0.028-0.028L124.912,111.356z M130.714,112.385l0.857-1.2l1.115-0.629l1.058,0.343
		l1.343-0.343l0.743-0.657l1.458,0.029l0.028,0.085l-0.886,1.172l-0.972,0.144l-1.115,0.8l-0.457,1.029l-1.743-0.743l-1.058,0.743
		l-0.601,0.028l-0.028-0.057L130.714,112.385z M137.316,94.493l0.972-0.144l1.115-0.343l0.028,0.029l-0.829,1l-0.485,1.143
		l-1.058-1.029l-0.029-0.029L137.316,94.493z"/>
</g>
<g>
	<g>
		<path fill="#91998D" d="M147.314,43.299c0-2.792-1.771-5.073-5.732-5.073c-0.166,0-0.315,0.03-0.48,0.045
			c0.359-0.946,1.456-2.176,2.881-2.236v-0.24H17.972v0.24c1.44,0.06,2.536,1.306,2.896,2.251c-0.181-0.015-0.33-0.045-0.48-0.045
			c-3.947,0-5.733,2.281-5.733,5.072s1.561,5.043,5.733,5.043c0.15,0,0.33-0.015,0.495-0.015c-0.36,0.916-1.471,2.176-2.911,2.236
			v0.226h126.011v-0.226c-1.425-0.06-2.551-1.32-2.881-2.251c0.149,0,0.314,0.03,0.48,0.03
			C145.754,48.356,147.314,46.09,147.314,43.299z"/>
		<path fill="#91998D" d="M151.028,141.585c0-5.184-3.288-9.42-10.646-9.42c-0.307,0-0.585,0.056-0.892,0.084
			c0.669-1.756,2.703-4.041,5.351-4.152v-0.446H17.177v0.446c2.675,0.111,4.709,2.425,5.378,4.181
			c-0.334-0.028-0.613-0.084-0.892-0.084c-7.329,0-10.646,4.235-10.646,9.419s2.898,9.364,10.646,9.364
			c0.279,0,0.613-0.028,0.92-0.028c-0.669,1.7-2.731,4.041-5.407,4.152v0.418h127.665v-0.418c-2.647-0.111-4.737-2.452-5.351-4.181
			c0.278,0,0.585,0.057,0.892,0.057C148.131,150.977,151.028,146.768,151.028,141.585z"/>
	</g>
	<g>
		<g>
			<path fill="#445A48" d="M147.314,43.299c0-2.792-1.771-5.073-5.732-5.073c-0.166,0-0.315,0.03-0.48,0.045
				c0.359-0.946,1.456-2.176,2.881-2.236v-0.24H17.972v0.24c1.44,0.06,2.536,1.306,2.896,2.251c-0.181-0.015-0.33-0.045-0.48-0.045
				c-3.947,0-5.733,2.281-5.733,5.072s1.561,5.043,5.733,5.043c0.15,0,0.33-0.015,0.495-0.015c-0.36,0.916-1.471,2.176-2.911,2.236
				v0.226h126.011v-0.226c-1.425-0.06-2.551-1.32-2.881-2.251c0.149,0,0.314,0.03,0.48,0.03
				C145.754,48.356,147.314,46.09,147.314,43.299z M20.388,46.45c-1.696,0-3.092-0.945-3.092-3.122c0-2.131,1.396-3.137,3.092-3.137
				c0.285,0,0.541,0.06,0.78,0.12c-1.351,0.331-2.356,1.561-2.356,3.017s1.006,2.686,2.356,3.016
				C20.928,46.405,20.673,46.45,20.388,46.45z M21.138,44.604c-0.841,0-1.275-0.525-1.275-1.291c0-0.811,0.45-1.291,1.275-1.291
				c0.87,0,1.321,0.466,1.321,1.291C22.459,44.154,21.994,44.604,21.138,44.604z M139.525,43.299c0-0.826,0.45-1.291,1.291-1.291
				c0.84,0,1.29,0.48,1.29,1.291c0,0.78-0.42,1.291-1.29,1.291C139.991,44.589,139.525,44.139,139.525,43.299z M140.801,46.33
				c1.351-0.33,2.356-1.561,2.356-3.017s-1.006-2.687-2.356-3.017c0.256-0.06,0.48-0.12,0.766-0.12c1.726,0,3.122,1.006,3.122,3.137
				c0,2.176-1.396,3.122-3.122,3.122C141.281,46.436,141.057,46.39,140.801,46.33z"/>
			<path fill="#445A48" d="M151.028,141.585c0-5.184-3.288-9.42-10.646-9.42c-0.307,0-0.585,0.056-0.892,0.084
				c0.669-1.756,2.703-4.041,5.351-4.152v-0.446H17.177v0.446c2.675,0.111,4.709,2.425,5.378,4.181
				c-0.334-0.028-0.613-0.084-0.892-0.084c-7.329,0-10.646,4.235-10.646,9.419s2.898,9.364,10.646,9.364
				c0.279,0,0.613-0.028,0.92-0.028c-0.669,1.7-2.731,4.041-5.407,4.152v0.418h127.665v-0.418c-2.647-0.111-4.737-2.452-5.351-4.181
				c0.278,0,0.585,0.057,0.892,0.057C148.131,150.977,151.028,146.768,151.028,141.585z M21.664,147.438
				c-3.149,0-5.741-1.757-5.741-5.797c0-3.958,2.591-5.824,5.741-5.824c0.529,0,1.003,0.111,1.449,0.223
				c-2.508,0.613-4.375,2.898-4.375,5.602s1.868,4.988,4.375,5.601C22.667,147.354,22.193,147.438,21.664,147.438z M23.058,144.009
				c-1.561,0-2.369-0.976-2.369-2.396c0-1.505,0.836-2.396,2.369-2.396c1.616,0,2.452,0.864,2.452,2.396
				C25.51,143.173,24.646,144.009,23.058,144.009z M136.565,141.585c0-1.533,0.836-2.397,2.396-2.397s2.396,0.893,2.396,2.397
				c0,1.448-0.78,2.396-2.396,2.396C137.429,143.981,136.565,143.146,136.565,141.585z M138.934,147.214
				c2.509-0.613,4.375-2.898,4.375-5.602s-1.866-4.988-4.375-5.602c0.475-0.111,0.893-0.223,1.422-0.223
				c3.204,0,5.796,1.867,5.796,5.824c0,4.041-2.592,5.797-5.796,5.797C139.826,147.409,139.408,147.325,138.934,147.214z"/>
		</g>
		<g>
			<path fill="#FFFFFF" d="M34.994,38.977c-1.261,0-3.451,0.06-4.697,0.06c-1.261,0-3.437-0.06-4.697-0.06v0.465
				c2.011,0,2.731,0.961,2.731,3.557c0,3.017-0.766,4.157-2.731,4.157v0.466c1.306,0,3.602-0.045,4.907-0.045
				s3.602,0.045,4.908,0.045c3.602,0.03,6.843-1.306,6.843-4.578C42.258,39.892,39.692,39.006,34.994,38.977z M33.419,47.155v-7.714
				c1.771,0,3.332,0.766,3.332,3.557C36.75,45.895,35.685,47.155,33.419,47.155z"/>
			<path fill="#FFFFFF" d="M63.231,47.155c-0.991,0-1.561-0.9-2.056-1.951c-0.48-1.021-1.246-1.786-2.506-1.786v-0.21
				c1.051,0,2.626-0.345,2.626-1.966c0-1.741-2.026-2.221-6.378-2.221H44.742v0.42c2.071,0,2.792,1.606,2.792,3.557
				c0,1.801-0.675,4.157-2.792,4.157v0.466c1.351,0,3.737-0.045,5.087-0.045c1.351,0,3.722,0.045,5.073,0.045v-0.466
				c-1.666,0-2.326-0.555-2.326-1.951v-1.726h0.525c1.396,0,1.576,0.945,1.771,1.861c0.315,1.546,1.035,2.461,4.712,2.461
				c1.876,0,2.836-0.06,3.647-0.21V47.155z M52.576,42.998v-3.557c1.831,0,2.686,0.391,2.686,1.756
				C55.262,42.248,54.646,42.998,52.576,42.998z"/>
			<path fill="#FFFFFF" d="M82.725,38.977c-1.095,0-3.001,0.06-4.097,0.06s-3.001-0.06-4.097-0.06c-1.396,0-3.842,0.06-5.252,0.06
				c-1.396,0-3.842-0.06-5.253-0.06v0.465c1.336,0,2.102,0.705,2.102,2.206v2.356c0,3.182,2.896,3.797,7.773,3.797
				c4.502,0,5.553-1.216,5.553-3.797v-0.75c0-2.431,1.095-3.812,3.271-3.812V38.977z M78.823,44.004
				c0,2.416-1.381,3.151-3.332,3.151c-2.191,0-2.941-0.66-2.941-3.151v-2.356c0-1.546,0.706-2.206,1.981-2.206
				c3.092,0,4.292,1.351,4.292,3.812V44.004z"/>
			<path fill="#FFFFFF" d="M95.368,39.021H84.982v0.42c1.892,0,2.731,0.811,2.731,3.737c0,2.776-0.75,3.977-2.731,3.977v0.466
				c1.606,0,4.428-0.045,6.033-0.045c1.606,0,4.428,0.045,6.033,0.045v-0.466c-2.986,0-4.247-0.976-4.247-2.626v-0.3
				c0.346,0.075,1.23,0.165,2.132,0.165c3.646,0,6.272-0.946,6.272-2.822C101.206,39.832,99.721,39.021,95.368,39.021z
				 M92.802,43.809v-4.367c1.801,0,2.791,0.735,2.791,2.086C95.593,42.818,94.647,43.809,92.802,43.809z"/>
			<path fill="#FFFFFF" d="M118.246,47.155c-1.756,0-2.807-1.456-3.587-3.196l-2.176-4.938h-5.703l-2.236,4.938
				c-0.915,2.011-2.191,3.196-3.737,3.196v0.466c0.826,0,2.252-0.045,3.077-0.045c0.811,0,2.236,0.045,3.047,0.045
				c1.516,0,4.157-0.045,5.657-0.045c1.517,0,4.143,0.045,5.658,0.045V47.155z M108.476,44.379c0,1.201-0.404,2.776-1.545,2.776
				c-1.306,0-1.651-1.65-1.651-2.776H108.476z M108.446,43.898h-3.137l1.591-3.677L108.446,43.898z"/>
			<path fill="#FFFFFF" d="M134.784,47.621l-0.226-4.593c0,0-1.65,1.351-2.746,2.161c-1.11,0.811-2.882,1.966-2.882,1.966h-0.345
				v-5.072c0-1.906,1.2-2.642,3.241-2.642v-0.465c-1.545,0-4.217,0.06-5.763,0.06s-4.232-0.06-5.778-0.06v0.465
				c1.861,0,2.731,0.75,2.731,3.737c0,2.972-0.825,3.977-2.731,3.977v0.466c1.11,0,3.047-0.045,4.157-0.045
				c1.111,0,3.047,0.045,4.157,0.045H134.784z"/>
			<path fill="#FFFFFF" d="M50.175,141.223l-0.418,0.278c0.613,1.616-0.697,2.174-5.574,2.174c-2.842,0-6.827-0.947-9.614-0.947
				c-0.892,0-1.783,0.083-2.257,0.334l-0.195-0.362c0.502-0.251,1.087-0.445,2.564-0.445c2.759,0,4.542,0.25,7.719,0.25
				c5.602,0,8.611-1.699,8.611-4.459c0-2.981-3.01-4.82-11.092-4.82c-7.719,0-10.784,1.839-10.784,4.348
				c0,1.644,1.31,2.508,3.929,2.508c3.512,0,5.017-0.947,5.017-2.453c0-1.728-1.227-2.619-2.954-2.619
				c-1.338,0-2.146,0.223-2.592,0.418l-0.195-0.334c0.53-0.279,1.589-0.613,3.149-0.613c2.229,0,3.595,1.031,3.595,3.094
				c0,1.895-1.812,2.814-5.629,3.315c-3.54,0.474-5.435,2.091-5.435,4.682c0,1.366,0.418,2.509,1.059,3.456
				c0.725,1.031,1.226,1.393,1.755,1.393c0.307,0,0.53-0.11,0.53-0.418c0-0.39-0.391-0.557-0.976-0.557
				c-0.14-0.168-0.223-0.362-0.223-0.725c0-0.863,0.697-1.478,1.755-1.478c0.92,0,1.756,0.279,3.4,1.282
				c3.177,1.895,5.127,2.62,10.227,2.62c4.152,0,7.051-1.868,7.051-5.769C52.599,143.591,51.066,141.808,50.175,141.223z"/>
			<path fill="#FFFFFF" d="M67.467,133.225c-8.193,0-13.209,2.73-13.209,8.527c0,5.379,4.375,8.193,13.209,8.193
				c8.946,0,13.21-3.149,13.21-8.333C80.677,135.955,75.938,133.225,67.467,133.225z M67.467,149.164c-1.505,0-2.09-1.505-2.09-7.44
				c0-5.769,0.641-7.691,2.09-7.691c1.505,0,2.09,1.561,2.09,7.691C69.557,147.297,68.889,149.164,67.467,149.164z"/>
			<path fill="#FFFFFF" d="M107.836,148.746c-5.323,0-6.855-3.288-6.855-7.747c0-4.626,0.612-7.44,0.612-7.44
				c-1.281,0-3.483,0.111-4.765,0.111c-1.282,0-3.483-0.111-4.766-0.111c-1.421,3.065-3.149,4.877-9.336,4.877v0.976
				c1.561,0,4.236,0,5.992-0.391v3.958c0,3.817-2.09,5.768-7.08,5.768v0.864c3.513,0,9.588-0.083,13.099-0.083
				c3.512,0,9.587,0.083,13.099,0.083V148.746z"/>
			<path fill="#FFFFFF" d="M125.055,140.191c-3.539,0-5.853,0.585-6.41,1.561c0-4.905,1.533-7.496,5.212-7.496
				c1.756,0,2.592,0.139,3.566,0.445l-0.111,0.391c-0.78-0.279-1.756-0.418-2.48-0.418c-2.285,0-3.288,0.975-3.288,2.34
				c0,1.561,1.477,2.62,5.685,2.62c2.927,0,5.072-0.696,5.072-2.592c0-2.619-4.319-3.817-11.927-3.817
				c-9.671,0-13.21,3.483-13.21,8.499c0,5.825,4.152,8.222,13.21,8.222c8.778,0,13.181-1.533,13.181-4.877
				C133.554,141.919,130.712,140.191,125.055,140.191z M122.184,145.486c0,2.759-0.668,3.678-1.867,3.678
				c-1.17,0-1.672-0.919-1.672-3.678c0-2.927,0.725-3.707,1.867-3.707C121.683,141.779,122.184,142.56,122.184,145.486z"/>
		</g>
	</g>
</g>
<g>
	<path fill="#1D5C83" d="M78.016,5.948c-0.583,1.881-1.435,2.984-2.379,3.831C76.611,8.962,77.446,7.842,78.016,5.948z"/>
	<path fill="#1D5C83" d="M66.244,15.438c-1.69,1.014-4.655,3.083-7.436,6.361C61.593,18.527,64.559,16.463,66.244,15.438z"/>
	<path fill="#1D5C83" d="M85.643,9.828c0.387,0.255,0.775,0.491,1.164,0.714c-0.384-0.221-0.767-0.454-1.149-0.707
		c-1.973-1.336-4.708-4.517-6.999-7.253c0,0.003-0.001,0.006-0.001,0.009C80.945,5.323,83.674,8.558,85.643,9.828z"/>
	<path fill="#1D5C83" d="M101.803,20.076c-2.847-3.009-5.555-4.68-6.412-5.216c-0.059-0.036-0.115-0.068-0.174-0.104
		c0.054,0.032,0.105,0.063,0.159,0.097C96.234,15.391,98.95,17.061,101.803,20.076z"/>
	<path fill="#1D5C83" d="M102.416,20.744c0.201,0.227,0.403,0.46,0.604,0.699C102.819,21.204,102.618,20.971,102.416,20.744z"/>
	<path fill="#1D5C83" d="M103.08,21.514c1.111,1.332,2.204,2.872,3.178,4.633C105.284,24.385,104.191,22.846,103.08,21.514z"/>
	<path fill="#1D5C83" d="M106.331,26.284c0.165,0.302,0.327,0.61,0.484,0.925C106.658,26.895,106.496,26.586,106.331,26.284z"/>
	<path fill="#1D5C83" d="M106.922,27.429c0.144,0.294,0.284,0.592,0.421,0.898C107.206,28.021,107.065,27.723,106.922,27.429z"/>
	<path fill="#1D5C83" d="M107.458,28.593c0.13,0.298,0.256,0.601,0.377,0.909C107.713,29.193,107.588,28.891,107.458,28.593z"/>
	<path fill="#1D5C83" d="M101.822,20.097c0.166,0.176,0.333,0.358,0.5,0.543C102.155,20.455,101.988,20.273,101.822,20.097z"/>
	<path fill="#426087" d="M109.117,33.664c-0.018-0.078-0.036-0.154-0.055-0.231c-0.089-0.375-0.183-0.745-0.283-1.107
		c-0.026-0.094-0.054-0.187-0.08-0.279c-0.099-0.342-0.202-0.68-0.312-1.011c-0.032-0.099-0.065-0.197-0.099-0.295
		c-0.11-0.321-0.224-0.637-0.342-0.947c-0.037-0.097-0.074-0.194-0.112-0.291c-0.121-0.309-0.247-0.611-0.377-0.909
		c-0.038-0.089-0.076-0.178-0.115-0.266c-0.137-0.306-0.277-0.604-0.421-0.898c-0.036-0.073-0.07-0.147-0.106-0.219
		c-0.157-0.315-0.319-0.623-0.484-0.925c-0.024-0.045-0.048-0.092-0.073-0.137c-0.974-1.762-2.066-3.302-3.178-4.633
		c-0.02-0.024-0.04-0.047-0.06-0.071c-0.201-0.239-0.403-0.473-0.604-0.699c-0.008-0.009-0.017-0.019-0.024-0.028
		c-0.023-0.026-0.047-0.05-0.069-0.076c-0.167-0.186-0.334-0.367-0.5-0.543c-0.006-0.007-0.013-0.014-0.02-0.021
		c-2.853-3.016-5.568-4.686-6.427-5.223c-0.054-0.033-0.105-0.064-0.159-0.097c-2.851-1.776-5.654-2.639-8.41-4.215
		c-0.389-0.223-0.777-0.458-1.164-0.714c-1.969-1.271-4.698-4.505-6.985-7.237c-0.004-0.005-0.009-0.01-0.013-0.016
		c-0.137,1.346-0.352,2.45-0.629,3.373c-0.569,1.895-1.404,3.014-2.379,3.831c-0.099,0.083-0.199,0.163-0.301,0.24
		c-3.244,2.545-5.28,3.309-8.079,4.835c-0.237,0.128-0.586,0.325-1.013,0.584c-1.685,1.025-4.651,3.089-7.436,6.361
		c-2.677,3.146-5.171,7.414-6.192,12.931h56.719C109.267,34.37,109.197,34.013,109.117,33.664z"/>
	<g>
		<path fill="none" stroke="#FFFFFF" stroke-width="0" stroke-linecap="round" stroke-linejoin="round" d="M75.637,9.778
			c0.975-0.816,1.81-1.936,2.379-3.831"/>
		<path fill="none" stroke="#FFFFFF" stroke-width="0" stroke-linecap="round" stroke-linejoin="round" d="M78.657,2.591
			c2.288,2.732,5.017,5.967,6.985,7.237c0.387,0.255,0.775,0.491,1.164,0.714"/>
		<path fill="none" stroke="#FFFFFF" stroke-width="0" stroke-linecap="round" stroke-linejoin="round" d="M109.117,33.664
			c0.08,0.349,0.149,0.706,0.218,1.065"/>
		<path fill="none" stroke="#FFFFFF" stroke-width="0" stroke-linecap="round" stroke-linejoin="round" d="M100.227,18.522
			c0.038,0.035,0.077,0.073,0.114,0.108"/>
		<path fill="none" stroke="#FFFFFF" stroke-width="0" stroke-linecap="round" stroke-linejoin="round" d="M95.217,14.757
			c0.054,0.032,0.105,0.063,0.159,0.097c0.68,0.425,2.523,1.562,4.676,3.512"/>
		<path fill="#FFFFFF" d="M101.803,20.076c-0.495-0.522-0.984-1.002-1.462-1.445C100.818,19.074,101.308,19.554,101.803,20.076z"/>
		<path fill="#FFFFFF" d="M100.052,18.366c0.059,0.053,0.116,0.103,0.175,0.157C100.168,18.469,100.11,18.418,100.052,18.366z"/>
		<path fill="none" stroke="#FFFFFF" stroke-width="0" stroke-linecap="round" stroke-linejoin="round" d="M102.416,20.744
			c0.201,0.227,0.403,0.46,0.604,0.699"/>
		<path fill="#FFFFFF" d="M106.258,26.147c-0.974-1.762-2.066-3.302-3.178-4.633c0.881,1.055,1.749,2.245,2.557,3.569
			C105.849,25.429,106.056,25.782,106.258,26.147z"/>
		<path fill="none" stroke="#FFFFFF" stroke-width="0" stroke-linecap="round" stroke-linejoin="round" d="M106.331,26.284
			c0.165,0.302,0.327,0.61,0.484,0.925"/>
		<path fill="none" stroke="#FFFFFF" stroke-width="0" stroke-linecap="round" stroke-linejoin="round" d="M106.922,27.429
			c0.144,0.294,0.284,0.592,0.421,0.898"/>
		<path fill="none" stroke="#FFFFFF" stroke-width="0" stroke-linecap="round" stroke-linejoin="round" d="M107.458,28.593
			c0.13,0.298,0.256,0.601,0.377,0.909"/>
		<path fill="none" stroke="#FFFFFF" stroke-width="0" stroke-linecap="round" stroke-linejoin="round" d="M101.822,20.097
			c0.166,0.176,0.333,0.358,0.5,0.543"/>
		<path fill="none" stroke="#FFFFFF" stroke-width="0" stroke-linecap="round" stroke-linejoin="round" d="M108.388,31.035
			c0.109,0.331,0.213,0.668,0.312,1.011"/>
		<path fill="none" stroke="#FFFFFF" stroke-width="0" stroke-linecap="round" stroke-linejoin="round" d="M108.779,32.325
			c0.101,0.362,0.194,0.732,0.283,1.107"/>
		<path fill="none" stroke="#FFFFFF" stroke-width="0" stroke-linecap="round" stroke-linejoin="round" d="M107.947,29.792
			c0.118,0.311,0.231,0.626,0.342,0.947"/>
	</g>
	<g>
		<g>
			<path fill="#044A75" d="M78.016,5.948c-0.583,1.881-1.435,2.984-2.379,3.831C76.611,8.962,77.446,7.842,78.016,5.948
				L78.016,5.948z"/>
		</g>
		<g>
			<path fill="#044A75" d="M66.244,15.438c-1.69,1.014-4.655,3.083-7.436,6.361C61.593,18.527,64.559,16.463,66.244,15.438
				L66.244,15.438z"/>
		</g>
		<g>
			<path fill="#044A75" d="M78.658,2.582c0,0.003-0.001,0.006-0.001,0.009c2.288,2.732,5.017,5.967,6.985,7.237
				c0.387,0.255,0.775,0.491,1.164,0.714c-0.384-0.221-0.767-0.454-1.149-0.707C83.685,8.499,80.949,5.318,78.658,2.582
				L78.658,2.582z"/>
		</g>
		<g>
			<path fill="#044A75" d="M109.117,33.664c0.005,0.022,0.01,0.044,0.016,0.066C109.127,33.708,109.122,33.686,109.117,33.664
				L109.117,33.664z M109.133,33.73c0.073,0.328,0.138,0.663,0.202,0.999h0.003C109.273,34.392,109.206,34.059,109.133,33.73
				L109.133,33.73z"/>
		</g>
		<g>
			<path fill="#044A75" d="M95.217,14.757c0.054,0.032,0.105,0.063,0.159,0.097c0.823,0.515,3.356,2.073,6.08,4.861
				c-2.718-2.782-5.243-4.34-6.065-4.854C95.332,14.825,95.275,14.792,95.217,14.757L95.217,14.757z M101.456,19.715
				c0,0.001,0,0.001,0.001,0.002C101.457,19.717,101.456,19.715,101.456,19.715L101.456,19.715z M101.457,19.717L101.457,19.717
				L101.457,19.717L101.457,19.717z M101.458,19.717c0.114,0.118,0.229,0.237,0.345,0.359
				C101.688,19.954,101.572,19.835,101.458,19.717L101.458,19.717z"/>
		</g>
		<g>
			<path fill="#044A75" d="M102.416,20.744c0.201,0.227,0.403,0.46,0.604,0.699C102.819,21.204,102.618,20.971,102.416,20.744
				L102.416,20.744z"/>
		</g>
		<g>
			<path fill="#044A75" d="M103.08,21.514c1.111,1.332,2.204,2.872,3.178,4.633C105.284,24.385,104.191,22.846,103.08,21.514
				L103.08,21.514z"/>
		</g>
		<g>
			<path fill="#044A75" d="M106.331,26.284c0.165,0.302,0.327,0.61,0.484,0.925C106.658,26.895,106.496,26.586,106.331,26.284
				L106.331,26.284z"/>
		</g>
		<g>
			<path fill="#044A75" d="M106.922,27.429c0.144,0.294,0.284,0.592,0.421,0.898C107.206,28.021,107.065,27.723,106.922,27.429
				L106.922,27.429z"/>
		</g>
		<g>
			<path fill="#044A75" d="M107.458,28.593c0.13,0.298,0.255,0.601,0.377,0.909C107.714,29.193,107.588,28.891,107.458,28.593
				L107.458,28.593z"/>
		</g>
		<g>
			<path fill="#044A75" d="M101.822,20.097c0.166,0.176,0.333,0.358,0.5,0.543C102.155,20.455,101.988,20.273,101.822,20.097
				L101.822,20.097z"/>
		</g>
		<g>
			<path fill="#044A75" d="M108.388,31.035c0.109,0.331,0.213,0.668,0.312,1.011C108.601,31.704,108.497,31.366,108.388,31.035
				L108.388,31.035z"/>
		</g>
		<g>
			<path fill="#044A75" d="M108.779,32.325c0.101,0.362,0.194,0.732,0.283,1.107C108.974,33.057,108.88,32.688,108.779,32.325
				L108.779,32.325z"/>
		</g>
		<g>
			<path fill="#044A75" d="M107.947,29.792c0.118,0.311,0.231,0.626,0.342,0.947C108.179,30.418,108.065,30.103,107.947,29.792
				L107.947,29.792z"/>
		</g>
		<g>
			<path fill="#044A75" d="M79.695,6.564c1.844,2.106,3.513,3.818,4.963,4.754c0.394,0.26,0.806,0.513,1.262,0.774
				c1.318,0.753,2.638,1.349,3.913,1.925c1.531,0.691,2.977,1.343,4.465,2.271l0.131,0.079l0.06,0.038
				c0.834,0.521,3.367,2.104,5.983,4.863l0.001,0.001l0.049,0.053c0.157,0.167,0.315,0.338,0.463,0.502l0.074,0.082l0.006,0.007
				l0.016,0.018c0.19,0.215,0.383,0.436,0.557,0.643l0.072,0.085c1.139,1.365,2.144,2.83,2.985,4.353l0.022,0.042l0.004,0.007
				l0.043,0.08c0.154,0.283,0.307,0.572,0.454,0.868l0.045,0.093l0.054,0.111c0.135,0.276,0.268,0.557,0.394,0.84l0.11,0.254
				c0.121,0.278,0.239,0.56,0.354,0.853l0.104,0.268c0.111,0.292,0.219,0.59,0.319,0.884l0.095,0.284
				c0.103,0.31,0.199,0.625,0.289,0.938l0.037,0.129l0.04,0.14c0.014,0.046,0.026,0.093,0.039,0.14H54.854
				c0.997-3.657,2.778-7.008,5.314-9.987c2.66-3.125,5.53-5.096,7.003-5.992c0.394-0.24,0.716-0.422,0.94-0.543
				c0.664-0.362,1.284-0.681,1.888-0.99c1.977-1.015,3.845-1.974,6.416-3.991c0.125-0.095,0.249-0.194,0.367-0.293
				C78.159,9.996,79.086,8.537,79.695,6.564 M78.645,2.575c-0.137,1.346-0.352,2.45-0.629,3.373
				c-0.569,1.895-1.404,3.014-2.379,3.831c-0.099,0.083-0.199,0.163-0.301,0.24c-3.244,2.545-5.28,3.309-8.079,4.835
				c-0.237,0.128-0.586,0.325-1.013,0.584c-1.685,1.025-4.651,3.089-7.436,6.361c-2.677,3.146-5.171,7.414-6.192,12.931h56.719
				c-0.068-0.359-0.138-0.717-0.218-1.065c-0.018-0.078-0.036-0.154-0.055-0.231c-0.089-0.375-0.183-0.745-0.283-1.107
				c-0.026-0.094-0.054-0.187-0.08-0.279c-0.099-0.342-0.202-0.68-0.312-1.011c-0.032-0.099-0.065-0.197-0.099-0.295
				c-0.11-0.321-0.224-0.637-0.342-0.947c-0.037-0.097-0.074-0.194-0.112-0.291c-0.121-0.309-0.247-0.611-0.377-0.909
				c-0.038-0.089-0.076-0.178-0.115-0.266c-0.137-0.306-0.277-0.604-0.421-0.898c-0.036-0.073-0.07-0.147-0.106-0.219
				c-0.157-0.315-0.319-0.623-0.484-0.925c-0.024-0.045-0.048-0.092-0.073-0.137c-0.974-1.762-2.066-3.302-3.178-4.633
				c-0.02-0.024-0.04-0.047-0.06-0.071c-0.201-0.239-0.403-0.473-0.604-0.699c-0.008-0.009-0.017-0.019-0.024-0.028
				c-0.023-0.026-0.047-0.05-0.069-0.076c-0.167-0.186-0.334-0.367-0.5-0.543c-0.006-0.007-0.013-0.014-0.02-0.021
				c-2.853-3.016-5.568-4.686-6.427-5.223c-0.054-0.033-0.105-0.064-0.159-0.097c-2.851-1.776-5.654-2.639-8.41-4.215
				c-0.389-0.223-0.777-0.458-1.164-0.714c-1.969-1.271-4.698-4.505-6.985-7.237C78.653,2.586,78.648,2.581,78.645,2.575
				L78.645,2.575z"/>
		</g>
	</g>
	<g>
		<path fill="#044A75" d="M108.33,34.729h-3.215c0-1.608,0.578-3.216,0.578-3.216S108.33,33.122,108.33,34.729z"/>
		<path fill="#044A75" d="M101.899,34.729h-3.215c0-6.192-0.965-9.646-0.965-9.646S101.899,28.299,101.899,34.729z"/>
		<path fill="#044A75" d="M95.469,34.729h-3.215c0-9.646-0.965-12.862-0.965-12.862S95.469,25.083,95.469,34.729z"/>
		<path fill="#044A75" d="M89.038,34.729h-3.215c0-9.646-0.965-19.292-0.965-19.292S89.038,25.083,89.038,34.729z"/>
		<path fill="#044A75" d="M82.607,34.729h-3.215C79.392,21.868,81,12.222,81,12.222S82.607,21.868,82.607,34.729z"/>
		<path fill="#044A75" d="M76.177,34.729h-3.216c0-9.646,4.181-19.292,4.181-19.292S76.177,25.083,76.177,34.729z"/>
		<path fill="#044A75" d="M69.746,34.729H66.53c0-9.646,4.18-12.862,4.18-12.862S69.746,25.083,69.746,34.729z"/>
		<path fill="#044A75" d="M63.315,34.729H60.1c0-6.431,4.18-9.646,4.18-9.646S63.315,28.061,63.315,34.729z"/>
		<path fill="#044A75" d="M56.884,34.729h-3.215c0-1.63,2.636-3.216,2.636-3.216S56.884,33.01,56.884,34.729z"/>
	</g>
	<g>
		<polygon fill="#044A75" points="81.401,21.428 82.703,25.434 86.916,25.434 83.508,27.91 84.809,31.916 81.401,29.439 
			77.994,31.916 79.295,27.91 75.888,25.434 80.1,25.434 		"/>
		<polygon fill="#044A75" points="95.02,21.428 96.321,25.434 100.533,25.434 97.126,27.91 98.427,31.916 95.02,29.439 
			91.611,31.916 92.914,27.91 89.506,25.434 93.718,25.434 		"/>
		<polygon fill="#044A75" points="67.784,21.428 69.085,25.434 73.298,25.434 69.89,27.91 71.191,31.916 67.784,29.439 
			64.376,31.916 65.678,27.91 62.27,25.434 66.482,25.434 		"/>
	</g>
	<g>
		<polygon fill="#949DB6" points="80.999,21.026 82.302,25.032 86.514,25.032 83.105,27.508 84.407,31.514 80.999,29.038 
			77.592,31.514 78.894,27.508 75.486,25.032 79.698,25.032 		"/>
		<polygon fill="#949DB6" points="94.618,21.026 95.92,25.032 100.132,25.032 96.724,27.508 98.025,31.514 94.618,29.038 
			91.21,31.514 92.512,27.508 89.104,25.032 93.315,25.032 		"/>
		<polygon fill="#949DB6" points="67.382,21.026 68.684,25.032 72.896,25.032 69.488,27.508 70.79,31.514 67.382,29.038 
			63.974,31.514 65.276,27.508 61.868,25.032 66.08,25.032 		"/>
	</g>
</g>
</svg>
