<?xml version="1.0" encoding="utf-8"?>
<!-- Generator: Adobe Illustrator 21.0.0, SVG Export Plug-In . SVG Version: 6.00 Build 0)  -->
<svg version="1.1" id="Version_5-F_RGB" xmlns="http://www.w3.org/2000/svg" xmlns:xlink="http://www.w3.org/1999/xlink" x="0px"
	 y="0px" viewBox="0 0 450 288" style="enable-background:new 0 0 450 288;" xml:space="preserve">
<style type="text/css">
	.st0{fill:#003E6A;}
	.st1{fill:#FEEFDD;stroke:#003E6A;stroke-width:8;stroke-miterlimit:10;}
	.st2{fill:#620000;}
	.st3{fill:#496389;}
	.st4{fill:#86973A;}
	.st5{fill:#FEEFDD;}
	.st6{fill:#BCC08E;}
</style>
<circle class="st0" cx="225" cy="144" r="139.5"/>
<g>
	<polygon class="st1" points="13.5,72 13.5,216 189,189 189,99 	"/>
</g>
<g>
	<polygon class="st1" points="436.5,72 436.5,216 261,189 261,99 	"/>
</g>
<polygon class="st2" points="106.5,196.6 106.5,195.2 106.5,195.2 106.5,196.6 "/>
<g>
	<g>
		<path class="st3" d="M218.4,82c-1.7,0.5-3.4,1-5.1,1.4c-1.5,0.4-3,0.8-4.6,1.2c-0.5,0.1-1.3,0.4-2.3,0.7c-0.2,0.1-0.4,0.1-0.6,0.2
			l19.2,58.9L218.4,82z"/>
		<path class="st3" d="M166.8,156.9c0.3,1.1,0.6,2.1,0.9,3.1c0.9,2.9,2.1,5.7,3.5,8.4l53.8-23.9L166.8,156.9z"/>
		<path class="st3" d="M196.2,194.5C196.2,194.5,196.2,194.5,196.2,194.5c0.2,0.1,0.5,0.3,0.7,0.4l0.3,0.2c0.4,0.2,0.8,0.4,1.2,0.6
			c0.4,0.2,0.8,0.4,1.1,0.6c0.4,0.2,0.7,0.4,1.1,0.5l0.2,0.1c0.6,0.3,1.3,0.6,1.9,0.8l0.1,0c0.3,0.1,0.6,0.2,0.9,0.4
			c0.5,0.2,1,0.4,1.4,0.6l0.4,0.1l0.3,0.1c0.5,0.2,0.9,0.3,1.4,0.5l17.8-54.7L196.2,194.5z"/>
		<path class="st3" d="M177.8,178.8c0.2,0.3,0.5,0.6,0.7,0.9l0.1,0.1l0,0l0,0c1.2,1.4,2.4,2.8,3.7,4.1l0.2,0.2l0.1,0.1
			c0.6,0.6,1.2,1.2,1.8,1.7l0.1,0.1l0,0c0.5,0.4,1,0.9,1.6,1.4l38.7-43L177.8,178.8z"/>
		<path class="st3" d="M165.8,132c-0.8,4.2-1,8.4-0.9,12.6h60L165.8,132z"/>
		<path class="st3" d="M175.3,108.5c-2.4,3.5-4.4,7.3-6,11.3l55.7,24.8L175.3,108.5z"/>
		<path class="st3" d="M218.9,202c2.7,0.4,5.5,0.5,8.2,0.5c1.3,0,2.6-0.1,3.9-0.1l-6.1-57.8L218.9,202z"/>
		<path class="st3" d="M265.1,189.1c3.2-2.7,6.1-5.8,8.7-9.1L225,144.6L265.1,189.1z"/>
		<path class="st3" d="M280.2,169.1c1.7-3.8,3-7.8,4-12L225,144.6L280.2,169.1z"/>
		<path class="st3" d="M285.8,144.6c0.2-4.5-0.2-8.8-0.9-12.8l-60,12.8L285.8,144.6z"/>
		<path class="st3" d="M243.1,200.4c4-1.1,7.9-2.6,11.5-4.4L225,144.6L243.1,200.4z"/>
		<path class="st3" d="M194.1,91.1c-1.9,1.1-3.9,2.4-5.8,3.9c-1.6,1.2-3.1,2.4-4.5,3.8l41.2,45.7L194.1,91.1z"/>
		<path class="st3" d="M266.9,98c-0.2-0.2-0.4-0.4-0.6-0.6l-0.1-0.1l-0.1-0.1l-0.2-0.2c-2.8-2.7-5.6-4.8-8.6-7.1
			c-0.2-0.1-0.4-0.3-0.6-0.5l-31.8,55L266.9,98z"/>
		<path class="st3" d="M246,79.9c-2.4-3.1-4.9-7.4-7.4-11.8c-0.2,0.4-0.4,0.7-0.6,1.1c-1.6,2.9-3.5,5.1-5.8,6.8l-7.2,68.6L246,79.9z
			"/>
		<path class="st3" d="M281.4,119.5c-1.8-4.3-3.9-8.1-6.2-11.4L225,144.6L281.4,119.5z"/>
		<path class="st0" d="M207.2,199.3c0.5,0.2,1,0.3,1.5,0.5l0.3,0.1l0.3,0.1c0.6,0.2,1.1,0.3,1.7,0.5l0.2,0l0.2,0l0.4,0.1
			c0.4,0.1,0.9,0.2,1.3,0.3c1.9,0.4,3.9,0.8,5.9,1l6-57.4L207.2,199.3z"/>
		<path class="st0" d="M232.2,76c-0.7,0.5-1.5,1-2.3,1.5l0,0l0,0c-0.3,0.2-0.6,0.3-0.9,0.4c-4.1,2-7.4,3.2-10.5,4.1l6.6,62.5
			L232.2,76z"/>
		<path class="st0" d="M205.8,85.6c-2.7,0.9-6.9,2.7-11.7,5.5l30.8,53.4L205.8,85.6z"/>
		<path class="st0" d="M183.8,98.8c-3.2,2.9-6,6.2-8.5,9.7l49.6,36.1L183.8,98.8z"/>
		<path class="st0" d="M169.3,119.8c-1.2,3.1-2.2,6.3-3,9.7c-0.2,0.8-0.3,1.7-0.5,2.5l59.1,12.6L169.3,119.8z"/>
		<path class="st0" d="M164.9,144.6c0.2,4.2,0.8,8.3,1.9,12.4l58.2-12.4H164.9z"/>
		<path class="st0" d="M171.2,168.5c1.8,3.6,4,7.1,6.6,10.3l47.1-34.3L171.2,168.5z"/>
		<path class="st0" d="M186.3,187.5c0.1,0.1,0.2,0.2,0.4,0.3c0.1,0.1,0.2,0.2,0.3,0.2l0.2,0.2c0.6,0.5,1.1,0.9,1.6,1.3l0.2,0.1
			l0.4,0.3c0.6,0.5,1.3,0.9,2,1.4c0.1,0.1,0.3,0.2,0.4,0.3l0.3,0.2c0.5,0.3,0.9,0.6,1.4,0.9l0.2,0.1c0.2,0.1,0.4,0.3,0.7,0.4
			c0.7,0.4,1.3,0.8,1.9,1.1l28.8-49.9L186.3,187.5z"/>
		<path class="st0" d="M231.1,202.4c4.1-0.3,8.2-0.9,12.1-2L225,144.6L231.1,202.4z"/>
		<path class="st0" d="M254.7,196c3-1.5,5.9-3.3,8.5-5.4c0.6-0.5,1.3-1,1.9-1.5L225,144.6L254.7,196z"/>
		<path class="st0" d="M273.8,180c2.5-3.3,4.7-7,6.4-10.9L225,144.6L273.8,180z"/>
		<path class="st0" d="M225,144.6l59.2,12.6c0-0.1,0.1-0.2,0.1-0.4c0.9-4.3,1.4-8.3,1.6-12.2L225,144.6z"/>
		<path class="st0" d="M285,131.8c-0.8-4.5-2.1-8.6-3.6-12.3L225,144.6L285,131.8z"/>
		<path class="st0" d="M275.2,108.1c-2.8-4.1-5.7-7.5-8.3-10.1L225,144.6L275.2,108.1z"/>
		<path class="st0" d="M256.7,89.5c-2.3-1.7-4.6-3.5-6.9-5.6c-0.8-0.7-1.5-1.5-2.2-2.2c-0.5-0.6-1.1-1.2-1.6-1.9l-21,64.7
			L256.7,89.5z"/>
	</g>
	<g>
		<polygon class="st4" points="225,154.2 208.9,165.9 215,147 199,135.3 218.8,135.3 225,116.4 231.1,135.3 251,135.3 234.9,147 
			241,165.9 		"/>
		<path class="st5" d="M225,122.9l3.8,11.7l0.9,2.8h2.9h12.3l-9.9,7.2l-2.4,1.7l0.9,2.8l3.8,11.7l-9.9-7.2l-2.4-1.7l-2.4,1.7
			l-9.9,7.2l3.8-11.7l0.9-2.8l-2.4-1.7l-9.9-7.2h12.3h2.9l0.9-2.8L225,122.9 M225,109.9l-7.6,23.4h-24.6l19.9,14.4l-7.6,23.4
			l19.9-14.4l19.9,14.4l-7.6-23.4l19.9-14.4h-24.6L225,109.9L225,109.9z"/>
	</g>
	<g>
		<path class="st5" d="M238.5,73.7c2.3,4,4.7,7.7,7,10.1l0,0l0,0c0.7,0.8,1.5,1.5,2.4,2.3c2.6,2.3,5.2,4.3,7.7,6.2
			c2.9,2.2,5.7,4.2,8.3,6.8l0.2,0.2l0.1,0.1l0.1,0.1c9.1,9,23.5,28.2,17.2,56.7c-3,13.3-9.9,24.4-20,32.2
			c-9.5,7.3-21.7,11.3-34.3,11.3c-4.5,0-9-0.5-13.5-1.5c-0.4-0.1-0.8-0.2-1.2-0.3l-0.5-0.1l-0.2,0l-0.1,0c-0.5-0.1-1.1-0.3-1.6-0.4
			l-0.3-0.1l-0.3-0.1c-0.9-0.3-1.8-0.6-2.7-0.9l-0.4-0.1l-0.3-0.1c-0.5-0.2-0.9-0.3-1.4-0.5c-0.3-0.1-0.5-0.2-0.8-0.3l-0.1,0
			c-0.6-0.3-1.2-0.5-1.8-0.8l-0.2-0.1c-0.4-0.2-0.7-0.3-1.1-0.5c-0.4-0.2-0.7-0.4-1.1-0.5c-0.4-0.2-0.8-0.4-1.2-0.6l-0.3-0.2
			c-0.2-0.1-0.4-0.2-0.6-0.4c-0.6-0.3-1.2-0.7-1.9-1.1c-0.2-0.1-0.4-0.3-0.6-0.4l-0.2-0.1c-0.5-0.3-0.9-0.6-1.4-0.9l-0.3-0.2
			c-0.1-0.1-0.3-0.2-0.4-0.3c-0.6-0.4-1.3-0.9-1.9-1.3l-0.3-0.3l-0.2-0.1c-0.5-0.4-1-0.8-1.5-1.2l-0.2-0.2l-0.3-0.2
			c-0.6-0.5-1.3-1.1-1.9-1.6l0,0c-0.1-0.1-0.1-0.1-0.2-0.2c-0.6-0.5-1.1-1.1-1.7-1.7l-0.1-0.1l-0.1-0.1c-1.2-1.2-2.4-2.6-3.6-3.9
			l0-0.1l0,0l0,0l0,0c-4.7-5.6-8.1-12-10.3-18.7c-3.1-9.5-3.5-19.3-1.3-29.1c3-13.5,10-24.5,20.9-32.7c7.1-5.4,13.9-8.1,17.4-9.2
			c1-0.3,1.7-0.6,2.2-0.7c1.6-0.5,3.1-0.8,4.5-1.2c4.8-1.3,9.4-2.5,16.1-5.7c0.3-0.2,0.7-0.3,1-0.5l0.1,0l0.1,0
			C234.1,78.3,236.5,76.3,238.5,73.7 M238.3,60.3c0,0,0,0.3,0,0.3c0,0,0,0,0,0c-0.9,2.8-1.9,5.1-3,7c-2.2,3.8-4.5,5.7-6.9,7.1
			c-0.3,0.1-0.5,0.3-0.8,0.4c-8.2,3.9-12.9,4.6-19.7,6.6c-0.6,0.2-1.4,0.4-2.5,0.8c-4.1,1.4-11.5,4.4-19,10.1
			c-9.5,7.2-19.2,18.5-23.1,36.2c-2.5,11.3-1.8,22.3,1.5,32.3c2.5,7.6,6.4,14.6,11.4,20.7c0,0,0.1,0.1,0.1,0.1
			c1.2,1.5,2.6,3,3.9,4.3c0.1,0.1,0.2,0.2,0.3,0.3c0.6,0.6,1.3,1.2,1.9,1.8c0.1,0.1,0.1,0.1,0.2,0.2c0.7,0.6,1.4,1.2,2.1,1.8
			c0.2,0.1,0.3,0.3,0.5,0.4c0.6,0.5,1.1,0.9,1.7,1.4c0.2,0.1,0.4,0.3,0.5,0.4c0.7,0.5,1.4,1,2.1,1.5c0.3,0.2,0.5,0.3,0.8,0.5
			c0.5,0.3,1,0.7,1.5,1c0.3,0.2,0.6,0.4,0.9,0.5c0.7,0.4,1.4,0.8,2.1,1.2c0.3,0.2,0.7,0.4,1,0.6c0.4,0.2,0.8,0.4,1.3,0.7
			c0.4,0.2,0.8,0.4,1.2,0.6c0.5,0.2,0.9,0.4,1.4,0.6c0.7,0.3,1.3,0.6,2,0.9c0.3,0.1,0.7,0.3,1,0.4c0.5,0.2,1,0.4,1.5,0.6
			c0.2,0.1,0.5,0.2,0.7,0.3c1,0.4,2,0.7,3,1c0.2,0.1,0.4,0.1,0.6,0.2c0.6,0.2,1.2,0.3,1.8,0.5c0.1,0,0.2,0.1,0.4,0.1
			c0.6,0.2,1.2,0.3,1.8,0.5c4.9,1.1,9.9,1.6,14.8,1.6c27.8,0,53.3-17.4,60.2-48.2c8-36.3-15.1-58.7-18.9-62.4
			c-0.1-0.1-0.2-0.2-0.3-0.3c-5.3-5.2-10.9-8.4-16.1-13.1c-0.7-0.6-1.4-1.3-2.1-2c-3.6-3.8-8-12-11.6-18.9c0,0,0,0,0,0
			C238.3,60.7,238.3,60.3,238.3,60.3C238.3,60.3,238.3,60.3,238.3,60.3C238.3,60.3,238.3,60.3,238.3,60.3L238.3,60.3z"/>
	</g>
</g>
<g>
	<g>
		<path class="st6" d="M176.3,31.2l-4.9-1.5l-15.8,8.6l20.6,38l6.3-3.4l-8.6-15.8l0.4-0.2l9.1,2.7l5.4,9.9l6.3-3.4l-6.9-12.7
			l-0.1,0.1l-7.2-2.2l2.2-7.4l0,0l0,0L176.3,31.2z M175.4,44.7l-1.2,4l-0.5,0.3l0,0l-0.1,0.1l-3.1,1.7l-5.1-9.5l6.3-3.4l3.4,6.3
			L175.4,44.7z"/>
		<path class="st6" d="M255.8,25.1l-3-4.1l-17.8-3L228,60.6l7.1,1.2l3-17.8l10.7,1.8l4.1-3L255.8,25.1z M246.4,38.1l-7.1-1.2
			l1.8-10.7l7.1,1.2L246.4,38.1z"/>
		<path class="st6" d="M142.8,52.6l-5.1,0.2L125.5,66l31.6,29.5l12.3-13.2l-0.2-5.1L142.8,52.6z M161.6,80l-4.9,5.3l-21.1-19.6
			l4.9-5.3L161.6,80z"/>
		<polygon class="st6" points="207.8,19.1 213.7,54.6 206.6,55.8 200.7,20.3 193.6,21.5 200.1,60.6 204.2,63.5 218.4,61.1 221.4,57 
			214.9,17.9 		"/>
		<path class="st6" d="M283.7,32.5l-3.2-1.6l-16.2,12l-11.4,22.5l6.4,3.3l4.9-9.6l6.4,3.3l-4.9,9.6l6.4,3.3l11.4-22.5L283.7,32.5z
			 M267.5,52.5l3.3-6.4l6.3-4.4l0.2,7.6l-3.3,6.4L267.5,52.5z"/>
		<polygon class="st6" points="288.4,80 314.7,55.4 309.8,50.2 278.2,79.6 292.9,95.4 298.2,90.5 		"/>
	</g>
	<g>
		<g>
			<path class="st6" d="M198.3,241.8c-0.5-0.7-1.2-1.1-1.7-1.8c-0.3-0.4-0.7-1.3-0.9-2.1c-0.4,0.9-0.8,1.2-1.3,1.3
				c-0.9,0.3-1.4,0.3-2.1,0.4c-0.6,0.1-3.9,0.7-5.2,4.2c-0.4,1.1-0.5,2.3-0.3,3.3c0.4,2.3,2.1,4.2,4.3,5c3.3,1.2,7-0.2,8.3-3.8
				c0.7-2,0.4-3.7-0.1-4.8C198.9,242.6,198.4,241.9,198.3,241.8z"/>
		</g>
		<polygon class="st6" points="169.3,249 163.1,245.5 177.3,220.4 183.6,224 180,230.2 186.3,233.8 191.6,224.4 190.3,219.5 
			177.8,212.4 172.9,213.7 155.1,245 156.4,249.9 168.9,257.1 173.8,255.7 179.2,246.3 172.9,242.8 		"/>
		<path class="st6" d="M169.2,210.8l0.2-5.1l-12.3-13.2L125.5,222l12.3,13.2l5.1,0.2L169.2,210.8z M140.6,227.7l-4.9-5.3l21.1-19.6
			l4.9,5.3L140.6,227.7z"/>
		<polygon class="st6" points="295.6,195 290.5,195.2 283.1,203.1 278.2,208.4 283.5,213.3 288.7,218.2 293.6,212.9 288.4,208 
			293.3,202.7 298.5,207.7 309.8,237.8 314.7,232.6 303.5,202.4 		"/>
		<polygon class="st6" points="270.8,213.1 264.6,216.8 266.5,219.9 261.9,222.7 265.6,228.8 270.2,226 283.2,247.6 277,251.3 
			280.7,257.5 286.9,253.8 293.1,250.1 299.2,246.4 295.5,240.2 289.4,243.9 		"/>
		<polygon class="st6" points="228.4,241.7 229.2,231 225.9,227.1 215.2,226.3 215.2,226.3 211.6,226 207.7,229.3 206.9,240.1 
			214.1,240.7 214.6,233.5 221.8,234 221.4,239.4 205.3,261.6 204.7,268.8 226.3,270.5 226.8,263.3 213.5,262.3 		"/>
		<path class="st6" d="M255.8,225.4l-4.3-2.7l-10.5,2.5l0,0l-3.5,0.8l-2.7,4.3L239,248l4.2,17.5l4.3,2.6l3.5-0.8l0,0l10.5-2.5
			l2.6-4.3l-4.2-17.5L255.8,225.4z M246,246.3l-3.4-14l7-1.7l3.4,14l3.4,14l-7,1.7L246,246.3z"/>
	</g>
</g>
<g>
	<g>
		<path class="st0" d="M121.5,102.6c0,16.1,0,32.2,0,48.3c5.4,10.9,11,21.6,16.9,32.2c2.7-0.4,4-0.5,6.7-0.9
			c5.4-10.9,11-21.6,16.9-32.2c0-14,0-28,0-42c-5.4-0.7-8.1-1.1-13.5-1.8c0,14.7,0,29.4,0,44.1c-2.7,4.8-4,7.2-6.7,12.2
			c-2.7-4.7-4-7-6.7-11.9c0-15.4,0-30.8,0-46.2C129.6,103.7,126.9,103.3,121.5,102.6z"/>
		<path class="st0" d="M114.7,115.8c0-2.8,0-4.2,0-7.1c-2.7-3.1-4-4.7-6.7-7.9c-8.1-1.1-12.2-1.6-20.3-2.7c0,0,0,0,0,0
			c-2.7-0.4-4.1-0.5-6.8-0.9c-2.7,2.8-4.1,4.2-6.8,7c0,3.2,0,4.8,0,7.9c0,6.4,0,9.5,0,15.9c0,15.9,0,31.8,0,47.7c0,0,0,0,0,0
			c0,3.2,0,4.8,0,7.9c2.7,2.9,4,4.3,6.7,7.1c8.1-1.1,12.2-1.6,20.3-2.7c0,0,0,0,0,0c2.7-0.4,4.1-0.5,6.8-0.9
			c2.7-3.2,4.1-4.8,6.8-7.9c0-2.8,0-4.2,0-7c0-5.6,0-8.5,0-14.1C114.8,144,114.8,129.9,114.7,115.8
			C114.7,115.8,114.7,115.8,114.7,115.8z M101.3,158.7c0,5.9,0,8.8,0,14.7c-5.4,0.5-8.1,0.7-13.5,1.2c0-6.1,0-9.2,0-15.3
			c0-10.2,0-20.4,0-30.6c0-6.1,0-9.2,0-15.3c5.4,0.5,8.1,0.7,13.5,1.2c0,5.9,0,8.8,0,14.7C101.3,139.1,101.3,148.9,101.3,158.7z"/>
		<path class="st0" d="M47.2,161.1c2.7-0.1,4-0.2,6.7-0.3c0,6.7,0,10.1,0,16.8c-5.4,0.5-8.1,0.7-13.5,1.2c0-7,0-10.4,0-17.4
			c0-11.6,0-23.2,0-34.8c0-7,0-10.4,0-17.4c5.4,0.5,8.1,0.7,13.5,1.2c0,6.7,0,10.1,0,16.8c5.4,0.2,8.1,0.4,13.5,0.6
			c0-9.7,0-14.6,0-24.3c-2.7-3.5-4-5.3-6.7-9c-8.1-1.1-12.2-1.6-20.2-2.7c0,0,0,0,0,0c-2.7-0.4-4-0.5-6.7-0.9
			c-2.7,3.2-4,4.8-6.7,8.1c0,3.6,0,5.4,0,9c0,7.2,0,10.8,0,18c0,18,0,36,0,54c0,0,0,0,0,0c0,3.6,0,5.4,0,9c2.7,3.3,4,4.9,6.7,8.1
			c5.4-0.7,8.1-1.1,13.5-1.8c0,0,0,0,0,0c2.7-3.8,4-5.6,6.7-9.3c0,3.4,0,5,0,8.4c5.4-0.7,8.1-1.1,13.5-1.8c0-10.8,0-21.6,0-32.4
			c0-6.5,0-9.7,0-16.2c-8.1,0-12.2,0-20.3,0C47.2,150.8,47.2,154.3,47.2,161.1z"/>
	</g>
</g>
<g>
	<g>
		<path class="st0" d="M409.5,91.8c0,17.4,0,34.8,0,52.2c-4.4-16.8-8.9-33.6-13.5-50.4c-5.4,0.7-8.1,1.1-13.5,1.8
			c0,32.4,0,64.8,0,97.2c5.4,0.7,8.1,1.1,13.5,1.8c0-16.8,0-33.6,0-50.4c4.6,17.4,9.1,34.8,13.5,52.2c5.4,0.7,8.1,1.1,13.5,1.8
			c0-36,0-72,0-108C417.6,90.7,414.9,91.1,409.5,91.8z"/>
		<path class="st0" d="M315,170.4c-5.4-0.5-8.1-0.7-13.5-1.2c0-5,0-7.6,0-12.6c0-10.1,0-15.1,0-25.2c0-5,0-7.6,0-12.6
			c5.4-0.5,8.1-0.7,13.5-1.2c0,5.3,0,7.9,0,13.2c5.4-0.2,8.1-0.4,13.5-0.6c0-8.3,0-12.4,0-20.7c-2.7-2.5-4-3.7-6.7-6
			c-8.1,1.1-12.2,1.6-20.2,2.7c0,0,0,0,0,0c-2.7,0.4-4,0.5-6.7,0.9c-2.7,2.8-4,4.2-6.7,6.9c0,2.4,0,3.6,0,6c0,4.8,0,7.2,0,12
			c0,12,0,24,0,36c0,0,0,0,0,0c0,2.4,0,3.6,0,6c2.7,2.7,4,4.1,6.7,6.9c8.1,1.1,12.1,1.6,20.2,2.7c0,0,0,0,0,0c2.7,0.4,4,0.5,6.8,0.9
			c2.7-2.3,4.1-3.5,6.8-6c0-8.3,0-12.4,0-20.7c-5.4-0.2-8.1-0.4-13.5-0.6C315,162.5,315,165.1,315,170.4z"/>
		<path class="st0" d="M375.7,112.2c0-3.2,0-4.8,0-7.9c-2.7-2.9-4-4.3-6.7-7.1c-8.1,1.1-12.2,1.6-20.3,2.7c0,0,0,0,0,0
			c-2.7,0.4-4.1,0.5-6.8,0.9c-2.7,3.2-4.1,4.8-6.8,7.9c0,2.8,0,4.2,0,7c0,5.6,0,8.5,0,14.1c0,14.1,0,28.2,0,42.3c0,0,0,0,0,0
			c0,2.8,0,4.2,0,7.1c2.7,3.1,4,4.7,6.7,7.9c8.1,1.1,12.2,1.6,20.3,2.7c0,0,0,0,0,0c2.7,0.4,4.1,0.5,6.8,0.9c2.7-2.8,4.1-4.2,6.8-7
			c0-3.2,0-4.8,0-7.9c0-6.4,0-9.5,0-15.9C375.8,144,375.8,128.1,375.7,112.2C375.7,112.2,375.7,112.2,375.7,112.2z M362.3,159.3
			c0,6.1,0,9.2,0,15.3c-5.4-0.5-8.1-0.7-13.5-1.2c0-5.9,0-8.8,0-14.7c0-9.8,0-19.6,0-29.4c0-5.9,0-8.8,0-14.7
			c5.4-0.5,8.1-0.7,13.5-1.2c0,6.1,0,9.2,0,15.3C362.3,138.9,362.3,149.1,362.3,159.3z"/>
	</g>
</g>
</svg>
