<?xml version="1.0" encoding="UTF-8"?><!DOCTYPE svg PUBLIC "-//W3C//DTD SVG 1.1//EN" "http://www.w3.org/Graphics/SVG/1.1/DTD/svg11.dtd"><svg xmlns="http://www.w3.org/2000/svg" xmlns:xlink="http://www.w3.org/1999/xlink"><symbol id="email" viewBox="-255.5 -1087.5 32 32">
<g>
	<polygon points="-254.258,-1078.781 -255.5,-1081.265 -255.5,-1059.463 -251.832,-1059.463 -246.285,-1074.252 	"/>
	<polygon points="-239.5,-1070.399 -244.524,-1073.252 -249.696,-1059.463 -229.303,-1059.463 -234.475,-1073.253
		"/>
	<polygon points="-239.5,-1072.699 -226.258,-1080.219 -224.551,-1083.634 -254.449,-1083.634 -252.742,-1080.219
		"/>
	<polygon points="-223.5,-1081.263 -224.742,-1078.781 -232.714,-1074.253 -227.167,-1059.463 -223.5,-1059.463 	"/>
</g>
</symbol><symbol id="facebook" viewBox="-255.501 -1087.5 32 32">
<g>
	<path d="M-231.307-1082.045h-2.978c-2.333,0-2.77,1.119-2.77,2.731v3.585h5.558l-0.74,5.614h-4.817v14.396h-5.804
		v-14.396h-4.837v-5.614h4.837v-4.135c0-4.799,2.939-7.416,7.227-7.416c2.048,0,3.812,0.152,4.324,0.228V-1082.045z"/>
</g>
</symbol><symbol id="gc17" viewBox="0 0 288 288">
<g>
	<rect x="137.4" y="182.7" class="st0" width="13.3" height="53.1"/>
	<path d="M201.1,62.9c-7.7-4.3-31-17-42.4-29.5C145.2,18.6,144,4,144,4s-1.2,14.6-14.7,29.5
		C117.9,46,94.6,58.7,86.9,62.9c-36.2,20.1-60.8,58.8-60.8,103.2C26.1,231.2,78.9,284,144,284c65.1,0,117.9-52.8,117.9-117.9
		C261.9,121.7,237.4,83.1,201.1,62.9z M64.2,178l-8.7-6.3l-8.7,6.3l3.3-10.2l-8.7-6.3h10.7l3.3-10.2l3.3,10.2h10.7l-8.7,6.3
		L64.2,178z M90.9,182.7v53.1h13.3v-13.3h13.3v19.9l-6.6,6.6l-26.5,0l-6.6-6.6l0-66.3l6.6-6.6l26.5,0l6.6,6.6l0,19.9h-13.3v-13.3
		H90.9z M90.9,96.5v53.1h13.3v-13.3h-6.6V123h19.9v39.8l-13.3,0v-6.6l-6.6,6.6l0,0H84.3l-6.6-6.6l0-66.3l6.6-6.6l26.5,0l6.6,6.6
		l0,19.9h-13.3V96.5H90.9z M157.3,249l-26.5,0l-6.6-6.6l0-66.3l6.6-6.6l26.5,0l6.6,6.6l0,66.3L157.3,249z M157.3,162.8l-26.5,0
		l-6.6-6.6l0-66.3l6.6-6.6l26.5,0l6.6,6.6l0,66.3L157.3,162.8z M210.3,249h-13.3l-13.3-39.8V249h-13.3v-79.6h13.3l13.3,39.8v-39.8
		h13.3V249z M210.3,129.6l-16.6,33.2h-6.6l-16.6-33.2V83.2h13.3v46.4l6.6,12.4l6.6-12.4V83.2h13.3V129.6z M232.4,171.7l-8.7,6.3
		l3.3-10.2l-8.7-6.3h10.7l3.3-10.2l3.3,10.2h10.7l-8.7,6.3l3.3,10.2L232.4,171.7z"/>
	<rect x="137.4" y="96.5" class="st0" width="13.3" height="53.1"/>
</g>
</symbol><symbol id="instagram" viewBox="-255.501 -1087.5 32 32">
<g>
	<path d="M-227.501-1062.579c0,1.689-1.391,3.079-3.078,3.079h-17.844c-1.687,0-3.077-1.391-3.077-3.079v-17.842
		c0-1.688,1.391-3.078,3.077-3.078h17.844c1.687,0,3.078,1.391,3.078,3.078V-1062.579z M-230.219-1073.344h-2.109
		c0.203,0.641,0.313,1.344,0.313,2.047c0,4-3.343,7.234-7.469,7.234c-4.109,0-7.452-3.234-7.452-7.234
		c0-0.703,0.109-1.406,0.313-2.047h-2.204v10.125c0,0.53,0.423,0.953,0.953,0.953h16.704c0.53,0,0.953-0.423,0.953-0.953V-1073.344z
		 M-239.486-1076.219c-2.656,0-4.811,2.093-4.811,4.672c0,2.579,2.155,4.673,4.811,4.673c2.673,0,4.829-2.094,4.829-4.673
		C-234.657-1074.126-236.813-1076.219-239.486-1076.219z M-230.219-1079.75c0-0.594-0.484-1.078-1.078-1.078h-2.719
		c-0.594,0-1.078,0.484-1.078,1.078v2.578c0,0.594,0.484,1.078,1.078,1.078h2.719c0.594,0,1.078-0.484,1.078-1.078V-1079.75z"/>
</g>
</symbol><symbol id="logo-rev" viewBox="0 0 450 288">
<style type="text/css">
	.st0{fill:#FFFFFF;}
</style>
<g>
	<polygon class="st0" points="277.2,49.4 277,41.7 270.8,46.1 267.5,52.5 273.9,55.8 	"/>
	
		<rect x="134.2" y="211.6" transform="matrix(0.7314 -0.682 0.682 0.7314 -106.8331 159.1899)" class="st0" width="28.8" height="7.2"/>
	<rect x="145" y="58.4" transform="matrix(0.682 -0.7314 0.7314 0.682 -5.9699 131.8643)" class="st0" width="7.2" height="28.8"/>
	<polygon class="st0" points="175.4,44.7 175.1,44.1 171.6,37.8 165.3,41.2 170.4,50.7 173.5,49.1 173.6,49 173.6,49 174.2,48.7 	
		"/>
	
		<rect x="238.3" y="28.6" transform="matrix(0.165 -0.9863 0.9863 0.165 171.779 267.2225)" class="st0" width="10.8" height="7.2"/>
	<path class="st0" d="M264.2,99.4L264.2,99.4l-0.3-0.3c-2.6-2.6-5.4-4.6-8.3-6.8c-2.5-1.9-5.1-3.8-7.7-6.2c-0.9-0.8-1.6-1.5-2.4-2.3
		l0,0l0,0c-2.3-2.4-4.7-6.1-7-10.1c-2,2.6-4.3,4.7-7.2,6.3l-0.1,0l-0.1,0c-0.3,0.2-0.7,0.3-1,0.5c-6.7,3.2-11.3,4.4-16.1,5.7
		c-1.4,0.4-2.9,0.8-4.5,1.2c-0.5,0.1-1.2,0.4-2.2,0.7c-3.5,1.2-10.3,3.9-17.4,9.2c-10.9,8.2-17.9,19.2-20.9,32.7
		c-2.2,9.9-1.7,19.7,1.3,29.1c2.2,6.8,5.7,13.1,10.3,18.7l0,0l0,0l0,0l0,0.1c1.1,1.4,2.3,2.7,3.6,3.9l0.1,0.1l0.1,0.1
		c0.6,0.6,1.2,1.1,1.7,1.7c0.1,0.1,0.1,0.1,0.2,0.2l0,0c0.6,0.5,1.2,1.1,1.9,1.6l0.3,0.2l0.2,0.2c0.5,0.4,1,0.8,1.5,1.2l0.2,0.1
		l0.3,0.3c0.6,0.4,1.2,0.9,1.9,1.3c0.1,0.1,0.3,0.2,0.4,0.3l0.3,0.2c0.4,0.3,0.9,0.6,1.4,0.9l0.2,0.1c0.2,0.1,0.4,0.3,0.6,0.4
		c0.7,0.4,1.3,0.8,1.9,1.1c0.2,0.1,0.4,0.2,0.6,0.4l0.3,0.2c0.4,0.2,0.8,0.4,1.2,0.6c0.4,0.2,0.7,0.4,1.1,0.5
		c0.4,0.2,0.7,0.3,1.1,0.5l0.2,0.1c0.6,0.3,1.2,0.5,1.8,0.8l0.1,0c0.3,0.1,0.5,0.2,0.8,0.3c0.4,0.2,0.9,0.4,1.4,0.5l0.3,0.1l0.4,0.1
		c0.9,0.3,1.8,0.6,2.7,0.9l0.3,0.1l0.3,0.1c0.5,0.2,1.1,0.3,1.6,0.4l0.1,0l0.2,0l0.5,0.1c0.4,0.1,0.8,0.2,1.2,0.3
		c4.4,1,9,1.5,13.5,1.5c12.6,0,24.8-4,34.3-11.3c10.2-7.8,17.1-18.9,20-32.2c6.3-28.5-8-47.7-17.2-56.7L264.2,99.4z M244.9,171.1
		L225,156.7l-19.9,14.4l7.6-23.4l-19.9-14.4h24.6l7.6-23.4l7.6,23.4h24.6l-19.9,14.4L244.9,171.1z"/>
	<polygon class="st0" points="244.8,137.3 232.6,137.3 229.7,137.3 228.8,134.5 225,122.9 221.2,134.5 220.3,137.3 217.4,137.3 
		205.1,137.3 215,144.5 217.4,146.2 216.5,149 212.7,160.6 222.6,153.4 225,151.7 227.3,153.4 237.2,160.6 233.5,149 232.6,146.2 
		234.9,144.5 	"/>
	<path class="st0" d="M349.6,81.3C326.7,35.8,279.5,4.5,225,4.5S123.3,35.8,100.4,81.3l-90.9-14v153.3l90.9-14
		c23,45.6,70.1,76.8,124.6,76.8s101.7-31.3,124.6-76.8l90.9,14V67.3L349.6,81.3z M314.7,55.4L288.4,80l9.8,10.5l-5.3,4.9l-14.7-15.8
		l31.6-29.5L314.7,55.4z M280.5,30.9l3.2,1.6l-0.1,20.1l-11.4,22.5l-6.4-3.3l4.9-9.6l-6.4-3.3l-4.9,9.6l-6.4-3.3l11.4-22.5
		L280.5,30.9z M235.1,17.9l17.8,3l3,4.1l-3,17.8l-4.1,3L238.1,44l-3,17.8l-7.1-1.2L235.1,17.9z M200.7,20.3l5.9,35.5l7.1-1.2
		l-5.9-35.5l7.1-1.2l6.5,39.1l-3,4.1l-14.2,2.4l-4.1-3l-6.5-39.1L200.7,20.3z M171.4,29.8l4.9,1.5l6.9,12.7l0,0l0,0l-2.2,7.4
		l7.2,2.2l0.1-0.1l6.9,12.7l-6.3,3.4l-5.4-9.9l-9.1-2.7l-0.4,0.2l8.6,15.8l-6.3,3.4l-20.6-38L171.4,29.8z M137.8,52.8l5.1-0.2
		l26.3,24.6l0.2,5.1l-12.3,13.2L125.5,66L137.8,52.8z M137.8,235.2L125.5,222l31.6-29.5l12.3,13.2l-0.2,5.1l-26.3,24.6L137.8,235.2z
		 M180,230.2l3.6-6.3l-6.3-3.6l-14.3,25l6.3,3.6l3.6-6.3l6.3,3.6l-5.3,9.4l-4.9,1.3l-12.5-7.1l-1.3-4.9l17.8-31.3l4.9-1.3l12.5,7.1
		l1.3,4.9l-5.3,9.4L180,230.2z M199.4,248.4c-1.3,3.6-5,5-8.3,3.8c-2.2-0.8-3.9-2.8-4.3-5c-0.2-1.1-0.1-2.2,0.3-3.3
		c1.3-3.5,4.6-4.1,5.2-4.2c0.7-0.1,1.2-0.1,2.1-0.4c0.4-0.1,0.8-0.4,1.3-1.3c0.3,0.8,0.6,1.7,0.9,2.1c0.5,0.7,1.1,1.1,1.7,1.8
		c0.2,0.2,0.7,0.8,1,1.8C199.8,244.7,200.1,246.4,199.4,248.4z M228.4,241.7l-14.9,20.5l13.3,1l-0.5,7.2l-21.5-1.6l0.5-7.2
		l16.1-22.2l0.4-5.4l-7.2-0.5l-0.5,7.2l-7.2-0.5l0.8-10.8l3.9-3.3l3.6,0.3l0,0l10.8,0.8l3.3,3.9L228.4,241.7z M261.6,264.8
		l-10.5,2.5l0,0l-3.5,0.8l-4.3-2.6L239,248l-4.2-17.5l2.7-4.3l3.5-0.8l0,0l10.5-2.5l4.3,2.7l4.2,17.5l4.2,17.5L261.6,264.8z
		 M293.1,250.1l-6.2,3.7l-6.2,3.7l-3.7-6.2l6.2-3.7l-13-21.6l-4.6,2.8l-3.7-6.2l4.6-2.8l-1.9-3.1l6.2-3.7l18.6,30.8l6.2-3.7l3.7,6.2
		L293.1,250.1z M309.8,237.8l-11.2-30.2l-5.3-4.9l-4.9,5.3l5.3,4.9l-4.9,5.3l-5.3-4.9l-5.3-4.9l4.9-5.3l7.4-7.9l5.1-0.2l7.9,7.4
		l11.2,30.2L309.8,237.8z M432.5,211.3l-160.3-24.7c-11.6,12.3-27.9,19-45,19c-4.9,0-9.8-0.5-14.8-1.6c-0.6-0.1-1.2-0.3-1.8-0.5
		c-0.1,0-0.2-0.1-0.4-0.1c-0.6-0.2-1.2-0.3-1.8-0.5c-0.2-0.1-0.4-0.1-0.6-0.2c-1-0.3-2-0.6-3-1c-0.2-0.1-0.5-0.2-0.7-0.3
		c-0.5-0.2-1-0.4-1.5-0.6c-0.3-0.1-0.7-0.3-1-0.4c-0.7-0.3-1.3-0.6-2-0.9c-0.5-0.2-0.9-0.4-1.4-0.6c-0.4-0.2-0.8-0.4-1.2-0.6
		c-0.4-0.2-0.8-0.4-1.3-0.7c-0.3-0.2-0.7-0.4-1-0.6c-0.7-0.4-1.4-0.8-2.1-1.2c-0.3-0.2-0.6-0.4-0.9-0.5c-0.5-0.3-1-0.6-1.5-1
		c-0.3-0.2-0.5-0.3-0.8-0.5c-0.7-0.5-1.4-1-2.1-1.5c-0.2-0.1-0.4-0.3-0.5-0.4c-0.6-0.4-1.1-0.9-1.7-1.4c-0.2-0.1-0.3-0.3-0.5-0.4
		c-0.7-0.6-1.4-1.2-2.1-1.8c-0.1-0.1-0.1-0.1-0.2-0.2c-0.6-0.6-1.3-1.2-1.9-1.8c-0.1-0.1-0.1-0.1-0.2-0.2l-162.8,25V76.7l159.6,24.5
		c3-3.4,6.2-6.3,9.3-8.7c7.6-5.7,14.9-8.8,19-10.1c1-0.4,1.9-0.6,2.5-0.8c6.8-2,11.5-2.6,19.7-6.6c0.3-0.1,0.5-0.2,0.8-0.4
		c2.4-1.4,4.8-3.3,6.9-7.1c1-1.9,2-4.1,3-7c0,0,0,0,0,0c0,0,0-0.3,0-0.3l0,0l0,0c0,0,0,0.4,0,0.4l0,0c3.6,7,8,15.1,11.6,18.9
		c0.7,0.7,1.4,1.4,2.1,2c5.2,4.7,10.8,7.9,16.1,13.1c0.1,0.1,0.2,0.2,0.3,0.3c0.9,0.9,3,2.9,5.5,6l158.6-24.4V211.3z"/>
	<polygon class="st0" points="249.6,230.6 242.6,232.3 246,246.3 249.4,260.3 256.4,258.6 253,244.6 	"/>
	<path class="st0" d="M148.5,150.3c-2.7,4.8-4,7.2-6.7,12.2c-2.7-4.7-4-7-6.7-11.9c0-15.4,0-30.8,0-46.2c-5.4-0.7-8.1-1.1-13.5-1.8
		c0,16.1,0,32.2,0,48.3c5.4,10.9,11,21.6,16.9,32.2c2.7-0.4,4-0.5,6.7-0.9c5.4-10.9,11-21.6,16.9-32.2c0-14,0-28,0-42
		c-5.4-0.7-8.1-1.1-13.5-1.8C148.5,120.9,148.5,135.6,148.5,150.3z"/>
	<path class="st0" d="M114.7,108.7c-2.7-3.1-4-4.7-6.7-7.9c-8.1-1.1-12.2-1.6-20.3-2.7c0,0,0,0,0,0c-2.7-0.4-4.1-0.5-6.8-0.9
		c-2.7,2.8-4.1,4.2-6.8,7c0,3.2,0,4.8,0,7.9c0,6.4,0,9.5,0,15.9c0,15.9,0,31.8,0,47.7c0,0,0,0,0,0c0,3.2,0,4.8,0,7.9
		c2.7,2.9,4,4.3,6.7,7.1c8.1-1.1,12.2-1.6,20.3-2.7c0,0,0,0,0,0c2.7-0.4,4.1-0.5,6.8-0.9c2.7-3.2,4.1-4.8,6.8-7.9c0-2.8,0-4.2,0-7
		c0-5.6,0-8.5,0-14.1c0-14.1,0-28.2,0-42.3c0,0,0,0,0,0C114.7,113,114.7,111.6,114.7,108.7z M101.3,129.3c0,9.8,0,19.6,0,29.4
		c0,5.9,0,8.8,0,14.7c-5.4,0.5-8.1,0.7-13.5,1.2c0-6.1,0-9.2,0-15.3c0-10.2,0-20.4,0-30.6c0-6.1,0-9.2,0-15.3
		c5.4,0.5,8.1,0.7,13.5,1.2C101.3,120.5,101.3,123.4,101.3,129.3z"/>
	<path class="st0" d="M67.5,127.8c0-9.7,0-14.6,0-24.3c-2.7-3.5-4-5.3-6.7-9c-8.1-1.1-12.2-1.6-20.2-2.7c0,0,0,0,0,0
		c-2.7-0.4-4-0.5-6.7-0.9c-2.7,3.2-4,4.8-6.7,8.1c0,3.6,0,5.4,0,9c0,7.2,0,10.8,0,18c0,18,0,36,0,54c0,0,0,0,0,0c0,3.6,0,5.4,0,9
		c2.7,3.3,4,4.9,6.7,8.1c5.4-0.7,8.1-1.1,13.5-1.8c0,0,0,0,0,0c2.7-3.8,4-5.6,6.7-9.3c0,3.4,0,5,0,8.4c5.4-0.7,8.1-1.1,13.5-1.8
		c0-10.8,0-21.6,0-32.4c0-6.5,0-9.7,0-16.2c-8.1,0-12.2,0-20.3,0c0,6.8,0,10.3,0,17.1c2.7-0.1,4-0.2,6.7-0.3c0,6.7,0,10.1,0,16.8
		c-5.4,0.5-8.1,0.7-13.5,1.2c0-7,0-10.4,0-17.4c0-11.6,0-23.2,0-34.8c0-7,0-10.4,0-17.4c5.4,0.5,8.1,0.7,13.5,1.2
		c0,6.7,0,10.1,0,16.8C59.4,127.4,62.1,127.6,67.5,127.8z"/>
	<path class="st0" d="M396,144c4.6,17.4,9.1,34.8,13.5,52.2c5.4,0.7,8.1,1.1,13.5,1.8c0-36,0-72,0-108c-5.4,0.7-8.1,1.1-13.5,1.8
		c0,17.4,0,34.8,0,52.2c-4.4-16.8-8.9-33.6-13.5-50.4c-5.4,0.7-8.1,1.1-13.5,1.8c0,32.4,0,64.8,0,97.2c5.4,0.7,8.1,1.1,13.5,1.8
		C396,177.6,396,160.8,396,144z"/>
	<path class="st0" d="M288,174c2.7,2.7,4,4.1,6.7,6.9c8.1,1.1,12.1,1.6,20.2,2.7c0,0,0,0,0,0c2.7,0.4,4,0.5,6.8,0.9
		c2.7-2.3,4.1-3.5,6.8-6c0-8.3,0-12.4,0-20.7c-5.4-0.2-8.1-0.4-13.5-0.6c0,5.3,0,7.9,0,13.2c-5.4-0.5-8.1-0.7-13.5-1.2
		c0-5,0-7.6,0-12.6c0-10.1,0-15.1,0-25.2c0-5,0-7.6,0-12.6c5.4-0.5,8.1-0.7,13.5-1.2c0,5.3,0,7.9,0,13.2c5.4-0.2,8.1-0.4,13.5-0.6
		c0-8.3,0-12.4,0-20.7c-2.7-2.5-4-3.7-6.7-6c-8.1,1.1-12.2,1.6-20.2,2.7c0,0,0,0,0,0c-2.7,0.4-4,0.5-6.7,0.9c-2.7,2.8-4,4.2-6.7,6.9
		c0,2.4,0,3.6,0,6c0,4.8,0,7.2,0,12c0,12,0,24,0,36c0,0,0,0,0,0C288,170.4,288,171.6,288,174z"/>
	<path class="st0" d="M335.3,179.3c2.7,3.1,4,4.7,6.7,7.9c8.1,1.1,12.2,1.6,20.3,2.7c0,0,0,0,0,0c2.7,0.4,4.1,0.5,6.8,0.9
		c2.7-2.8,4.1-4.2,6.8-7c0-3.2,0-4.8,0-7.9c0-6.4,0-9.5,0-15.9c0-15.9,0-31.8,0-47.7c0,0,0,0,0,0c0-3.2,0-4.8,0-7.9
		c-2.7-2.9-4-4.3-6.7-7.1c-8.1,1.1-12.2,1.6-20.3,2.7c0,0,0,0,0,0c-2.7,0.4-4.1,0.5-6.8,0.9c-2.7,3.2-4.1,4.8-6.8,7.9
		c0,2.8,0,4.2,0,7c0,5.6,0,8.5,0,14.1c0,14.1,0,28.2,0,42.3c0,0,0,0,0,0C335.3,175,335.3,176.4,335.3,179.3z M348.7,158.7
		c0-9.8,0-19.6,0-29.4c0-5.9,0-8.8,0-14.7c5.4-0.5,8.1-0.7,13.5-1.2c0,6.1,0,9.2,0,15.3c0,10.2,0,20.4,0,30.6c0,6.1,0,9.2,0,15.3
		c-5.4-0.5-8.1-0.7-13.5-1.2C348.7,167.5,348.7,164.6,348.7,158.7z"/>
</g>
</symbol><symbol id="nih" viewBox="0 5.839 32 20.322">
<g>
	<path d="M22.307,11.479v9.083h-1.57v-4.097h-4.084v4.097h-1.57v-9.083h1.57v3.613h4.084v-3.613H22.307z
		 M13.509,20.562h-1.571v-9.083h1.571V20.562z M10.389,20.562H8.73l-4.084-6.68H4.607v6.68H3.112v-9.083h1.659l4.097,6.69h0.025
		v-6.69h1.495L10.389,20.562L10.389,20.562z M27.844,15.991L22.293,5.84H1.848C0.827,5.84,0,6.678,0,7.71v16.579
		c0,1.031,0.827,1.869,1.848,1.869h20.425L27.844,15.991z"/>
	<path fill="#FFFFFF" d="M23.667,26.16l5.563-10.169L23.686,5.839h1.388c0.761,0,1.685,0.553,2.052,1.225L32,15.992l-4.893,8.943
		c-0.369,0.674-1.293,1.226-2.051,1.226L23.667,26.16L23.667,26.16z"/>
</g>
</symbol><symbol id="twitter" viewBox="-255.5 -1087.5 32 32">
<g>
	<path d="M-227.627-1077.588c0.019,0.266,0.019,0.531,0.019,0.797c0,8.099-6.164,17.43-17.43,17.43
		c-3.471,0-6.695-1.005-9.408-2.75c0.493,0.057,0.967,0.076,1.479,0.076c2.864,0,5.5-0.967,7.605-2.617
		c-2.693-0.057-4.95-1.821-5.728-4.249c0.379,0.057,0.759,0.095,1.157,0.095c0.55,0,1.1-0.076,1.612-0.208
		c-2.807-0.569-4.913-3.035-4.913-6.013c0-0.019,0-0.057,0-0.076c0.815,0.455,1.764,0.74,2.769,0.777
		c-1.65-1.1-2.731-2.978-2.731-5.102c0-1.138,0.303-2.181,0.834-3.091c3.016,3.717,7.549,6.145,12.632,6.411
		c-0.095-0.455-0.152-0.929-0.152-1.403c0-3.376,2.731-6.126,6.126-6.126c1.764,0,3.357,0.74,4.476,1.935
		c1.384-0.266,2.712-0.778,3.888-1.479c-0.456,1.423-1.423,2.618-2.693,3.376c1.233-0.132,2.428-0.474,3.528-0.948
		C-225.389-1079.542-226.433-1078.461-227.627-1077.588z"/>
</g>
</symbol></svg>