<?xml version="1.0" encoding="UTF-8"?><!DOCTYPE svg PUBLIC "-//W3C//DTD SVG 1.1//EN" "http://www.w3.org/Graphics/SVG/1.1/DTD/svg11.dtd"><svg xmlns="http://www.w3.org/2000/svg" xmlns:xlink="http://www.w3.org/1999/xlink"><symbol id="email" viewBox="-255.5 -1087.5 32 32">
<g>
	<polygon points="-254.258,-1078.781 -255.5,-1081.265 -255.5,-1059.463 -251.832,-1059.463 -246.285,-1074.252 	"/>
	<polygon points="-239.5,-1070.399 -244.524,-1073.252 -249.696,-1059.463 -229.303,-1059.463 -234.475,-1073.253
		"/>
	<polygon points="-239.5,-1072.699 -226.258,-1080.219 -224.551,-1083.634 -254.449,-1083.634 -252.742,-1080.219
		"/>
	<polygon points="-223.5,-1081.263 -224.742,-1078.781 -232.714,-1074.253 -227.167,-1059.463 -223.5,-1059.463 	"/>
</g>
</symbol><symbol id="facebook" viewBox="-255.501 -1087.5 32 32">
<g>
	<path d="M-231.307-1082.045h-2.978c-2.333,0-2.77,1.119-2.77,2.731v3.585h5.558l-0.74,5.614h-4.817v14.396h-5.804
		v-14.396h-4.837v-5.614h4.837v-4.135c0-4.799,2.939-7.416,7.227-7.416c2.048,0,3.812,0.152,4.324,0.228V-1082.045z"/>
</g>
</symbol><symbol id="gc17" viewBox="0 0 288 288">
<g>
	<rect x="137.4" y="182.7" class="st0" width="13.3" height="53.1"/>
	<path d="M201.1,62.9c-7.7-4.3-31-17-42.4-29.5C145.2,18.6,144,4,144,4s-1.2,14.6-14.7,29.5
		C117.9,46,94.6,58.7,86.9,62.9c-36.2,20.1-60.8,58.8-60.8,103.2C26.1,231.2,78.9,284,144,284c65.1,0,117.9-52.8,117.9-117.9
		C261.9,121.7,237.4,83.1,201.1,62.9z M64.2,178l-8.7-6.3l-8.7,6.3l3.3-10.2l-8.7-6.3h10.7l3.3-10.2l3.3,10.2h10.7l-8.7,6.3
		L64.2,178z M90.9,182.7v53.1h13.3v-13.3h13.3v19.9l-6.6,6.6l-26.5,0l-6.6-6.6l0-66.3l6.6-6.6l26.5,0l6.6,6.6l0,19.9h-13.3v-13.3
		H90.9z M90.9,96.5v53.1h13.3v-13.3h-6.6V123h19.9v39.8l-13.3,0v-6.6l-6.6,6.6l0,0H84.3l-6.6-6.6l0-66.3l6.6-6.6l26.5,0l6.6,6.6
		l0,19.9h-13.3V96.5H90.9z M157.3,249l-26.5,0l-6.6-6.6l0-66.3l6.6-6.6l26.5,0l6.6,6.6l0,66.3L157.3,249z M157.3,162.8l-26.5,0
		l-6.6-6.6l0-66.3l6.6-6.6l26.5,0l6.6,6.6l0,66.3L157.3,162.8z M210.3,249h-13.3l-13.3-39.8V249h-13.3v-79.6h13.3l13.3,39.8v-39.8
		h13.3V249z M210.3,129.6l-16.6,33.2h-6.6l-16.6-33.2V83.2h13.3v46.4l6.6,12.4l6.6-12.4V83.2h13.3V129.6z M232.4,171.7l-8.7,6.3
		l3.3-10.2l-8.7-6.3h10.7l3.3-10.2l3.3,10.2h10.7l-8.7,6.3l3.3,10.2L232.4,171.7z"/>
	<rect x="137.4" y="96.5" class="st0" width="13.3" height="53.1"/>
</g>
</symbol><symbol id="instagram" viewBox="-255.501 -1087.5 32 32">
<g>
	<path d="M-227.501-1062.579c0,1.689-1.391,3.079-3.078,3.079h-17.844c-1.687,0-3.077-1.391-3.077-3.079v-17.842
		c0-1.688,1.391-3.078,3.077-3.078h17.844c1.687,0,3.078,1.391,3.078,3.078V-1062.579z M-230.219-1073.344h-2.109
		c0.203,0.641,0.313,1.344,0.313,2.047c0,4-3.343,7.234-7.469,7.234c-4.109,0-7.452-3.234-7.452-7.234
		c0-0.703,0.109-1.406,0.313-2.047h-2.204v10.125c0,0.53,0.423,0.953,0.953,0.953h16.704c0.53,0,0.953-0.423,0.953-0.953V-1073.344z
		 M-239.486-1076.219c-2.656,0-4.811,2.093-4.811,4.672c0,2.579,2.155,4.673,4.811,4.673c2.673,0,4.829-2.094,4.829-4.673
		C-234.657-1074.126-236.813-1076.219-239.486-1076.219z M-230.219-1079.75c0-0.594-0.484-1.078-1.078-1.078h-2.719
		c-0.594,0-1.078,0.484-1.078,1.078v2.578c0,0.594,0.484,1.078,1.078,1.078h2.719c0.594,0,1.078-0.484,1.078-1.078V-1079.75z"/>
</g>
</symbol><symbol id="nih" viewBox="0 5.839 32 20.322">
<g>
	<path d="M22.307,11.479v9.083h-1.57v-4.097h-4.084v4.097h-1.57v-9.083h1.57v3.613h4.084v-3.613H22.307z
		 M13.509,20.562h-1.571v-9.083h1.571V20.562z M10.389,20.562H8.73l-4.084-6.68H4.607v6.68H3.112v-9.083h1.659l4.097,6.69h0.025
		v-6.69h1.495L10.389,20.562L10.389,20.562z M27.844,15.991L22.293,5.84H1.848C0.827,5.84,0,6.678,0,7.71v16.579
		c0,1.031,0.827,1.869,1.848,1.869h20.425L27.844,15.991z"/>
	<path fill="#FFFFFF" d="M23.667,26.16l5.563-10.169L23.686,5.839h1.388c0.761,0,1.685,0.553,2.052,1.225L32,15.992l-4.893,8.943
		c-0.369,0.674-1.293,1.226-2.051,1.226L23.667,26.16L23.667,26.16z"/>
</g>
</symbol><symbol id="twitter" viewBox="-255.5 -1087.5 32 32">
<g>
	<path d="M-227.627-1077.588c0.019,0.266,0.019,0.531,0.019,0.797c0,8.099-6.164,17.43-17.43,17.43
		c-3.471,0-6.695-1.005-9.408-2.75c0.493,0.057,0.967,0.076,1.479,0.076c2.864,0,5.5-0.967,7.605-2.617
		c-2.693-0.057-4.95-1.821-5.728-4.249c0.379,0.057,0.759,0.095,1.157,0.095c0.55,0,1.1-0.076,1.612-0.208
		c-2.807-0.569-4.913-3.035-4.913-6.013c0-0.019,0-0.057,0-0.076c0.815,0.455,1.764,0.74,2.769,0.777
		c-1.65-1.1-2.731-2.978-2.731-5.102c0-1.138,0.303-2.181,0.834-3.091c3.016,3.717,7.549,6.145,12.632,6.411
		c-0.095-0.455-0.152-0.929-0.152-1.403c0-3.376,2.731-6.126,6.126-6.126c1.764,0,3.357,0.74,4.476,1.935
		c1.384-0.266,2.712-0.778,3.888-1.479c-0.456,1.423-1.423,2.618-2.693,3.376c1.233-0.132,2.428-0.474,3.528-0.948
		C-225.389-1079.542-226.433-1078.461-227.627-1077.588z"/>
</g>
</symbol></svg>