<?xml version="1.0" encoding="utf-8"?>
<!-- Generator: Adobe Illustrator 21.0.2, SVG Export Plug-In . SVG Version: 6.00 Build 0)  -->
<svg version="1.1" id="_x34_04-Not_Found_Text_1-F" xmlns="http://www.w3.org/2000/svg" xmlns:xlink="http://www.w3.org/1999/xlink"
	 x="0px" y="0px" viewBox="0 0 1134 432" style="enable-background:new 0 0 1134 432;" xml:space="preserve">
<style type="text/css">
	.st0{fill:#003E6A;}
</style>
<g>
	<g>
		<path class="st0" d="M612,9h-90l-18,18v162l18,18h90l18-18V27L612,9z M576,81v54v18h-18v-18V81V63h18V81z"/>
		<polygon class="st0" points="441,90 441,108 426.3,108 459,36 459,9 405,9 405,27 369,108 369,162 441,162 441,207 495,207 
			495,90 		"/>
		<polygon class="st0" points="711,90 711,108 696.3,108 729,36 729,9 675,9 675,27 639,108 639,162 711,162 711,207 765,207 
			765,90 		"/>
	</g>
	<g>
		<g>
			<polygon class="st0" points="81,225 81,282 63,225 9,225 9,423 63,423 63,366 81,423 135,423 135,225 			"/>
			<path class="st0" d="M252,225l-36,0l-54,0l-18,18v162l18,18h90l18-18V243L252,225z M216,297v54v18h-18v-18v-54v-18h18V297z"/>
			<polygon class="st0" points="405,225 279,225 279,279 315,279 315,423 369,423 369,279 405,279 			"/>
		</g>
		<g>
			<polygon class="st0" points="936,225 936,282 918,225 864,225 864,423 918,423 918,366 936,423 990,423 990,225 			"/>
			<polygon class="st0" points="801,225 801,369 783,369 783,225 729,225 729,405 747,423 837,423 855,405 855,225 			"/>
			<path class="st0" d="M1107,225l-108,0v198l108,0l18-18V243L1107,225z M1071,369h-18v-90h18V369z"/>
			<path class="st0" d="M702,225h-90l-18,18v162l18,18h90l18-18V243L702,225z M666,297v54v18h-18v-18v-54v-18h18V297z"/>
			<polygon class="st0" points="585,279 585,225 459,225 459,423 513,423 513,360 558,360 558,306 513,306 513,279 			"/>
		</g>
	</g>
</g>
</svg>
