<?xml version="1.0" encoding="utf-8"?>
<!-- Generator: Adobe Illustrator 21.0.2, SVG Export Plug-In . SVG Version: 6.00 Build 0)  -->
<svg version="1.1" id="Spinner_1-Final" xmlns="http://www.w3.org/2000/svg" xmlns:xlink="http://www.w3.org/1999/xlink" x="0px"
	 y="0px" viewBox="0 0 288 288" style="enable-background:new 0 0 288 288;" xml:space="preserve">
<style type="text/css">
	.st0{fill:#86973A;}
</style>
<g>
	<g>
		<rect x="139.9" y="154.1" class="st0" width="8.1" height="32.4"/>
		<path class="st0" d="M178.9,81c-4.7-2.6-18.9-10.4-25.9-18c-8.3-9.1-9-18-9-18s-0.7,8.9-9,18c-7,7.6-21.2,15.4-25.9,18
			C87,93.3,72,116.9,72,144c0,39.8,32.2,72,72,72c39.8,0,72-32.2,72-72C216,116.9,201,93.3,178.9,81z M95.3,151.3l-5.3-3.8l-5.3,3.8
			l2-6.2l-5.3-3.8H88l2-6.2l2,6.2h6.5l-5.3,3.8L95.3,151.3z M111.6,154.1v32.4h8.1v-8.1h8.1v12.1l-4,4l-16.2,0l-4-4.1l0-40.5l4-4
			l16.2,0l4,4l0,12.2h-8.1v-8.1H111.6z M111.6,101.5v32.4h8.1v-8.1h-4v-8.1h12.1V142l-8.1,0v-4l-4,4l0,0h-8.1l-4-4.1l0-40.5l4-4
			l16.2,0l4,4l0,12.1h-8.1v-8.1H111.6z M152.1,194.6l-16.2,0l-4-4.1l0-40.5l4-4l16.2,0l4,4l0,40.5L152.1,194.6z M152.1,142l-16.2,0
			l-4-4.1l0-40.5l4-4l16.2,0l4,4l0,40.5L152.1,142z M184.5,194.6h-8.1l-8.1-24.3v24.3h-8.1V146h8.1l8.1,24.3V146h8.1V194.6z
			 M184.5,121.7L174.4,142h-4.1l-10.1-20.2V93.4h8.1v28.4l4,7.6l4.1-7.6V93.4h8.1V121.7z M198,147.4l-5.3,3.8l2-6.2l-5.3-3.8h6.5
			l2-6.2l2,6.2h6.5l-5.3,3.8l2,6.2L198,147.4z"/>
		<rect x="139.9" y="101.5" class="st0" width="8.1" height="32.4"/>
	</g>
	<g>
		<path class="st0" d="M9,144c0,1.5,0,3,0.1,4.5C11.5,76,70.9,18,144,18V9C69.4,9,9,69.4,9,144z"/>
		<path class="st0" d="M18,144c0,1.5,0,3,0.1,4.5C20.5,81,75.9,27,144,27v-9C74.4,18,18,74.4,18,144z"/>
		<path class="st0" d="M27,144c0,1.5,0,3,0.1,4.5C29.5,86,80.9,36,144,36v-9C79.4,27,27,79.4,27,144z"/>
		<path class="st0" d="M144,36C84.4,36,36,84.4,36,144c0,1.5,0,3,0.1,4.5c2.2-54.8,45.4-99.1,99.7-103.2c0.1-0.5,0.2-0.9,0.2-1
			c0.2-4.2,3.7-7.5,8-7.5c0,0,0,0,0,0V36z"/>
		<path class="st0" d="M45,144c0,1.5,0,3,0.1,4.5c2.2-48.4,39-87.7,86.3-93.7c3-4.1,4.1-7.7,4.5-9.5C85,49.5,45,92.1,45,144z"/>
		<path class="st0" d="M54,144c0,1.5,0,3,0.1,4.5c1.9-38.2,27.6-70.2,62.7-81.3c4.6-2.9,9.4-6.4,12.3-9.6c0.8-0.9,1.6-1.8,2.2-2.7
			C87.6,61.1,54,98.6,54,144z"/>
		<path class="st0" d="M278.9,139.5C276.5,212,217.1,270,144,270v9c74.6,0,135-60.4,135-135C279,142.5,279,141,278.9,139.5z"/>
		<path class="st0" d="M270,144c0-1.5,0-3-0.1-4.5C267.5,207,212.1,261,144,261v9C213.6,270,270,213.6,270,144z"/>
		<path class="st0" d="M261,144c0-1.5,0-3-0.1-4.5C258.5,202,207.1,252,144,252v9C208.6,261,261,208.6,261,144z"/>
		<path class="st0" d="M252,144c0-1.5,0-3-0.1-4.5C249.5,197.1,202.1,243,144,243v9C203.6,252,252,203.6,252,144z"/>
		<path class="st0" d="M243,144c0-1.5,0-3-0.1-4.5c-2.4,52.6-45.7,94.5-98.9,94.5v9C198.7,243,243,198.7,243,144z"/>
		<path class="st0" d="M234,144c0-1.5,0-3-0.1-4.5c-2.3,47.6-41.7,85.5-89.9,85.5v9C193.7,234,234,193.7,234,144z"/>
	</g>
</g>
</svg>
