<?xml version="1.0" encoding="utf-8"?>
<!-- Generator: Adobe Illustrator 21.1.0, SVG Export Plug-In . SVG Version: 6.00 Build 0)  -->
<svg version="1.1" id="_x34_03-Access_Denied_Text_1-F"
	 xmlns="http://www.w3.org/2000/svg" xmlns:xlink="http://www.w3.org/1999/xlink" x="0px" y="0px" viewBox="0 0 828 648"
	 style="enable-background:new 0 0 828 648;" xml:space="preserve">
<style type="text/css">
	.st0{fill:#003E6A;}
</style>
<g>
	<polygon class="st0" points="288,90 288,108 273.3,108 306,36 306,9 252,9 252,27 216,108 216,162 288,162 288,207 342,207 342,90 
			"/>
	<path class="st0" d="M459,9h-90l-18,18v162l18,18h90l18-18V27L459,9z M423,153h-18V63h18V153z"/>
	<polygon class="st0" points="594,9 504,9 486,27 486,72 540,72 540,63 558,63 558,81 522,81 522,135 558,135 558,153 540,153 
		540,144 486,144 486,189 504,207 594,207 612,189 612,126 594,108 612,90 612,27 	"/>
</g>
<g>
	<polygon class="st0" points="679.5,288 679.5,243 661.5,225 571.5,225 553.5,243 553.5,333 571.5,351 625.5,351 625.5,369 
		607.5,369 607.5,360 553.5,360 553.5,405 571.5,423 661.5,423 679.5,405 679.5,315 661.5,297 607.5,297 607.5,279 625.5,279 
		625.5,288 	"/>
	<polygon class="st0" points="544.5,279 544.5,225 418.5,225 418.5,423 544.5,423 544.5,369 472.5,369 472.5,351 517.5,351 
		517.5,297 472.5,297 472.5,279 	"/>
	<path class="st0" d="M99,225H54l-40.5,72v126h54v-36h18v36h54V297L99,225z M67.5,333v-27l9-16.8l9,16.8v27H67.5z"/>
	<polygon class="st0" points="274.5,297 274.5,243 256.5,225 166.5,225 148.5,243 148.5,405 166.5,423 256.5,423 274.5,405 
		274.5,351 220.5,351 220.5,369 202.5,369 202.5,279 220.5,279 220.5,297 	"/>
	<polygon class="st0" points="409.5,297 409.5,243 391.5,225 301.5,225 283.5,243 283.5,405 301.5,423 391.5,423 409.5,405 
		409.5,351 355.5,351 355.5,369 337.5,369 337.5,279 355.5,279 355.5,297 	"/>
	<polygon class="st0" points="814.5,288 814.5,243 796.5,225 706.5,225 688.5,243 688.5,333 706.5,351 760.5,351 760.5,369 
		742.5,369 742.5,360 688.5,360 688.5,405 706.5,423 796.5,423 814.5,405 814.5,315 796.5,297 742.5,297 742.5,279 760.5,279 
		760.5,288 	"/>
</g>
<g>
	<polygon class="st0" points="355.5,441 355.5,498 337.5,441 283.5,441 283.5,639 337.5,639 337.5,582 355.5,639 409.5,639 
		409.5,441 	"/>
	<path class="st0" d="M121.5,441l-108,0v198l108,0l18-18V459L121.5,441z M85.5,585h-18v-90h18V585z"/>
	<path class="st0" d="M796.5,441l-108,0v198l108,0l18-18V459L796.5,441z M760.5,585h-18v-90h18V585z"/>
	<polygon class="st0" points="274.5,495 274.5,441 148.5,441 148.5,639 274.5,639 274.5,585 202.5,585 202.5,567 247.5,567 
		247.5,513 202.5,513 202.5,495 	"/>
	<polygon class="st0" points="679.5,495 679.5,441 553.5,441 553.5,639 679.5,639 679.5,585 607.5,585 607.5,567 652.5,567 
		652.5,513 607.5,513 607.5,495 	"/>
	<polygon class="st0" points="544.5,495 544.5,441 418.5,441 418.5,495 454.5,495 454.5,585 418.5,585 418.5,639 544.5,639 
		544.5,585 508.5,585 508.5,495 	"/>
</g>
</svg>
