<?xml version="1.0" encoding="utf-8"?>
<!-- Generator: Adobe Illustrator 21.1.0, SVG Export Plug-In . SVG Version: 6.00 Build 0)  -->
<svg version="1.1" id="Stop_Sign_1-Final" xmlns="http://www.w3.org/2000/svg" xmlns:xlink="http://www.w3.org/1999/xlink" x="0px"
	 y="0px" viewBox="0 0 234 234" style="enable-background:new 0 0 234 234;" xml:space="preserve">
<style type="text/css">
	.st0{fill:#86973A;}
</style>
<g>
	<polygon class="st0" points="100.8,144.2 100.8,132.1 96.8,128 80.5,128 76.5,132.1 76.5,172.6 80.5,176.6 96.8,176.6 100.8,172.6 
		100.8,160.4 92.7,160.4 92.7,168.5 84.6,168.5 84.6,136.1 92.7,136.1 92.7,144.2 	"/>
	<path class="st0" d="M125.1,75.4l-16.2,0l-4,4l0,40.5l4,4.1l16.2,0l4.1-4l0-40.5L125.1,75.4z M121,115.9h-8.1V83.5h8.1V115.9z"/>
	<path class="st0" d="M125.1,128l-16.2,0l-4,4l0,40.5l4,4.1l16.2,0l4.1-4l0-40.5L125.1,128z M121,168.5h-8.1v-32.4h8.1V168.5z"/>
	<polygon class="st0" points="100.8,91.6 100.8,79.4 96.8,75.4 80.5,75.4 76.5,79.4 76.5,119.9 80.5,124 88.6,124 88.7,124 
		92.7,119.9 92.7,124 100.8,124 100.8,99.7 88.6,99.7 88.6,107.8 92.7,107.8 92.7,115.9 84.6,115.9 84.6,83.5 92.7,83.5 92.7,91.6 	
		"/>
	<path class="st0" d="M161.7,9H72.3L9,72.3v89.5L72.3,225h89.5l63.3-63.3V72.3L161.7,9z M117,198c-39.8,0-72-32.2-72-72
		c0-27.1,15-50.7,37.1-63c4.7-2.6,18.9-10.4,25.9-18c8.3-9.1,9-18,9-18s0.7,8.9,9,18c7,7.6,21.2,15.4,25.9,18
		C174,75.3,189,98.9,189,126C189,165.8,156.8,198,117,198z"/>
	<polygon class="st0" points="149.4,152.3 141.3,128 133.2,128 133.2,176.6 141.3,176.6 141.3,152.3 149.4,176.6 157.5,176.6 
		157.5,128 149.4,128 	"/>
	<polygon class="st0" points="167.7,127.1 165.7,133.3 171,129.4 176.3,133.3 174.3,127.1 179.6,123.2 173,123.2 171,117 169,123.2 
		162.4,123.2 	"/>
	<polygon class="st0" points="65,123.2 63,117 61,123.2 54.4,123.2 59.7,127.1 57.7,133.3 63,129.4 68.3,133.3 66.3,127.1 
		71.6,123.2 	"/>
	<polygon class="st0" points="149.4,103.7 145.3,111.3 141.3,103.7 141.3,75.4 133.2,75.4 133.2,103.7 143.3,124 147.4,124 
		157.5,103.7 157.5,75.4 149.4,75.4 	"/>
</g>
</svg>
