<?xml version="1.0" encoding="utf-8"?>
<!-- Generator: Adobe Illustrator 21.0.0, SVG Export Plug-In . SVG Version: 6.00 Build 0)  -->
<svg version="1.1" id="Instagram" xmlns="http://www.w3.org/2000/svg" xmlns:xlink="http://www.w3.org/1999/xlink" x="0px" y="0px"
	 viewBox="-255.501 -1087.5 32 32" enable-background="new -255.501 -1087.5 32 32" xml:space="preserve">
<g>
	<path d="M-227.501-1062.579c0,1.689-1.391,3.079-3.078,3.079h-17.844c-1.687,0-3.077-1.391-3.077-3.079v-17.842
		c0-1.688,1.391-3.078,3.077-3.078h17.844c1.687,0,3.078,1.391,3.078,3.078V-1062.579z M-230.219-1073.344h-2.109
		c0.203,0.641,0.313,1.344,0.313,2.047c0,4-3.343,7.234-7.469,7.234c-4.109,0-7.452-3.234-7.452-7.234
		c0-0.703,0.109-1.406,0.313-2.047h-2.204v10.125c0,0.53,0.423,0.953,0.953,0.953h16.704c0.53,0,0.953-0.423,0.953-0.953V-1073.344z
		 M-239.486-1076.219c-2.656,0-4.811,2.093-4.811,4.672c0,2.579,2.155,4.673,4.811,4.673c2.673,0,4.829-2.094,4.829-4.673
		C-234.657-1074.126-236.813-1076.219-239.486-1076.219z M-230.219-1079.75c0-0.594-0.484-1.078-1.078-1.078h-2.719
		c-0.594,0-1.078,0.484-1.078,1.078v2.578c0,0.594,0.484,1.078,1.078,1.078h2.719c0.594,0,1.078-0.484,1.078-1.078V-1079.75z"/>
</g>
</svg>
