<?xml version="1.0" encoding="utf-8"?>
<!-- Generator: Adobe Illustrator 21.0.0, SVG Export Plug-In . SVG Version: 6.00 Build 0)  -->
<svg version="1.1" id="Wordmark-Final-Rev" xmlns="http://www.w3.org/2000/svg" xmlns:xlink="http://www.w3.org/1999/xlink" x="0px"
	 y="0px" viewBox="0 0 288 288" style="enable-background:new 0 0 288 288;" xml:space="preserve">
<style type="text/css">
	.st0{fill:#FFFFFF;}
</style>
<g>
	<rect x="137.4" y="182.7" class="st0" width="13.3" height="53.1"/>
	<path class="st0" d="M201.1,62.9c-7.7-4.3-31-17-42.4-29.5C145.2,18.6,144,4,144,4s-1.2,14.6-14.7,29.5
		C117.9,46,94.6,58.7,86.9,62.9c-36.2,20.1-60.8,58.8-60.8,103.2C26.1,231.2,78.9,284,144,284c65.1,0,117.9-52.8,117.9-117.9
		C261.9,121.7,237.4,83.1,201.1,62.9z M64.2,178l-8.7-6.3l-8.7,6.3l3.3-10.2l-8.7-6.3h10.7l3.3-10.2l3.3,10.2h10.7l-8.7,6.3
		L64.2,178z M90.9,182.7v53.1h13.3v-13.3h13.3v19.9l-6.6,6.6l-26.5,0l-6.6-6.6l0-66.3l6.6-6.6l26.5,0l6.6,6.6l0,19.9h-13.3v-13.3
		H90.9z M90.9,96.5v53.1h13.3v-13.3h-6.6V123h19.9v39.8l-13.3,0v-6.6l-6.6,6.6l0,0H84.3l-6.6-6.6l0-66.3l6.6-6.6l26.5,0l6.6,6.6
		l0,19.9h-13.3V96.5H90.9z M157.3,249l-26.5,0l-6.6-6.6l0-66.3l6.6-6.6l26.5,0l6.6,6.6l0,66.3L157.3,249z M157.3,162.8l-26.5,0
		l-6.6-6.6l0-66.3l6.6-6.6l26.5,0l6.6,6.6l0,66.3L157.3,162.8z M210.3,249h-13.3l-13.3-39.8V249h-13.3v-79.6h13.3l13.3,39.8v-39.8
		h13.3V249z M210.3,129.6l-16.6,33.2h-6.6l-16.6-33.2V83.2h13.3v46.4l6.6,12.4l6.6-12.4V83.2h13.3V129.6z M232.4,171.7l-8.7,6.3
		l3.3-10.2l-8.7-6.3h10.7l3.3-10.2l3.3,10.2h10.7l-8.7,6.3l3.3,10.2L232.4,171.7z"/>
	<rect x="137.4" y="96.5" class="st0" width="13.3" height="53.1"/>
</g>
</svg>
